<?xml version="1.0" encoding="utf-8"?>
<!-- Generator: Adobe Illustrator 21.0.0, SVG Export Plug-In . SVG Version: 6.00 Build 0)  -->
<!DOCTYPE svg PUBLIC "-//W3C//DTD SVG 1.1//EN" "http://www.w3.org/Graphics/SVG/1.1/DTD/svg11.dtd">
<svg version="1.1" id="Layer_1" xmlns="http://www.w3.org/2000/svg" xmlns:xlink="http://www.w3.org/1999/xlink" x="0px" y="0px"
	 viewBox="0 0 124.7 163.3" enable-background="new 0 0 124.7 163.3" xml:space="preserve">
<g>
	<path fill="#FFFFFF" d="M106.9,83.6c-2.5-2.6-5.3-5-8.2-7.1c-0.6,0.6-1.2,1.2-1.8,1.7c0.6-0.6,1.2-1.1,1.8-1.7
		C101.6,78.6,104.4,81,106.9,83.6z"/>
	<path fill="#FFFFFF" d="M9.9,93.5c1-1.5,2-3,3.1-4.5C11.9,90.5,10.8,92,9.9,93.5z"/>
	<path fill="#FFFFFF" d="M0,145.6c0,1.2,0.1,2.4,0.4,3.6C0.1,148,0,146.9,0,145.6L0,145.6z"/>
	<path fill="#FFFFFF" d="M2.1,154c-0.8-1.5-1.4-3.1-1.8-4.8C0.7,150.9,1.3,152.5,2.1,154z"/>
	<path fill="#FFFFFF" d="M111.7,89.1c1.1,1.4,2.2,2.9,3.1,4.5C113.9,92,112.8,90.5,111.7,89.1z"/>
	<path fill="#FFFFFF" d="M89,84.2c2.1-1.3,4.1-2.7,6-4.3C93.2,81.4,91.1,82.9,89,84.2z"/>
	<path fill="#FFFFFF" d="M115.8,95.1c0.9,1.6,1.8,3.2,2.6,4.8C117.6,98.2,116.8,96.6,115.8,95.1z"/>
	<path fill="#FFFFFF" d="M27.8,78.2c-0.6-0.6-1.2-1.1-1.8-1.7c-3,2.1-5.7,4.5-8.2,7.1c2.5-2.6,5.3-5,8.2-7.1
		C26.6,77.1,27.2,77.7,27.8,78.2z"/>
	<path fill="#FFFFFF" d="M119.9,103.2c0.7,1.7,1.3,3.4,1.9,5.2C121.3,106.7,120.6,104.9,119.9,103.2z"/>
	<path fill="#FFFFFF" d="M29.6,79.9c1.9,1.6,3.9,3,6,4.3C33.6,82.9,31.5,81.4,29.6,79.9z"/>
	<path fill="#FFFFFF" d="M4,156.8C3.3,156,2.7,155,2.1,154C2.7,155,3.3,156,4,156.8z"/>
	<path fill="#FFFFFF" d="M121.8,108.4c1.9,5.9,2.9,12.2,2.9,18.7v18.5c0,3-0.8,5.9-2.1,8.4c1.4-2.5,2.1-5.4,2.1-8.4v-18.5
		C124.7,120.6,123.7,114.4,121.8,108.4z"/>
	<path fill="#FFFFFF" d="M118.4,99.9c0.5,1.1,1,2.2,1.5,3.3C119.5,102.1,119,101,118.4,99.9z"/>
	<path fill="#FFFFFF" d="M122.6,154c-0.8,1.5-1.8,2.9-3,4.1C120.7,156.9,121.8,155.5,122.6,154z"/>
	<path fill="#FFFFFF" d="M62.4,81c22.4,0,40.5-18.1,40.5-40.5C102.9,18.1,84.7,0,62.4,0S21.8,18.1,21.8,40.5
		C21.8,62.9,40,81,62.4,81z M62.4,16c13.5,0,24.5,11,24.5,24.5C86.9,54,75.9,65,62.4,65c-13.5,0-24.5-11-24.5-24.5
		C37.8,27,48.8,16,62.4,16z"/>
	<path fill="#FFFFFF" d="M124.7,127.2c0-6.5-1-12.8-2.9-18.7c-0.6-1.8-1.2-3.5-1.9-5.2c-0.5-1.1-1-2.2-1.5-3.3
		c-0.8-1.6-1.7-3.3-2.6-4.8c-0.3-0.5-0.6-1-1-1.5c-1-1.5-2-3-3.1-4.5c-1.5-1.9-3.1-3.7-4.8-5.5c-2.5-2.6-5.3-5-8.2-7.1
		c-0.6,0.6-1.2,1.2-1.8,1.7c-0.6,0.6-1.2,1.1-1.9,1.6c-1.9,1.6-3.9,3-6,4.3c-1.4,0.9-2.9,1.7-4.4,2.4c-6.7,3.3-14.3,5.1-22.3,5.1
		s-15.6-1.8-22.3-5.1c-1.5-0.7-3-1.5-4.4-2.4c-2.1-1.3-4.1-2.7-6-4.3c-0.6-0.5-1.3-1.1-1.9-1.6c-0.6-0.6-1.2-1.1-1.8-1.7
		c-3,2.1-5.7,4.5-8.2,7.1c-1.7,1.7-3.3,3.6-4.8,5.5c-1.1,1.4-2.2,2.9-3.1,4.5C3.6,103.2,0,114.8,0,127.2v18.5c0,1.2,0.1,2.4,0.4,3.6
		c0.4,1.7,1,3.4,1.8,4.8c0.5,1,1.2,1.9,1.9,2.8c3.2,3.9,8.1,6.4,13.6,6.4h89.5c4.9,0,9.3-2,12.5-5.2c1.2-1.2,2.2-2.6,3-4.1
		c1.4-2.5,2.1-5.4,2.1-8.4V127.2z M108.7,145.6c0,0.9-0.7,1.6-1.6,1.6H17.6c-0.9,0-1.6-0.7-1.6-1.6v-18.5c0-10.9,3.9-21.4,10.8-29.7
		c10.6,6.6,22.8,10.2,35.6,10.2c12.8,0,25-3.6,35.6-10.2c6.9,8.3,10.8,18.7,10.8,29.7V145.6z"/>
</g>
</svg>
