<?xml version="1.0" encoding="utf-8"?>
<!-- Generator: Adobe Illustrator 21.0.0, SVG Export Plug-In . SVG Version: 6.00 Build 0)  -->
<!DOCTYPE svg PUBLIC "-//W3C//DTD SVG 1.1//EN" "http://www.w3.org/Graphics/SVG/1.1/DTD/svg11.dtd">
<svg version="1.1" id="Layer_1" xmlns="http://www.w3.org/2000/svg" xmlns:xlink="http://www.w3.org/1999/xlink" x="0px" y="0px"
	 viewBox="0 0 298.2 299.9" style="enable-background:new 0 0 298.2 299.9;" xml:space="preserve">
<style type="text/css">
	.st0{fill:none;}
	.st1{fill:#414042;}
	.st2{fill:#D63C00;}
	.st3{fill:url(#SVGID_1_);}
	.st4{fill:url(#SVGID_2_);}
	.st5{fill:url(#SVGID_3_);}
	.st6{fill:url(#SVGID_4_);}
	.st7{fill:url(#SVGID_5_);}
	.st8{fill:url(#SVGID_6_);}
	.st9{fill:url(#SVGID_7_);}
	.st10{fill:#58595B;}
	.st11{fill:#FFFFFF;}
	.st12{fill:#808285;}
	.st13{fill:#939598;}
	.st14{fill:url(#SVGID_8_);}
	.st15{fill:url(#SVGID_9_);}
	.st16{fill:url(#SVGID_10_);}
	.st17{fill:#D1D3D4;}
	.st18{fill:url(#SVGID_11_);}
	.st19{fill:url(#SVGID_12_);}
	.st20{fill:url(#SVGID_13_);}
	.st21{fill:url(#SVGID_14_);}
	.st22{fill:#BCBEC0;}
	.st23{fill:url(#SVGID_15_);}
	.st24{fill:url(#SVGID_16_);}
	.st25{fill:url(#SVGID_17_);}
	.st26{fill:url(#SVGID_18_);}
	.st27{fill:url(#SVGID_19_);}
	.st28{fill:#FF7640;}
</style>
<g>
	<polygon class="st0" points="206.9,168.7 148.9,68.3 91,168.7 	"/>
	<path class="st1" d="M58.7,224.1h-28l-6.2,4H54c18.7,22.3,44.8,38.5,74.9,43.6l15.6,25.6l0.1-7.6l-14.8-24.3
		C101.2,260.7,76.4,245.2,58.7,224.1z"/>
	<path class="st1" d="M210.1,169.8l-61-106L88,169.8H210.1z M206.9,168.7H91l57.9-100.5L206.9,168.7z"/>
	<polygon class="st2" points="195.1,207.1 192.6,204.1 105.5,204.1 103.3,207.1 	"/>
	<path class="st1" d="M41,193c-5.4-13.4-8.6-28.3-8.6-43.7C32.4,90.5,76.1,42,132.6,34l13.7-24V2.4l-14.4,25.3
		C72.3,36.2,26.3,87.3,26.3,149.3c0,16.2,3.3,31.9,9,46l-14.4,25l6.4-3.6L41,193z"/>
	<path class="st1" d="M263.1,195c5.7-14.1,9-29.8,9-46c0-62-46.3-113.4-106.2-121.6L151.5,2.2l-0.3,7.6l13.7,24
		c56.8,7.6,100.8,56.4,100.8,115.2c0,15.4-3.1,30.3-8.6,43.7l13.7,24l6.7,3.6L263.1,195z"/>
	<path class="st1" d="M239.4,224.1c-17.4,21.1-42.5,36.5-71.1,41.4l-14.8,24.6l0.4,7.6l15.6-25.9c30.1-5.1,56.6-21.4,74.9-43.6h29.8
		l-6.7-4h-28.1V224.1z"/>
	<polygon class="st1" points="76.5,189.3 62.7,213.4 67,210.1 79,189.3 79,189.3 	"/>
	<polygon class="st1" points="221.3,189.3 218.6,189.3 218.6,189.3 230.9,210.1 235.4,213.4 	"/>
	
		<linearGradient id="SVGID_1_" gradientUnits="userSpaceOnUse" x1="223.7" y1="294.6" x2="223.7" y2="76.5" gradientTransform="matrix(1 0 0 -1 0 296.8)">
		<stop  offset="0" style="stop-color:#58595B"/>
		<stop  offset="1" style="stop-color:#FFFFFF"/>
	</linearGradient>
	<path class="st3" d="M151.5,2.2l14.4,25.2C225.8,35.5,272.1,87,272.1,149c0,16.2-3.3,31.9-9,46l14.4,25.3
		c11.7-21.1,18.4-45.4,18.4-71.3C296.2,68.7,231.5,3.4,151.5,2.2z"/>
	
		<linearGradient id="SVGID_2_" gradientUnits="userSpaceOnUse" x1="74.2495" y1="293.6742" x2="74.2495" y2="77.8014" gradientTransform="matrix(1 0 0 -1 0 296.8)">
		<stop  offset="0" style="stop-color:#58595B"/>
		<stop  offset="1" style="stop-color:#FFFFFF"/>
	</linearGradient>
	<path class="st4" d="M35.3,195.3c-5.7-14.1-9-29.8-9-46c0-62,46-113.1,105.6-121.6l14.4-25.3C66.6,3.7,2.2,69,2.2,149
		c0,25.9,6.6,50.3,18.7,71.3L35.3,195.3z"/>
	
		<linearGradient id="SVGID_3_" gradientUnits="userSpaceOnUse" x1="76.1326" y1="19.4214" x2="91.4236" y2="45.9061" gradientTransform="matrix(1 0 0 -1 0 296.8)">
		<stop  offset="0" style="stop-color:#58595B"/>
		<stop  offset="1" style="stop-color:#FFFFFF"/>
	</linearGradient>
	<path class="st5" d="M128.9,271.8c-30.1-5.1-56.3-21.4-74.9-43.6H24.5c25.3,37.9,69.5,67.4,120.1,69.2L128.9,271.8z"/>
	
		<linearGradient id="SVGID_4_" gradientUnits="userSpaceOnUse" x1="222.4267" y1="19.7001" x2="206.7282" y2="46.8907" gradientTransform="matrix(1 0 0 -1 0 296.8)">
		<stop  offset="0" style="stop-color:#58595B"/>
		<stop  offset="1" style="stop-color:#FFFFFF"/>
	</linearGradient>
	<path class="st6" d="M244.5,228.1c-18.4,22.3-44.8,38.5-74.9,43.6L154,297.6c50.6-1.8,95.1-31.6,120.4-69.5L244.5,228.1
		L244.5,228.1z"/>
	
		<linearGradient id="SVGID_5_" gradientUnits="userSpaceOnUse" x1="149.1995" y1="78.4051" x2="149.1995" y2="274.9628" gradientTransform="matrix(1 0 0 -1 0 296.8)">
		<stop  offset="0" style="stop-color:#CFCFCF"/>
		<stop  offset="1" style="stop-color:#F4F5F5"/>
	</linearGradient>
	<path class="st7" d="M62.7,213.4l13.8-24.1h2.4l0,0h139.7l0,0h2.7l14.1,24.1H258L148.8,25L40.4,213.4H62.7z M210.1,169.8H88
		l61.1-105.9L210.1,169.8z"/>
	
		<linearGradient id="SVGID_6_" gradientUnits="userSpaceOnUse" x1="149.1995" y1="14.482" x2="149.1995" y2="94.5213" gradientTransform="matrix(1 0 0 -1 0 296.8)">
		<stop  offset="0" style="stop-color:#E03F00"/>
		<stop  offset="1" style="stop-color:#FF4800"/>
	</linearGradient>
	<polygon class="st8" points="103.3,207.1 149.1,281.7 195.1,207.1 	"/>
	
		<linearGradient id="SVGID_7_" gradientUnits="userSpaceOnUse" x1="149.2995" y1="84.1" x2="149.2995" y2="270.3" gradientTransform="matrix(1 0 0 -1 0 296.8)">
		<stop  offset="0" style="stop-color:#E6E7E8"/>
		<stop  offset="1" style="stop-color:#F1F2F2"/>
	</linearGradient>
	<path class="st9" d="M62.4,212.7l13.9-24h145.4l14.3,24h21L148.8,26.5L41.6,212.7H62.4z M211.1,170.3L87,170.2l62-107.6
		L211.1,170.3z"/>
	<polygon class="st10" points="40.4,213.4 41.6,212.7 62.4,212.7 62.7,213.4 	"/>
	<polygon class="st10" points="235.4,213.4 235.9,212.7 256.9,212.7 258,213.4 	"/>
	<polygon class="st10" points="76.2,188.7 76.5,189.3 221.3,189.3 221.6,188.7 	"/>
	<polygon class="st11" points="87.1,170.2 88,169.8 210.1,169.8 211.1,170.3 	"/>
	<polygon class="st12" points="62.4,212.7 76.2,188.7 76.5,189.3 62.7,213.4 	"/>
	<polygon class="st12" points="221.6,188.7 235.9,212.7 235.4,213.4 221.3,189.3 	"/>
	<polygon class="st12" points="87.1,170.2 149.1,62.6 149.1,63.8 88,169.8 	"/>
	<polygon class="st13" points="149.1,62.6 211.1,170.3 210.1,169.8 149.1,63.8 	"/>
	
		<linearGradient id="SVGID_8_" gradientUnits="userSpaceOnUse" x1="94.5995" y1="83.4" x2="94.5995" y2="271.8" gradientTransform="matrix(1 0 0 -1 0 296.8)">
		<stop  offset="0" style="stop-color:#E6E7E8"/>
		<stop  offset="1" style="stop-color:#FFFFFF"/>
	</linearGradient>
	<polygon class="st14" points="41.6,212.7 148.8,26.5 148.8,25 40.4,213.4 	"/>
	
		<linearGradient id="SVGID_9_" gradientUnits="userSpaceOnUse" x1="203.3995" y1="83.4" x2="203.3995" y2="271.8" gradientTransform="matrix(1 0 0 -1 0 296.8)">
		<stop  offset="0" style="stop-color:#E6E7E8"/>
		<stop  offset="1" style="stop-color:#FFFFFF"/>
	</linearGradient>
	<polygon class="st15" points="148.8,25 148.8,26.5 256.9,212.7 258,213.4 	"/>
	
		<linearGradient id="SVGID_10_" gradientUnits="userSpaceOnUse" x1="214.0995" y1="-0.8" x2="214.0995" y2="68.7" gradientTransform="matrix(1 0 0 -1 0 296.8)">
		<stop  offset="0" style="stop-color:#414042"/>
		<stop  offset="1" style="stop-color:#58595B"/>
	</linearGradient>
	<path class="st16" d="M264.7,228.1c-18.4,22.3-77,58.3-107.1,63.4l-3.7,6.1c50.6-1.8,95.1-31.6,120.4-69.5L264.7,228.1L264.7,228.1
		z"/>
	<polygon class="st17" points="169.5,271.8 170.2,272.7 155.5,296.8 153.9,297.6 	"/>
	
		<linearGradient id="SVGID_11_" gradientUnits="userSpaceOnUse" x1="244.4503" y1="68.25" x2="274.2475" y2="68.25" gradientTransform="matrix(1 0 0 -1 0 296.8)">
		<stop  offset="0" style="stop-color:#FFFFFF"/>
		<stop  offset="1" style="stop-color:#58595B"/>
	</linearGradient>
	<polygon class="st18" points="244.5,228.1 245.1,229 272.8,229 274.2,228.1 	"/>
	
		<linearGradient id="SVGID_12_" gradientUnits="userSpaceOnUse" x1="84.5221" y1="-1.3472" x2="84.5745" y2="66.4375" gradientTransform="matrix(1 0 0 -1 0 296.8)">
		<stop  offset="0" style="stop-color:#414042"/>
		<stop  offset="1" style="stop-color:#58595B"/>
	</linearGradient>
	<path class="st19" d="M137.3,285.4c-30.1-5.1-81.7-35.1-100.4-57.3H24.5C49.8,266,94,295.5,144.6,297.3L137.3,285.4z"/>
	
		<linearGradient id="SVGID_13_" gradientUnits="userSpaceOnUse" x1="24.4995" y1="68.3" x2="53.9995" y2="68.3" gradientTransform="matrix(1 0 0 -1 0 296.8)">
		<stop  offset="0" style="stop-color:#58595B"/>
		<stop  offset="1" style="stop-color:#FFFFFF"/>
	</linearGradient>
	<polygon class="st20" points="24.5,228.1 25.8,228.9 53.6,228.9 54,228.1 	"/>
	<polygon class="st17" points="128.9,271.8 144.6,297.3 143.1,296.6 128.5,272.6 	"/>
	
		<linearGradient id="SVGID_14_" gradientUnits="userSpaceOnUse" x1="74.2995" y1="77.1681" x2="74.2995" y2="293.0409" gradientTransform="matrix(1 0 0 -1 0 296.8)">
		<stop  offset="0" style="stop-color:#58595B"/>
		<stop  offset="1" style="stop-color:#FFFFFF"/>
	</linearGradient>
	<path class="st21" d="M26.9,208.2C21.2,194.1,16,158.7,16,142.5c0-62,59-120.2,118.6-128.7l11.8-11.4C66.6,3.7,2.2,69,2.2,149
		c0,25.9,6.6,50.3,18.7,71.3L26.9,208.2z"/>
	<polygon class="st12" points="34.3,195.3 35.3,195.3 20.9,220.3 20.9,218.7 	"/>
	<polygon class="st22" points="131.4,26.8 131.9,27.7 146.4,2.5 145,3.2 	"/>
	
		<linearGradient id="SVGID_15_" gradientUnits="userSpaceOnUse" x1="223.7498" y1="76.4" x2="223.7498" y2="294.6" gradientTransform="matrix(1 0 0 -1 0 296.8)">
		<stop  offset="0" style="stop-color:#58595B"/>
		<stop  offset="1" style="stop-color:#FFFFFF"/>
	</linearGradient>
	<path class="st23" d="M151.5,2.2L162,16.3c59.9,8.1,119.7,63.8,119.7,125.8c0,16.2-5.6,47.9-11.3,62.1l7.2,16.2
		c11.7-21.1,18.4-45.4,18.4-71.3C296.2,68.7,231.5,3.4,151.5,2.2z"/>
	<polygon class="st22" points="165.9,27.4 151.5,2.2 153,3 166.7,26.6 	"/>
	<polygon class="st12" points="263.1,195 263.9,195 277.6,219 277.6,220.3 	"/>
	
		<linearGradient id="SVGID_16_" gradientUnits="userSpaceOnUse" x1="224.2498" y1="77.6" x2="224.2498" y2="293.8" gradientTransform="matrix(1 0 0 -1 0 296.8)">
		<stop  offset="0" style="stop-color:#B3B3B3"/>
		<stop  offset="1" style="stop-color:#E6E7E8"/>
	</linearGradient>
	<path class="st24" d="M153,3l13.7,23.7c55.1,8.1,101.9,54.2,105.6,112.3c1.6,25.5-3,43-8.3,56.1l13.6,24.1
		c10.9-19.5,17.8-41.9,17.9-70.8C295.7,67.2,228.7,3.9,153,3z"/>
	
		<linearGradient id="SVGID_17_" gradientUnits="userSpaceOnUse" x1="73.8981" y1="78.1" x2="73.8981" y2="293.6" gradientTransform="matrix(1 0 0 -1 0 296.8)">
		<stop  offset="0" style="stop-color:#B3B3B3"/>
		<stop  offset="1" style="stop-color:#E6E7E8"/>
	</linearGradient>
	<path class="st25" d="M145,3.2l-13.6,23.6c-55.1,8.1-102,54.3-105.6,112.3c-1.6,25.5,3.2,43.2,8.5,56.3l-13.5,23.3
		C10,199.2,3,177.4,2.8,148.4C2.3,68.3,69.4,4.1,145,3.2z"/>
	
		<linearGradient id="SVGID_18_" gradientUnits="userSpaceOnUse" x1="84.4495" y1="0.1704" x2="84.4495" y2="67.9704" gradientTransform="matrix(1 0 0 -1 0 296.8)">
		<stop  offset="0" style="stop-color:#939598"/>
		<stop  offset="1" style="stop-color:#B3B3B3"/>
	</linearGradient>
	<path class="st26" d="M128.5,272.6c-28.3-4.8-55.9-21.2-74.8-43.7H25.8c24.6,36.3,67.5,65.7,117.3,67.8L128.5,272.6z"/>
	
		<linearGradient id="SVGID_19_" gradientUnits="userSpaceOnUse" x1="214.0995" y1="-1.215935e-05" x2="214.0995" y2="67.8" gradientTransform="matrix(1 0 0 -1 0 296.8)">
		<stop  offset="0" style="stop-color:#939598"/>
		<stop  offset="1" style="stop-color:#B3B3B3"/>
	</linearGradient>
	<path class="st27" d="M170.2,272.7c28.3-4.8,55.9-21.2,74.8-43.7h27.8c-24.6,36.3-67.6,65.7-117.4,67.8L170.2,272.7z"/>
	<polygon class="st28" points="103.3,207.1 105.2,208.2 193.2,208.2 195.1,207.1 	"/>
	<polygon class="st2" points="103.3,207.1 105.2,208.2 149.1,279.7 193.2,208.2 195.1,207.1 149.1,281.7 	"/>
</g>
</svg>
