<?xml version="1.0" encoding="utf-8"?>
<!-- Generator: Adobe Illustrator 21.0.0, SVG Export Plug-In . SVG Version: 6.00 Build 0)  -->
<!DOCTYPE svg PUBLIC "-//W3C//DTD SVG 1.1//EN" "http://www.w3.org/Graphics/SVG/1.1/DTD/svg11.dtd">
<svg version="1.1"
	 id="svg21997" xmlns:cc="http://creativecommons.org/ns#" xmlns:dc="http://purl.org/dc/elements/1.1/" xmlns:rdf="http://www.w3.org/1999/02/22-rdf-syntax-ns#" xmlns:svg="http://www.w3.org/2000/svg"
	 xmlns="http://www.w3.org/2000/svg" xmlns:xlink="http://www.w3.org/1999/xlink" x="0px" y="0px" viewBox="0 0 599.1 231.6"
	 enable-background="new 0 0 599.1 231.6" xml:space="preserve">
<linearGradient id="SVGID_1_" gradientUnits="userSpaceOnUse" x1="-149.3103" y1="115.952" x2="608.0675" y2="115.952">
	<stop  offset="0" style="stop-color:#FFFFFF"/>
	<stop  offset="1" style="stop-color:#FF523B"/>
</linearGradient>
<rect x="-149.3" y="-9.8" fill="url(#SVGID_1_)" width="757.4" height="251.6"/>
<rect x="332.3" y="71.8" fill="#FFFFFF" width="59.3" height="24.2"/>
<g id="layer1" transform="translate(328.80997,-4.1807668)">
	<g id="g21870" transform="matrix(2.2743528,0,0,2.2743528,-131.10668,-1768.8945)">
		<g id="path9728">
			<path fill="#FCB131" d="M77.4,913c0,0-2.7,21.2-13.4,37c0,0-0.6,0.8-1,1.6c0,0-1.5,1.8,0.2,4.3c0,0,6.2,9.3,21,14.9
				c0,0,3.7,1.8,9.3-0.1c0,0,5.3-1.8,7.6-2.2c0,0,1.2-0.2,3.7-0.4c0,0,3.1,0.3,4.5-0.7c0,0,1.3-0.5,2.6-3.1c0,0,0.7-2.1,3.3-3.2
				c0,0,5.3-2.3,4-4.6c0,0-0.2-2.2-8.7-2.2c0,0-10.2,0.2-13.6,0.1c0,0-12-0.6-18.2-4.9c0,0-2.9-1.9-2.8-7.1c0,0-0.1-2.2,0.6-5.3
				c0,0,3.6-14.1,4.2-20.6C80.6,916.4,83.4,908.7,77.4,913"/>
		</g>
		<g id="path9732">
			<path fill="#001522" d="M88.4,971.8c-2.7,0-4.3-0.7-4.4-0.8c-14.7-5.6-21-14.9-21.1-15c-1.8-2.7-0.2-4.6-0.2-4.6
				c0.4-0.7,1-1.6,1-1.6c10.5-15.6,13.3-36.7,13.4-36.9l0-0.1l0.1-0.1c1.8-1.3,3-1.6,3.7-1.1c1.2,1,0.1,4.3-0.1,4.8
				c-0.7,6.5-4.2,20.5-4.2,20.6c-0.6,3.1-0.6,5.2-0.6,5.3c-0.1,5,2.7,6.9,2.7,6.9c6.1,4.2,17.9,4.8,18,4.8
				c3.3,0.1,13.5-0.1,13.6-0.1c8,0,8.9,1.9,9,2.3c0.2,0.4,0.3,0.9,0.1,1.4c-0.6,1.9-4.2,3.5-4.3,3.5c-2.4,1-3.1,3-3.1,3
				c-1.3,2.5-2.5,3.2-2.7,3.3c-1.4,1-4.3,0.8-4.6,0.7c-2.5,0.2-3.6,0.4-3.7,0.4c-2.2,0.4-7.5,2.2-7.5,2.2
				C91.6,971.6,89.9,971.8,88.4,971.8z M77.7,913.1c-0.2,1.8-3.2,21.9-13.4,37c0,0-0.6,0.8-1,1.6c-0.1,0.1-1.4,1.7,0.2,4
				c0.1,0.1,6.3,9.3,20.9,14.8c0.1,0,3.7,1.7,9.1-0.1c0.2-0.1,5.4-1.8,7.6-2.3c0.1,0,1.2-0.2,3.7-0.4l0,0l0,0c0,0,3,0.3,4.3-0.7
				l0.1,0c0,0,1.2-0.5,2.4-3c0-0.1,0.8-2.2,3.4-3.3c0,0,3.5-1.5,4-3.2c0.1-0.4,0.1-0.7-0.1-1l0-0.1l0-0.1c0,0-0.4-1.9-8.4-1.9
				c-0.1,0-10.3,0.2-13.6,0.1c-0.5,0-12.1-0.6-18.3-4.9c-0.1-0.1-3-2-2.9-7.4c0-0.1-0.1-2.2,0.6-5.4c0-0.2,3.6-14.1,4.2-20.6l0-0.1
				c0.5-1.3,1-3.7,0.3-4.2C80.4,911.9,79.6,911.8,77.7,913.1z"/>
		</g>
		<g id="path9736">
			<path fill="#FCB131" d="M55.1,916.4c0,0-3.5,13.3-16,28.7c0,0-2,1.8-5.4,1.9c0,0-8.9,0.6-17.6,0c0,0-12.4-1-21.8-0.9
				c0,0-6.4-0.3-5.6,2.3c0,0,0.2,1.1,2.1,2.5c0,0,1.4,0.8,1.1,2.1c0,0-0.8,2.4,1,3.4c0,0,0.9,0.8,3.5,1.1c0,0,4.6,0.5,7.7,4.2
				c0,0,4.9,6.8,15.1,4.1c0,0,14.4-3.9,25.1-10.6c0,0,3-1.2,3.7-7.2c0,0,0.4-2.5,1.4-5.7c0,0,3.7-13.6,11.1-22.1
				c0,0,1.7-5.1-1.8-5.1C58.8,915.1,55.6,915.9,55.1,916.4"/>
		</g>
		<g id="path9740">
			<path fill="#001522" d="M14.5,966.7c-3,0-5.3-0.8-6.9-1.7c-2.5-1.4-3.8-3.1-3.8-3.2c-2.9-3.6-7.4-4.1-7.5-4.1
				c-2.4-0.3-3.4-1-3.6-1.2c-1.6-0.8-1.5-2.8-1.1-3.7c0.2-1-1-1.7-1-1.7c-2-1.5-2.2-2.7-2.2-2.7c-0.1-0.5-0.1-1,0.2-1.3
				c1.2-1.5,5.5-1.3,5.7-1.3c9.3-0.1,21.7,0.9,21.8,0.9c8.6,0.6,17.4,0,17.5,0c3.3-0.1,5.2-1.8,5.3-1.8
				c12.3-15.1,15.9-28.4,15.9-28.5l0-0.1l0,0c0.5-0.6,3.3-1.3,3.8-1.4l0.1,0c0.9,0,1.5,0.3,1.9,0.9c1.1,1.5,0.1,4.4,0.1,4.5
				l-0.1,0.1c-7.3,8.4-11.1,21.9-11.1,22c-0.9,3.2-1.4,5.7-1.4,5.7c-0.7,5.9-3.6,7.3-3.9,7.4c-10.6,6.6-25,10.6-25.2,10.6
				C17.5,966.5,15.9,966.7,14.5,966.7z M-6.2,946.3c-1.4,0-3.9,0.2-4.7,1.1c-0.2,0.2-0.2,0.5-0.1,0.9c0,0,0.2,1.1,2,2.4
				c0,0,1.5,0.9,1.2,2.3c0,0.1-0.7,2.2,0.9,3.1l0.1,0c0,0,0.9,0.8,3.3,1.1c0.2,0,4.8,0.6,7.9,4.3c0.1,0.1,4.9,6.7,14.8,4
				c0.1,0,14.5-4,25-10.6l0,0c0,0,2.9-1.3,3.6-7c0,0,0.5-2.5,1.4-5.8c0-0.1,3.8-13.7,11.2-22.2c0.1-0.4,0.8-2.8,0-4
				c-0.3-0.4-0.8-0.6-1.5-0.6c-1.2,0.3-3.1,0.8-3.4,1.2c-0.3,1.1-4.1,14-16.1,28.7c-0.1,0.1-2.1,1.9-5.6,2c-0.1,0-9,0.6-17.6,0
				c-0.1,0-12.5-1-21.8-0.9C-5.8,946.3-6,946.3-6.2,946.3z"/>
		</g>
		<g id="path9744">
			<path fill="#001522" d="M84.2,910.6c0,0,1.3-0.3,2-0.2c0,0-0.4-0.8-2.7-1.4c0,0,1-1.2,1.1-6.3c0,0,6.9-5.3,1.2-18.5
				c0,0-0.3,3-0.8,4.8c0,0,0.8-5.9-4.2-8.5c0,0-3.1-4.6-6.7-6.4c0,0,1.8,3.9,1.5,10.3c0,0-1.3-0.6-3-0.8c0,0-3.2-3-5.2-5.1
				c0,0-0.5-3.3,2.7-12.9c0,0,5.1-12.8,3.6-18.2c0,0,2.1,0.9,2.9,2.9c0,0,0.7-6.6-7-6.7c0,0,1.5-1.4,3.3-1.6c0,0-2.2-0.9-7.5,1.5
				c0,0,0.7-4.7,11.8-11.7c0,0-3.4-4.7-7.6-3.9c0,0-7,5.9-8,7.4c0,0-2.8,3.5-4.4,8.1c0,0-1.5-0.1-2.2,0c0,0,0.3-4.2-4.7-5.3
				c0,0,1.6,1.2,1.9,2c0,0-4.2-1.7-9.6,2c0,0,2.6-0.3,3.5-0.1c0,0-3.6,1.4-9.4,6.9c0,0-4.9,3.9-10.8,6.6c0,0-10.8,4.5-12.6,10
				c0,0,2.7-2.7,3.8-3.1c0,0-3.6,4.6-0.9,13.3c0,0,0.9-0.9,0.8-2.6c0,0,4.5,5.5,11.9,1c0,0-3.3-0.1-4.4-0.3c0,0,4.9-2,9.4-6.6
				c0,0,0.1,5.2,7.1,14.7c0,0,3.7,4.1,5.6,9.3c0,0,6,18.1,10.3,21.4c0,0-1.4,1.9-6,2.2c0,0,2.6,0.8,4.1,0.8c0,0-0.4,0.7-2.5,2
				c0,0-1.1,0.6,0.2,0.8c0,0,1.9,0.2,4.8-1.6c0,0-2.5,3.5-1.5,3.7c0,0,1.2,0.9,3.6-2.7c0,0-0.4,1.3,0.6,3.2c0,0,0.9,1.3,1.1-0.2
				c0,0,0.1-1,0.5-2.4c0,0,0.6,1,2.5,2c0,0-0.9-1.5-1-4c0,0,3.6-3.9,12.4-5.2c0,0-0.2,2-1.7,4.7c0,0,1.7-0.2,3.1-2.5
				c0,0,0.1,1.2-0.8,3c0,0-0.7,0.9-0.1,1c0,0,2.1,0.4,3.6-3.5c0,0,0.1,1,0,2.5c0,0-0.1,1.5,1.3,0.5c0,0,1.4-0.8,1.7-4.3
				c0,0,0,0.6,1.4,1.5c0,0,1.7,1,1.3-0.7C85.3,913.5,85.1,912.4,84.2,910.6"/>
		</g>
		<g id="path9748">
			<path fill="#001522" d="M60.8,921.8c-0.4,0-0.8-0.5-0.9-0.6l0,0c-0.5-1-0.6-1.8-0.7-2.4c-1,1.3-1.8,2-2.6,2.1
				c-0.4,0.1-0.6,0-0.7-0.1c-0.2-0.1-0.3-0.2-0.3-0.3c-0.2-0.6,0.5-1.9,1.1-2.8c-2.4,1.2-3.9,1.1-4,1.1c-0.3,0-0.8-0.1-0.9-0.5
				c-0.1-0.4,0.4-0.7,0.5-0.8c1-0.7,1.6-1.2,2-1.5c-1.5-0.1-3.4-0.7-3.5-0.8l0.1-0.5c3.5-0.3,5.1-1.5,5.6-1.9
				c-4.3-3.7-9.9-20.6-10.2-21.3c-1.9-5-5.5-9.1-5.6-9.2c-5.7-7.8-6.9-12.7-7.1-14.3c-3.2,3.2-6.6,5-8.1,5.8
				c1.4,0.1,3.4,0.2,3.4,0.2l0.9,0l-0.8,0.5c-3.9,2.4-7,2-9,1.2c-1.3-0.5-2.2-1.3-2.8-1.8c-0.1,1.3-0.8,2.1-0.8,2.1l-0.3,0.3
				l-0.1-0.4c-1.4-4.6-1-8-0.5-10.1c0.3-1.1,0.6-2,0.9-2.6c-1,0.7-2.3,2-2.9,2.5l-0.5-0.3c1.9-5.6,12.4-10,12.8-10.2
				c5.8-2.6,10.7-6.5,10.7-6.5c4.1-3.9,7-5.7,8.5-6.5c-0.8,0-1.9,0.1-2.4,0.2l-0.2-0.5c4.1-2.8,7.6-2.5,9.1-2.2
				c-0.4-0.5-1.1-1-1.4-1.3l0.2-0.5c4.4,0.9,4.9,4.2,4.9,5.3c0.6,0,1.4,0,1.7,0.1c1.6-4.5,4.3-7.9,4.4-7.9c0.9-1.5,7.7-7.2,8-7.4
				l0.1,0l0.1,0c4.3-0.8,7.7,3.8,7.9,4l0.2,0.2l-0.2,0.2c-8.7,5.5-11,9.6-11.5,11c4.9-2.1,7.1-1.3,7.2-1.3l-0.1,0.5
				c-1,0.1-2,0.7-2.6,1.1c2.2,0.2,3.9,0.9,5.1,2.2c1.8,2,1.5,4.7,1.5,4.8l-0.1,1l-0.4-1c-0.5-1.3-1.6-2.1-2.2-2.5
				c1,5.6-3.5,17.2-3.7,17.7c-2.8,8.6-2.7,12.2-2.7,12.7c1.7,1.9,4.5,4.5,5,4.9c1.1,0.1,2.1,0.4,2.6,0.6c0.2-6-1.5-9.7-1.5-9.8
				l-0.3-0.7l0.7,0.4c3.4,1.8,6.4,5.9,6.8,6.5c3,1.6,3.9,4.4,4.2,6.4c0.2-1.3,0.3-2.5,0.3-2.6l0.5-0.1c5.3,12.3-0.3,18-1.2,18.7
				c-0.1,3.7-0.7,5.3-1,6c2.1,0.6,2.5,1.3,2.5,1.4l0.2,0.5l-0.5-0.1c-0.4-0.1-1.1,0-1.5,0.1c0.8,1.7,1,2.7,1,2.7
				c0.1,0.5,0.1,0.9-0.2,1.1c-0.5,0.4-1.3-0.1-1.5-0.2c-0.5-0.4-0.9-0.7-1.1-0.9c-0.5,2.9-1.7,3.7-1.8,3.7c-0.5,0.4-0.9,0.5-1.2,0.3
				c-0.5-0.3-0.4-1-0.4-1.1c0-0.5,0-0.9,0-1.2c-1.5,2.8-3.3,2.6-3.4,2.5c-0.2-0.1-0.4-0.2-0.4-0.3c-0.1-0.4,0.2-0.9,0.3-1.1
				c0.4-0.8,0.6-1.4,0.7-1.9c-1.3,1.5-2.6,1.7-2.7,1.8l-0.5,0.1l0.3-0.5c1.1-2,1.5-3.6,1.6-4.3c-7.7,1.2-11.2,4.5-11.8,5
				c0.1,2.3,1,3.7,1,3.7l0.5,0.8l-0.9-0.5c-1.2-0.6-1.9-1.3-2.3-1.7c-0.3,1.1-0.4,1.8-0.4,1.8c0,0.2-0.1,0.8-0.6,1
				C60.9,921.8,60.9,921.8,60.8,921.8z M60.4,920.8c0.2,0.2,0.4,0.4,0.5,0.4c0,0,0.1-0.1,0.1-0.5c0,0,0.1-1,0.5-2.4l0.2-0.6l0.3,0.6
				c0,0,0.4,0.7,1.7,1.5c-0.3-0.7-0.6-1.8-0.7-3.3l0-0.1l0.1-0.1c0.1-0.2,3.7-4,12.5-5.3l0.3-0.1l0,0.3c0,0.1-0.2,1.8-1.4,4.2
				c0.6-0.3,1.5-0.9,2.3-2.2l0.4-0.7l0.1,0.8c0,0.1,0.1,1.3-0.9,3.2l0,0c-0.2,0.2-0.3,0.5-0.3,0.6c0.1,0,1.9,0.2,3.3-3.3l0.5,0.1
				c0,0,0.1,1,0,2.5c0,0.2,0,0.5,0.2,0.6c0,0,0.2,0.1,0.7-0.3c0,0,1.3-0.9,1.6-4.1l0.5,0v0c0,0,0.1,0.5,1.3,1.3
				c0.3,0.2,0.7,0.3,0.9,0.2c0,0,0.1-0.2,0-0.6c0,0-0.2-1.1-1.1-2.9l-0.2-0.3l0.4-0.1c0,0,0.7-0.1,1.3-0.2c-0.4-0.2-1-0.6-2.1-0.8
				l-0.4-0.1l0.3-0.3c0,0,1-1.3,1.1-6.1l0-0.1l0.1-0.1c0.1-0.1,6.4-5.1,1.5-17.2c-0.1,1-0.4,2.6-0.7,3.8l-0.5-0.1
				c0-0.1,0.7-5.8-4-8.2l-0.1,0l0-0.1c0,0-2.7-4-5.9-6c0.5,1.4,1.5,4.8,1.3,9.7l0,0.4l-0.4-0.2c0,0-1.3-0.6-2.9-0.7l-0.1,0l-0.1-0.1
				c0,0-3.3-3-5.2-5.1l-0.1-0.1l0-0.1c0-0.1-0.4-3.5,2.7-13.1c0.1-0.1,5-12.8,3.6-18l-0.2-0.6l0.5,0.2c0.1,0,1.5,0.7,2.5,2.1
				c-0.1-0.9-0.4-2.2-1.3-3.3c-1.2-1.3-3-2-5.4-2.1l-0.7,0l0.5-0.5c0,0,0.9-0.8,2-1.3c-1.2,0-3.1,0.3-5.9,1.6l-0.5,0.2l0.1-0.5
				c0-0.2,0.8-4.8,11.7-11.7c-0.7-0.9-3.6-4.2-7.1-3.6c-0.7,0.6-7,5.9-7.8,7.3c0,0.1-2.8,3.5-4.4,8l-0.1,0.2l-0.2,0
				c0,0-1.5-0.1-2.1,0l-0.3,0l0-0.3c0-0.1,0.2-3.3-3.3-4.6c0.4,0.4,0.8,0.9,1,1.2l0.2,0.6l-0.6-0.2c0,0-3.7-1.4-8.4,1.3
				c0.8-0.1,1.9-0.1,2.4,0l0.9,0.2l-0.8,0.3c0,0-3.6,1.5-9.3,6.9c-0.1,0.1-5,4-10.9,6.6c-0.1,0-9,3.8-11.9,8.6
				c0.9-0.8,2.2-1.9,2.9-2.1l0.9-0.3l-0.5,0.7c0,0-0.9,1.2-1.4,3.3c-0.5,1.9-0.8,5,0.4,9.2c0.2-0.4,0.5-1.1,0.4-2l-0.1-0.9l0.6,0.7
				c0.2,0.2,4.1,4.9,10.7,1.4c-1.1,0-2.7-0.1-3.5-0.3l-1-0.2l0.9-0.4c0,0,4.9-2,9.3-6.5l0.5-0.5l0,0.7c0,0.1,0.2,5.2,7.1,14.6
				c0,0,3.7,4.2,5.7,9.3c0.1,0.2,6,18,10.2,21.2l0.2,0.2l-0.2,0.2c-0.1,0.1-1.2,1.6-4.8,2.2c0.8,0.2,1.9,0.4,2.7,0.4l0.5,0l-0.3,0.5
				c0,0.1-0.5,0.7-2.6,2.1c-0.1,0.1-0.2,0.1-0.2,0.2c0.1,0,0.2,0,0.4,0.1c0,0,1.9,0.2,4.6-1.6l0.4,0.4c-1.1,1.5-1.9,3-1.7,3.3l0.1,0
				l0,0c0,0,0.1,0.1,0.4,0c0.4-0.1,1.4-0.5,2.7-2.7l0.5,0.2C59.8,917.8,59.5,919,60.4,920.8z"/>
		</g>
		<g id="path9752">
			<path fill="#001522" d="M91.4,822.4c0,0-0.9-5.4,2.1-14.9c0,0,3.2-7.7,2.3-11c0,0,2-4.3,0.8-8.7c0,0-0.5,3.8-1.7,5.4
				c0,0-0.6-6-5.7-8.7c0,0,3.5,3.7,3.7,8.6c0,0-2.3-4-5.8-5.2c0,0,3.8,3.1,4.8,6.3c0,0-6.6-1.4-11.3-0.4c0,0-3.2-0.9-7.3,3.1
				c0,0-1.3,1.5-2.2,2.7c0,0-1.8,2.3-2.8,3.3c0,0-1.8,1.9-2.3,3c0,0-2.9,1.8-6,2.8c0,0,3.7,2.4,5.4,5c0,0,0.6,0.1,0.9-0.1
				c0,0,0,0.4,0.5,0.7c0,0,0.4,0.5,1.2,0.3c0,0,1.2,1.3,6,1.3h2.7c0,0,3.8-0.2,5.5,0.1c0,0-0.5,1.4-1.3,2.1c0,0-0.3,2.7,4.5,3.5
				C85.5,821.7,89.8,824,91.4,822.4"/>
		</g>
		<g id="path9756">
			<path fill="#001522" d="M89.7,823.2c-1.8,0-4-1.1-4.3-1.2c-5-0.9-4.7-3.7-4.7-3.8l0-0.1l0.1-0.1c0.5-0.4,0.9-1.2,1.1-1.6
				c-1.8-0.3-5.1-0.1-5.1-0.1l-2.7,0c-4.2,0-5.7-0.9-6.1-1.3c-0.8,0.1-1.2-0.3-1.3-0.4c-0.3-0.2-0.4-0.4-0.5-0.5
				c-0.4,0.1-0.8,0-0.8,0l-0.1,0L65,814c-1.7-2.5-5.3-4.9-5.4-4.9l-0.5-0.3l0.5-0.2c2.8-0.9,5.5-2.5,5.9-2.7c0.6-1.2,2.2-3,2.3-3
				c0.9-1,2.7-3.3,2.7-3.3c0.9-1.2,2.2-2.7,2.2-2.7c3.9-3.9,7-3.4,7.5-3.2c4.1-0.9,9.3,0,10.9,0.3c-1.1-2.9-4.5-5.7-4.5-5.7l0.3-0.5
				c2.5,0.8,4.4,3.1,5.4,4.4c-0.6-4.3-3.5-7.3-3.5-7.4l0.3-0.4c4.1,2.2,5.4,6.5,5.7,8.2c0.9-1.7,1.3-4.7,1.3-4.7l0.5,0
				c1.1,4.2-0.4,8.2-0.7,8.8c0.8,3.4-2.2,10.7-2.4,11c-2.9,9.3-2.1,14.7-2,14.7l0,0.1l-0.1,0.1C91.1,823,90.4,823.2,89.7,823.2z
				 M81.2,818.3c0,0.5,0.2,2.4,4.3,3.1l0.1,0c1.1,0.6,4.2,1.8,5.5,0.8c-0.1-1-0.7-6.2,2.1-14.9c0-0.1,3.1-7.7,2.3-10.8l0-0.1l0-0.1
				c0,0,1.5-3.4,1-7.1c-0.3,1.3-0.7,3.1-1.5,4.1l-0.4,0.6l-0.1-0.7c0-0.1-0.5-4.8-4.2-7.6c1.1,1.5,2.6,4.2,2.7,7.5l-0.5,0.1
				c0,0-1.6-2.7-4-4.2c1.2,1.2,2.9,3.1,3.5,5.1l0.1,0.4l-0.5-0.1c-0.1,0-6.6-1.4-11.2-0.4l-0.1,0l-0.1,0c0,0-3.1-0.8-7,3.1
				c0,0-1.3,1.4-2.2,2.6c-0.1,0.1-1.9,2.4-2.8,3.4c0,0-1.8,1.9-2.2,3l0,0.1l-0.1,0c0,0-2.7,1.6-5.6,2.7c1,0.7,3.5,2.6,5,4.6
				c0.2,0,0.4,0,0.6-0.1l0.4-0.3v0.6c0,0,0,0.3,0.4,0.5l0.1,0.1c0,0,0.3,0.3,1,0.2l0.1,0l0.1,0.1c0,0,1.2,1.2,5.8,1.2h2.7
				c0.1,0,3.9-0.2,5.6,0.1l0.3,0.1l-0.1,0.3C82.4,816.3,81.9,817.6,81.2,818.3z"/>
		</g>
		<g id="path9760">
			<path fill="#FFFFFF" d="M74.6,795.4c0,0,0,4-4.2,10.4c0,0-2.2,3.4-2.5,4.9c0,0,0.6-0.4,0.8-0.5c0,0,0.8-2.1,2.6-4.9
				c0,0,3.8-6,3.8-10.2C75,795.2,74.7,795.1,74.6,795.4"/>
		</g>
		<g id="path9764">
			<path fill="#FFFFFF" d="M65.7,805.9c0,0,1.2-0.5,1.8-1.1c0,0-0.8,0.1-1.5,0.3C66,805.2,65.7,805.7,65.7,805.9"/>
		</g>
		<g id="path9768">
			<path fill="#FFFFFF" d="M80.5,793.7c0,0,1.4,1-2,4.9c0,0,3.4-2.4,2.7-5.1C81.2,793.4,80.6,793.5,80.5,793.7"/>
		</g>
		<g id="path9772">
			<path fill="#FCB131" d="M26.7,811c0,0,4.6,8.2,12.2,11c0,0,1,1.4,2.2,3.3c0,0,2.3,4.5,8.1,7.5c0,0,7.1,4.2,13.6,3.6
				c0,0,3.1,0,5.3-2c0,0,0.8-0.7,2.2-2c0,0,5-0.4,12.4,1c0,0,4.5,1.1,6.9,1.2c0,0,4.2,0.8,4.9-2.3c0,0,1.5-4.8-2.6-11
				c0,0-2.8-5.7-9.8-3.9c0,0-1.6,0.2-4.1,0.9c0,0-4.3,1.4-7.2,0c0,0-1-0.3-2.2-2c0,0-0.9-1.5-1.7-1.8c0,0-0.8-0.8-3.2-0.5
				c0,0-1.8,0.2-2.7-1.1c0,0-0.7-0.9-0.2-3.1c0,0-0.6-0.7-1.1-0.8c0,0-4.2-0.3-7.1,0.5c0,0-2.2,0.5-3.5,3c0,0-6.4-0.3-12.1-3.3
				c0,0-2.6-4.7-4.8-7c0,0-4.5-6.5-7.3-3.9c0,0-2.1,2.7-0.3,8.2C24.8,806.5,25.8,809.4,26.7,811"/>
		</g>
		<g id="path9776">
			<path fill="#001522" d="M61.3,836.7c-6.1,0-12-3.5-12.3-3.7c-5.8-3-8.1-7.4-8.2-7.6c-1-1.6-1.9-2.9-2.1-3.2
				c-7.5-2.8-12.1-10.9-12.2-11.1c-0.9-1.6-1.9-4.4-2-4.5c-1.8-5.6,0.2-8.4,0.3-8.5c0.6-0.6,1.2-0.8,2-0.7c2.6,0.3,5.5,4.2,5.7,4.6
				c2.1,2.2,4.5,6.3,4.8,7c5,2.7,10.7,3.2,11.7,3.2c1.4-2.4,3.5-2.9,3.6-2.9c2.9-0.8,7-0.5,7.2-0.5l0.1,0c0.6,0.2,1.2,0.8,1.3,0.9
				l0.1,0.1l0,0.1c-0.5,2.1,0.1,2.9,0.1,2.9c0.8,1.1,2.4,1,2.4,1c2.3-0.2,3.2,0.4,3.4,0.6c0.8,0.4,1.7,1.7,1.8,1.9
				c1,1.5,2,1.9,2,1.9c2.8,1.4,7,0,7,0c2.5-0.7,4.2-0.9,4.2-0.9c7.1-1.8,10,4,10.1,4.1c4.1,6.2,2.7,11,2.6,11.2
				c-0.7,3.4-5.1,2.5-5.2,2.5c-2.4-0.1-6.8-1.2-6.9-1.2c-6.7-1.3-11.5-1.1-12.2-1c-1.4,1.2-2.1,1.9-2.1,1.9c-2.3,2-5.3,2-5.5,2
				C62.3,836.6,61.8,836.7,61.3,836.7z M25.2,798.5c0,0-1.9,2.7-0.2,8c0,0,1,2.9,1.9,4.4l0,0c0,0.1,4.6,8.1,12,10.8l0.1,0l0,0.1
				c0,0,1.1,1.4,2.2,3.3c0,0.1,2.4,4.5,8,7.4c0.1,0,7.1,4.2,13.5,3.5c0.1,0,3,0,5.1-1.9c0,0,0.8-0.7,2.2-2l0.1-0.1l0.1,0
				c0,0,5.1-0.4,12.4,1c0.1,0,4.5,1.1,6.9,1.2c0.2,0,4,0.8,4.6-2.1c0-0.1,1.4-4.8-2.5-10.8c-0.1-0.3-2.8-5.5-9.5-3.8
				c0,0-1.6,0.2-4.1,0.9c-0.2,0.1-4.4,1.4-7.4,0c0,0-1.1-0.4-2.3-2.1c-0.3-0.4-1-1.4-1.6-1.7l-0.1-0.1c0,0-0.7-0.7-3-0.4
				c-0.1,0-2,0.2-2.9-1.2c0,0-0.7-1-0.3-3.2c-0.2-0.2-0.6-0.5-0.9-0.6c-0.4,0-4.3-0.2-7,0.5c0,0-2.1,0.5-3.3,2.8l-0.1,0.1l-0.2,0
				c-0.1,0-6.5-0.3-12.2-3.4l-0.1,0l0-0.1c0,0-2.6-4.7-4.8-6.9l0,0c0,0-2.9-4.1-5.3-4.4C26.2,797.9,25.7,798.1,25.2,798.5
				L25.2,798.5z"/>
		</g>
		<g id="path9780">
			<path fill="#FFFFFF" d="M67.3,815.3c0,0-1.2,0.4-1.6-0.1c0,0-0.6-0.3-0.3-1.3h0.7c0,0-0.1,0.7,0.2,0.8c0,0,0.7,0.1,1.3-0.1
				C67.7,814.6,67.6,815.2,67.3,815.3"/>
		</g>
		<g id="path9784">
			<path fill="#FFFFFF" d="M66.2,814.7c0,0-1.1-3.1,5.2-5.8c0,0-5.9,1.1-6,5.7C65.3,814.6,65.9,814.6,66.2,814.7"/>
		</g>
		<g id="path9788">
			<path fill="#001522" d="M69.2,813.9c0,0-2.3,1.3-2.9,0.8c0,0-0.8-0.1,0.3-2.3C66.7,812.4,69.2,813.4,69.2,813.9"/>
		</g>
		<g id="path9792">
			<path fill="#001522" d="M66.7,815.1c-0.2,0-0.3,0-0.5-0.1c-0.1,0-0.2-0.1-0.3-0.3c-0.2-0.5-0.1-1.2,0.5-2.4l0.1-0.2l0.2,0.1
				c1.8,0.7,2.7,1.3,2.7,1.7v0.2l-0.1,0.1C68.9,814.4,67.5,815.1,66.7,815.1z M66.8,812.8c-0.6,1.2-0.5,1.6-0.4,1.7l0.1,0l0,0
				c0.2,0.2,1.2-0.2,2.3-0.7C68.5,813.5,67.6,813.1,66.8,812.8z"/>
		</g>
		<g id="path9796">
			<path fill="#FFFFFF" d="M81.8,816.2c0,0,0.8,0,1.8,0.4c0,0-1.6,0.1-2.2,0.2C81.4,816.8,81.5,816.1,81.8,816.2"/>
		</g>
		<g id="path9800">
			<path fill="#FFFFFF" d="M66.4,814.7c0,0,1.3,0.7,7-3c0,0,6.5-4.2,10-3.9c0,0,0.5,4.3-0.5,8.8c0,0-0.4,0-0.6,0c0,0,1-3.8,0.6-8.4
				c0,0-3.5,0.3-9.2,3.9c0,0-4.8,3.3-6.9,3.2C66.8,815.3,66.6,815,66.4,814.7"/>
		</g>
		<g id="path9804">
			<path fill="#FFFFFF" d="M81,808.1c0,0,5.4-1.3,8.6-0.6c0,0-4,0.1-7.6,0.8C81.9,808.4,80.8,808.3,81,808.1"/>
		</g>
		<g id="path9808">
			<path fill="#FFFFFF" d="M91.7,805.4c0,0-0.5-2.7-4.2-2.5c0,0-5,0.1-9.7,4c0,0,3.6-4.2,9.6-4.6C87.5,802.3,91.8,802,91.7,805.4"/>
		</g>
		<g id="path9812">
			<path fill="#FFFFFF" d="M90.3,801.1c0,0-2.2-0.7-5,0.5C85.3,801.6,87.8,799.4,90.3,801.1"/>
		</g>
		<g id="path9816">
			<path fill="#001522" d="M63.3,811.7c0,0-1,1.1-2.3,0c0,0,0-1.1,0.2-1.5C61.2,810.2,62.2,810.4,63.3,811.7"/>
		</g>
		<g id="path9820">
			<path fill="#001522" d="M62.1,812.5c-0.4,0-0.9-0.1-1.3-0.5l-0.1-0.1l0-0.1c0-0.1,0-1.2,0.3-1.7l0.1-0.2l0.2,0c0,0,1,0.3,2.2,1.6
				l0.2,0.2l-0.2,0.2C63.2,812.2,62.7,812.5,62.1,812.5z M61.3,811.6c0.7,0.6,1.3,0.3,1.6,0.1c-0.7-0.7-1.2-1-1.5-1.2
				C61.3,810.8,61.2,811.3,61.3,811.6z"/>
		</g>
		<g id="path9824">
			<path fill="#001522" d="M72.5,816.1c0,0-0.5,2.4-2.7,1.5c0,0-1-1.1-1.5-1.9c0,0-0.5-0.5,0.2-0.5
				C68.4,815.2,69.6,815.8,72.5,816.1"/>
		</g>
		<g id="path9828">
			<path fill="#001522" d="M70.7,818c-0.3,0-0.7-0.1-1.1-0.2l-0.1,0l0,0c0,0-1-1.1-1.6-1.9c-0.1-0.1-0.3-0.4-0.2-0.7
				c0.1-0.2,0.3-0.3,0.6-0.3l0.1,0l0.1,0c0,0,1.2,0.6,3.9,0.9l0.3,0l-0.1,0.3c0,0-0.3,1.2-1.2,1.7C71.3,818,71,818,70.7,818z
				 M69.9,817.3c0.5,0.2,1,0.2,1.4,0c0.5-0.2,0.7-0.7,0.8-1c-2.2-0.3-3.4-0.7-3.7-0.9l0,0C68.9,816.2,69.7,817.1,69.9,817.3z"/>
		</g>
		<g id="path9832">
			<path fill="#001522" d="M49.4,812.9c0,0,3.8,0.6,7-0.6c0,0-2.4,0.2-6.7-0.1C49.7,812.1,49.1,812.6,49.4,812.9"/>
		</g>
		<g id="path9836">
			<path fill="#001522" d="M36.7,809.1c0,0,2.5,4.1,4.1,7.6c0,0-0.2-2.6-2.9-7.1C37.8,809.6,36.8,808.8,36.7,809.1"/>
		</g>
		<g id="path9840">
			<path fill="#001522" d="M39.7,822.5c0,0-8.9-15.8-14.1-19.2c0,0,5.7,5.8,12.8,18.4C38.4,821.7,39.5,822.9,39.7,822.5"/>
		</g>
		<g id="path9844">
			<path fill="#001522" d="M70.4,832.7l-0.4-0.4c0,0,3.2-3.3,4.9-5.1c0.2-0.2,4.6-5,8-5.8l0.1,0.5c-3.3,0.8-7.7,5.6-7.8,5.7
				C73.5,829.4,70.4,832.6,70.4,832.7z"/>
		</g>
		<g id="path9848">
			<path fill="#A44138" d="M79.5,823.5c0,0,2.5-2.3,4.8-1.9c0,0,2.3,0.1,3.1,1.9C87.4,823.5,83.5,822.6,79.5,823.5"/>
		</g>
		<g id="path9852">
			<path fill="#001522" d="M78.6,824l0.7-0.7c0.1-0.1,2.6-2.4,5-1.9c0.1,0,2.4,0.2,3.3,2l0.2,0.5l-0.6-0.1c0,0-3.9-0.8-7.8,0
				L78.6,824z M83.4,822.8c1.5,0,2.8,0.2,3.5,0.3c-0.9-1.1-2.6-1.2-2.6-1.2c-1.4-0.2-2.8,0.5-3.7,1.1
				C81.5,822.9,82.5,822.8,83.4,822.8z"/>
		</g>
		<g id="path9856">
			<path fill="#001522" d="M87.5,822.8c0,0,0.8,0.9,1.2,2.2c0,0-1.1-0.9-1.9-1.4C86.8,823.6,87.3,822.6,87.5,822.8"/>
		</g>
		<g id="path9860">
			<path fill="#001522" d="M81.3,820.4c0,0-2.9,0.1-5.5,3.3C75.8,823.7,77.5,819.3,81.3,820.4"/>
		</g>
		<g id="path9864">
			<path fill="#001522" d="M76,823.9l-0.5-0.3c0,0,1.8-4.6,5.8-3.5l-0.1,0.5C81.2,820.6,78.5,820.8,76,823.9z M79.6,820.5
				c-1,0.2-1.8,0.7-2.3,1.3C78.1,821.2,78.9,820.8,79.6,820.5z"/>
		</g>
		<g id="path9868">
			<path fill="#001522" d="M64.8,820.7c-0.3,0-0.5-0.1-0.7-0.3c-0.5-0.4-0.5-1.1-0.5-1.1c-0.2-0.8-0.1-1.8-0.1-1.9l0.1-0.6l0.4,0.4
				c0.7,0.8,1.3,1.4,1.3,1.4c0.4,0.5,0.6,0.9,0.4,1.3c-0.1,0.5-0.7,0.6-0.7,0.7l-0.1,0C64.8,820.7,64.8,820.7,64.8,820.7z
				 M63.9,818.2c0,0.3,0,0.7,0.1,1.1c0,0.2,0.1,0.6,0.3,0.7c0.1,0.1,0.3,0.1,0.4,0.1c0.1,0,0.3-0.1,0.3-0.3c0.1-0.2-0.1-0.5-0.3-0.8
				l0,0C64.8,819.1,64.4,818.7,63.9,818.2z"/>
		</g>
		<g id="path9872">
			<path fill="#001522" d="M59.1,815.4c-0.1,0-0.2,0-0.3,0c-0.1,0-0.9-0.1-1.2-0.4c-0.1-0.1-0.2-0.3-0.1-0.4c0-0.1,0-0.2,0.1-0.3
				c0.2-0.2,0.6-0.2,1.3,0c0,0,0.8,0.3,1.4,0.3l0.8,0.1l-0.7,0.4C60.4,815,59.8,815.4,59.1,815.4z M58,814.6
				C58,814.6,58,814.6,58,814.6c0.1,0.1,0.6,0.2,0.9,0.2c0.1,0,0.2,0,0.3,0c-0.3-0.1-0.4-0.1-0.5-0.1
				C58.3,814.6,58.1,814.6,58,814.6z"/>
		</g>
		<g id="path9876">
			<path fill="#FFFFFF" d="M33.3,868.2c0,0,2.1-1.7,3.1-2.6c0,0,5-4,8-5.3c0,0,4.9-2.6,8.6-0.2c0,0-4.1-1.7-8.3,0.7
				c0,0-3.2,1.2-7.7,5.2c0,0-1.8,1.6-3.4,3C33.6,869,33.2,868.6,33.3,868.2"/>
		</g>
		<g id="path9880">
			<path fill="#FFFFFF" d="M67.8,878.2c0,0-0.2,3.3-0.2,4.9c0,0-0.2,7.5-4.8,10.1c0,0,1.5-3.1,1.2-5.2c0,0-3.8,5.6-11.2,0.9
				c0,0,2.8,0.1,3.8-1c0,0-5.1-0.8-6.8-5.9c0,0,1.7,0.7,2.9,0.6c0,0-3.7-11.7-11-20.4l-0.5,0.2c0,0,6.7,7.3,10.7,19.7
				c0,0-0.6,0-2.6-0.6c0,0,0.2,4.4,6.4,6.6c0,0-2.6,0.6-4.2,0.2c0,0,6.2,5.7,12.1,0.9c0,0-0.8,3.1-1.7,4.6c0,0,5.2-0.7,6.2-10.4
				c0,0,0.1-3.5,0.2-4.8C68.3,878.7,68.1,878.2,67.8,878.2"/>
		</g>
		<g id="path9884">
			<path fill="#FFFFFF" d="M63.6,888.6c0,0,0.9-1,1.2-1.7c0,0,0.1,1.3-1.2,2.4V888.6z"/>
		</g>
		<g id="path9888">
			<path fill="#FFFFFF" d="M56,887.8c0,0,0.9,0.2,1.6,0.4c0,0-0.3,0.5-1.9,0C55.7,888.2,55.7,887.8,56,887.8"/>
		</g>
		<g id="path9892">
			<path fill="#FFFFFF" d="M49.4,859.5c0,0,1.7,3.8,11.9,14c0,0,0.3-11.6-3.3-16.6c0,0-1.6-3-6.8-2.7c0,0-3.4-0.1-6.9,0.4
				c-4,0.5-8.6,0.7-19.6,4.2c0,0,5.6-3.4,20.3-4.8c0,0,8.4-1,11.1,0.4c0,0,6.1,1.7,5.6,20c0,0-8.7-7.9-13-15
				C48.8,859.4,49,859.2,49.4,859.5"/>
		</g>
		<g id="path9896">
			<path fill="#FFFFFF" d="M45.5,854.2c0,0-1.7-3.8-4.3-4.5c0,0-1.7-0.7-4.9,1.8c-2.7,2.1-5.2,4.4-5.7,5.4c0,0-0.6,0-0.8,0.1
				c0,0,2.6-3.2,6.1-5.9c0,0,3.2-2.8,5.6-1.9c0,0,2.2,0.2,4.6,4.9C46.1,854.2,45.7,854.3,45.5,854.2"/>
		</g>
		<g id="path9900">
			<path fill="#FFFFFF" d="M40.9,849.3c0,0,5.6-3.7,13.1-4.9c0,0-5.6-0.4-13.9,4.9C40.2,849.4,40.6,849.3,40.9,849.3"/>
		</g>
		<g id="path9904">
			<path fill="#FFFFFF" d="M57.1,842.9c0,0-0.8,1.9-1,3.7c0,0-0.3-1.4,0.6-3.9C56.7,842.7,57,842.8,57.1,842.9"/>
		</g>
		<g id="path9908">
			<path fill="#FFFFFF" d="M51.2,839.5c0,0,1.3,0.3,1.9,1c0,0-0.5-1.1-2.2-1.5C50.9,839,51,839.3,51.2,839.5"/>
		</g>
		<g id="path9912">
			<path fill="#FFFFFF" d="M26,873.4c0,0-1.3,0.8-3.7,0.7c0,0,2,0.7,4.8-0.5C27.2,873.6,26.2,873.4,26,873.4"/>
		</g>
		<g id="path9916">
			<path fill="#FFFFFF" d="M61.2,873.9c0,0,0.6,0.7,1.2,1.3c0,0,0.2-0.6-1-1.7C61.4,873.5,60.9,873.8,61.2,873.9"/>
		</g>
		<g id="path9920">
			<path fill="#FFFFFF" d="M58.2,856.5c0,0,1-0.7,2.6-3.2c0,0,0.3,0.8-2.2,3.8L58.2,856.5z"/>
		</g>
		<g id="path9924">
			<path fill="#FFFFFF" d="M56.2,912.4c0,0,0.7,0.8,2.5,1.8c0,0-1.4-0.1-3-1.4C55.8,912.8,56.1,912.3,56.2,912.4"/>
		</g>
		<g id="path9928">
			<path fill="#FFFFFF" d="M75,911.6c0,0,1.4-0.3,2.9-0.3c0,0-1.8,0.4-3,0.8C74.8,912.1,75,911.7,75,911.6"/>
		</g>
		<g id="path9932">
			<path fill="#FFFFFF" d="M84.8,903c0,0,0.1-2.5-0.4-4.3c0,0,0.9,0.8,0.9,3.8C85.3,902.5,85,902.9,84.8,903"/>
		</g>
		<g id="path9936">
			<path fill="#FFFFFF" d="M80.7,880c0,0,1.6,1.8,1.9,5.9c0,0,0.5-2.8-0.9-5.2C81.7,880.6,81.2,879.8,80.7,880"/>
		</g>
		<g id="path9940">
			<path fill="#FFFFFF" d="M72.7,883.4c0,0,1.4,1.6,2.2,2.3c0,0,2.2,2.1,3.2,4.8c0,0,0.1-2.2-2.9-5.3c0,0-1.3-1.4-1.8-1.8
				C73.4,883.4,72.8,883.2,72.7,883.4"/>
		</g>
		<g id="path9944">
			<path fill="#FFFFFF" d="M75.1,884c0,0,1.4,0.5,2.1,1c0,0-0.4-0.8-1.9-1.5C75.3,883.5,75,883.8,75.1,884"/>
		</g>
		<g id="path9948">
			<path fill="#FFFFFF" d="M68.8,838.6c0,0-6,0.6-8.2-1.6c0,0-1.9,2.8-2.8,5.2c0,0,1.5,2.1,7.7,0.8
				C65.5,843.1,67.2,839.9,68.8,838.6"/>
		</g>
		<g id="path9952">
			<path fill="#001522" d="M61.9,843.7c-3.3,0-4.3-1.3-4.4-1.4l-0.1-0.1l0-0.1c0.9-2.5,2.8-5.2,2.8-5.3l0.2-0.3l0.2,0.2
				c2.1,2.1,7.9,1.5,8,1.5l0.9-0.1l-0.7,0.6c-1.6,1.3-3.2,4.4-3.2,4.4l-0.1,0.1l-0.1,0C64.1,843.6,62.9,843.7,61.9,843.7z
				 M58.1,842.2c0.4,0.4,2.2,1.7,7.2,0.7c0.3-0.5,1.4-2.6,2.7-3.9c-1.7,0.1-5.5,0.1-7.4-1.5C60.2,838.1,58.8,840.2,58.1,842.2z"/>
		</g>
		<g id="path9956">
			<path fill="#FFFFFF" d="M66.6,842.8c0,0-3.7,1.5-5,4.5c0,0,0.7-3.2,5-5C66.6,842.4,66.6,842.8,66.6,842.8z"/>
		</g>
	</g>
</g>
</svg>
