<?xml version="1.0" encoding="utf-8"?>
<!-- Generator: Adobe Illustrator 21.0.0, SVG Export Plug-In . SVG Version: 6.00 Build 0)  -->
<!DOCTYPE svg PUBLIC "-//W3C//DTD SVG 1.1//EN" "http://www.w3.org/Graphics/SVG/1.1/DTD/svg11.dtd">
<svg version="1.1"
	 id="svg27333" xmlns:cc="http://creativecommons.org/ns#" xmlns:dc="http://purl.org/dc/elements/1.1/" xmlns:rdf="http://www.w3.org/1999/02/22-rdf-syntax-ns#" xmlns:svg="http://www.w3.org/2000/svg"
	 xmlns="http://www.w3.org/2000/svg" xmlns:xlink="http://www.w3.org/1999/xlink" x="0px" y="0px" viewBox="0 0 1136.8 439.6"
	 enable-background="new 0 0 1136.8 439.6" xml:space="preserve">
<radialGradient id="SVGID_1_" cx="554.3032" cy="515.9607" r="790.5765" gradientUnits="userSpaceOnUse">
	<stop  offset="0" style="stop-color:#3BADFF"/>
	<stop  offset="1" style="stop-color:#FFFFFF"/>
</radialGradient>
<rect x="-266.9" y="-242.7" fill="url(#SVGID_1_)" width="1642.4" height="1517.4"/>
<g id="layer1" transform="translate(340.20937,-112.70377)">
	<g id="g27114" transform="matrix(2.6484014,0,0,2.6484014,1262.4331,-1306.9513)">
		<g id="path9960">
			<path fill="#EF3E42" d="M-307.1,720.8c0,0,0.3,2.6,0,4.8c0,0-0.1,2.3-1.2,3.5c0,0-5.1,6.1-17.6,6.6c0,0-12.5,0.9-23.7-7.9
				c0,0-2.5-2.1-6.1-6.1c0,0-5-6.4-5.2-7c-0.1-0.6-0.1-2.9-0.1-3.9c0,0,7.1-1.9,14.7-0.8C-346.3,710-310.6,719-307.1,720.8"/>
		</g>
		<g id="path9964">
			<path fill="#231F20" d="M-326.9,736c-3.1,0-13.5-0.6-22.9-7.9c0,0-2.6-2.2-6.1-6.2c-0.9-1.1-5.1-6.5-5.2-7.1
				c-0.1-0.5-0.1-2.1-0.1-3.3l0-0.8l0.2,0c0.1,0,7.2-1.9,14.8-0.8c1.5,0.4,35.8,9.1,39.2,10.9l0.1,0.1l0,0.1c0,0,0.3,2.7,0,4.9
				c0,0.1-0.2,2.4-1.2,3.7c0,0.1-5.3,6.2-17.8,6.6C-325.9,735.9-326.3,736-326.9,736z M-360.7,711l0,0.5c0,1.1,0,2.8,0.1,3.2
				c0.1,0.4,3.2,4.5,5.1,6.9c3.5,3.9,6,6.1,6,6.1c11,8.6,23.4,7.8,23.5,7.8c12.3-0.4,17.4-6.4,17.5-6.5c1-1.1,1.1-3.4,1.1-3.4
				c0.2-1.9,0-4.1,0-4.7c-4-1.9-38.6-10.7-39-10.8C-353.1,709.2-359.6,710.7-360.7,711z"/>
		</g>
		<g id="path9968">
			<path fill="#FFFFFF" d="M-361.3,706.2c0,0,0.3,3.4,0.3,6c0,0,4.9,7,10.3,11.1c0,0,9.3,7.8,19.7,8.3c0,0,8.1,1.3,16.2-2
				c0,0,6.8-2.8,7.4-6.2c0,0,2.5-7-9.4-11.6c0,0-10.1-2-25.9-2c0,0-12.5-0.4-15.9-3.7C-358.6,706-360.9,705.9-361.3,706.2"/>
		</g>
		<g id="path9972">
			<path fill="#231F20" d="M-327,732.1c-2.4,0-4-0.2-4-0.2c-10.3-0.5-19.7-8.3-19.8-8.3c-5.4-4.1-10.3-11.1-10.4-11.2l0-0.1v-0.1
				c0-2.5-0.3-5.9-0.3-6l0-0.1l0.1-0.1c0.4-0.4,2.3-0.3,2.9-0.2l0.1,0l0.1,0.1c3.3,3.2,15.6,3.6,15.7,3.6c15.7,0,25.9,2,26,2l0,0
				c6.2,2.4,8.5,5.4,9.3,7.6c0.9,2.3,0.3,4,0.3,4.2c-0.6,3.5-7.2,6.3-7.5,6.4C-319.2,731.7-323.8,732.1-327,732.1z M-360.7,712.1
				c0.5,0.7,5.2,7.2,10.2,11c0.1,0.1,9.4,7.7,19.5,8.2c0.1,0,8.2,1.3,16.1-2c0.1,0,6.7-2.8,7.2-6l0,0c0.1-0.3,2.2-6.9-9.3-11.3
				c-0.5-0.1-10.6-2-25.9-2c-0.5,0-12.5-0.5-16-3.7c-0.9-0.1-2,0-2.4,0.1C-360.9,707-360.7,709.9-360.7,712.1z"/>
		</g>
		<g id="path9976">
			<path fill="#FFFFFF" d="M-358.1,707.3c0,0,4.3,3.9,16.8,6.8c0,0,6.9,1.6,10.9,3.9c0,0,10.1,5.4,11.6,12.9c0,0,7.4-1.5,10.9-6.1
				c0,0,3-4.2-1.8-9.2c0,0-4-3.8-13.4-5.7c0,0-5.2-1.2-12.9-1.7c0,0-4.6-0.3-8-0.2c0,0-8,0-13.6-1.7
				C-357.7,706.4-357.6,707.1-358.1,707.3"/>
		</g>
		<g id="path9980">
			<path fill="#231F20" d="M-319.1,731.1l0-0.2c-1.4-7.3-11.3-12.7-11.4-12.7c-3.9-2.2-10.8-3.8-10.8-3.8
				c-12.4-2.9-16.7-6.7-16.9-6.9l-0.3-0.2l0.3-0.1c0.4-0.2,0.4-0.7,0.4-0.7l0-0.4l0.3,0.1c5.5,1.6,13.5,1.7,13.5,1.7
				c3.4-0.1,8,0.2,8,0.2c7.6,0.5,12.9,1.7,12.9,1.7c9.3,1.8,13.3,5.6,13.5,5.7c4.9,5,1.9,9.4,1.8,9.5c-3.5,4.6-10.7,6.1-11,6.2
				L-319.1,731.1z M-357.7,707.4c1.1,0.8,5.8,4,16.5,6.6c0.1,0,7,1.7,11,3.9c0,0,2.6,1.4,5.3,3.7c2.4,2.1,5.5,5.3,6.4,9.1
				c1.3-0.3,7.4-1.9,10.5-5.9c0.1-0.2,2.8-4.1-1.8-8.9c0,0-4.1-3.8-13.2-5.6c-0.1,0-5.3-1.2-12.9-1.7c0,0-4.6-0.3-8-0.2
				c-0.1,0-7.9-0.1-13.4-1.6C-357.5,706.9-357.5,707.2-357.7,707.4z"/>
		</g>
		<g id="path9984">
			<path fill="#EF3E42" d="M-362.7,696.1c0,0,1.1,6.3,1.5,10.4c0,0,0,0.7,1.4,0.9c0,0,0.8,0.2,1.5-0.1c0,0,0.8-0.2,0.6-1.7
				c0,0-0.7-8.4,0-12.9c0,0-2.3-1.1-2.7-1.5C-360.5,691.3-363.1,694.9-362.7,696.1"/>
		</g>
		<g id="path9988">
			<path fill="#231F20" d="M-359.2,707.7c-0.4,0-0.7-0.1-0.7-0.1c-1.6-0.2-1.5-1.1-1.5-1.1c-0.4-3.9-1.5-10.1-1.5-10.4
				c-0.3-1.3,2-4.6,2.3-5l0.2-0.2l0.2,0.2c0.3,0.3,1.8,1,2.7,1.4l0.2,0.1l0,0.2c-0.6,4.5,0,12.8,0,12.9c0.2,1.6-0.8,1.9-0.8,1.9
				C-358.6,707.7-359,707.7-359.2,707.7z M-360.5,691.6c-0.8,1.1-2.3,3.6-2,4.4l0,0c0,0.1,1.1,6.4,1.5,10.4c0,0,0,0.5,1.2,0.7
				c0,0,0.8,0.1,1.4-0.1c0,0,0.6-0.2,0.5-1.4c0-0.1-0.6-8.2-0.1-12.8C-358.5,692.7-359.9,692-360.5,691.6z"/>
		</g>
		<g id="path9992">
			<path fill="#EF3E42" d="M-418.8,723.2c0,0-0.6,1.8,0.2,6.6c0,0,0.3,1.1,0.9,1.7c0,0,1.2,1.6,3.9,3.1c0,0,6.3,4.3,18.4,3.7
				c0,0,10.3-0.3,18.9-9.5c0,0,6.9-8.8,8.9-15.5c0.2-0.6-0.3-2.9-0.4-3.4c0,0-13.5,13-21.7,15.5C-390,725.4-412.6,722.1-418.8,723.2
				"/>
		</g>
		<g id="path9996">
			<path fill="#231F20" d="M-397.7,738.6c-5.2,0-9.1-0.9-11.6-1.7c-3.1-1-4.7-2-4.7-2.1c-2.6-1.5-3.9-3.1-3.9-3.2
				c-0.6-0.6-0.9-1.8-0.9-1.8c-0.8-4.8-0.2-6.6-0.2-6.7l0-0.1l0.1,0c6.1-1.1,27.4,1.9,28.9,2.1c8.1-2.5,21.4-15.3,21.6-15.4l0.3-0.3
				l0.1,0.5c0,0.1,0,0.3,0.1,0.5c0.2,1.3,0.5,2.6,0.3,3c-2,6.7-8.8,15.5-8.9,15.6c-8.5,9.2-18.9,9.6-19,9.6
				C-396.3,738.6-397,738.6-397.7,738.6z M-418.4,729.8c0,0,0.3,1,0.8,1.6c0,0,1.3,1.6,3.8,3.1c0,0,1.6,1.1,4.6,2
				c2.8,0.9,7.4,1.9,13.6,1.6c0.1,0,10.3-0.4,18.7-9.4c0.1-0.1,6.8-8.8,8.8-15.4c0.1-0.4-0.2-2-0.3-2.8c0,0,0-0.1,0-0.1
				c-2.1,2-14,13-21.5,15.2l-0.1,0l-0.1,0c-0.2,0-22.3-3.2-28.6-2.2C-418.7,723.9-419.1,725.8-418.4,729.8
				C-418.4,729.8-418.4,729.8-418.4,729.8z"/>
		</g>
		<g id="path10000">
			<path fill="#FFFFFF" d="M-371.3,705.8c0,0-5.7,2.4-12,3.3c0,0-8.6,1.3-16.1,1.6c0,0-13.2,0.7-18.1,9.3c0,0-3.7,5.4,1.1,8.5
				c0,0,6.5,5.1,17.9,5.2c0,0,12.8-0.2,19.7-7.2c0,0,4.8-4.1,10.8-15.6c0,0-0.4-3.1-0.4-5C-368.5,705.9-370.4,705.4-371.3,705.8"/>
		</g>
		<g id="path10004">
			<path fill="#231F20" d="M-398.6,734c-5.9,0-10.5-1.5-13.3-2.6c-3-1.3-4.6-2.5-4.7-2.6c-1.3-0.9-2.1-2-2.4-3.4
				c-0.5-2.7,1.2-5.3,1.3-5.5c4.9-8.5,18.2-9.4,18.3-9.4c7.4-0.3,16-1.6,16.1-1.6c6.1-0.9,11.8-3.3,12-3.3c1-0.4,2.9,0,3,0.1l0.2,0
				v0.2c0,1.9,0.4,5,0.4,5l0,0.1l0,0.1c-6,11.4-10.8,15.6-10.9,15.6c-3.6,3.7-8.8,5.5-12.5,6.3C-395.4,733.9-398.6,734-398.6,734z
				 M-370.3,705.9c-0.3,0-0.7,0-0.9,0.1l0,0c-0.1,0-5.8,2.4-12.1,3.3c-0.1,0-8.7,1.3-16.1,1.6c-0.1,0-13.1,0.8-17.9,9.1
				c0,0-1.7,2.6-1.2,5.1c0.2,1.2,1,2.3,2.2,3.1c0,0,1.7,1.3,4.6,2.5c2.8,1.2,7.3,2.5,13.1,2.6c0,0,3.2-0.1,7.2-1
				c3.7-0.8,8.8-2.6,12.3-6.2c0.1-0.1,4.8-4.2,10.7-15.5c-0.1-0.5-0.3-3.1-0.4-4.8C-369.1,706-369.7,705.9-370.3,705.9z"/>
		</g>
		<g id="path10008">
			<path fill="#FFFFFF" d="M-372,706.1c0,0-6.2,2.9-19.5,4.1c0,0-7.4,0.7-12.2,2.8c0,0-11.1,4-12.8,15.6c0,0,6.5,4.8,16.5,5.1
				c0,0-0.9-8.8,7.8-14.7c0,0,3.8-2.8,8.6-4.8c0,0,10.2-4.6,12.3-7C-371.3,707.2-372.2,707.1-372,706.1"/>
		</g>
		<g id="path10012">
			<path fill="#231F20" d="M-399.8,733.9l-0.3,0c-10-0.3-16.5-5.1-16.6-5.1l-0.1-0.1l0-0.1c1.6-11.6,12.8-15.7,12.9-15.8
				c4.8-2.1,12.2-2.8,12.3-2.8c13.1-1.2,19.4-4,19.4-4.1l0.4-0.2l-0.1,0.4c0,0.3,0,0.5,0.1,0.6c0.1,0.2,0.4,0.2,0.4,0.2l0.4,0.1
				l-0.3,0.3c-2.1,2.4-12,6.8-12.4,7c-4.7,2-8.5,4.8-8.6,4.8c-8.5,5.7-7.7,14.4-7.7,14.5L-399.8,733.9z M-416.3,728.5
				c0.9,0.6,7,4.6,16,4.9c-0.1-1.5,0-9.3,7.9-14.6c0,0,3.9-2.9,8.6-4.9c0.1,0,9.5-4.3,12-6.7c-0.1-0.1-0.2-0.1-0.3-0.2
				c-0.1-0.2-0.2-0.3-0.2-0.6c-1.5,0.6-7.8,2.9-19.2,4c-0.1,0-7.4,0.7-12.1,2.8C-403.7,713.3-414.6,717.3-416.3,728.5z"/>
		</g>
		<g id="path10016">
			<path fill="#EF3E42" d="M-371.1,695.5c0,0-0.8,8.6-0.9,11c0,0,0.1,0.6,1.3,0.9c0,0,1.1,0.2,1.7,0c0,0,0.4-0.1,0.6-1.1
				c0,0,1.3-9.9,1.4-10.3C-367.1,696-369.4,694.7-371.1,695.5"/>
		</g>
		<g id="path10020">
			<path fill="#231F20" d="M-369.8,707.8c-0.5,0-0.9-0.1-0.9-0.1c-1.3-0.4-1.5-1.1-1.5-1.1l0,0l0,0c0.2-2.4,0.9-10.9,0.9-11l0-0.1
				l0.1-0.1c1.8-0.9,4.1,0.4,4.2,0.5l0.2,0.1l0,0.2c-0.1,0.3-0.8,6.3-1.3,10.3c-0.2,1-0.6,1.3-0.7,1.3
				C-369.2,707.8-369.5,707.8-369.8,707.8z M-371.8,706.5c0,0.1,0.2,0.5,1.1,0.7c0.3,0.1,1.1,0.2,1.5,0l0,0h0c0,0,0.3-0.1,0.4-0.9
				c0-0.4,1.1-8.8,1.3-10.1c-0.5-0.2-2.2-1-3.5-0.4C-371,696.8-371.6,704.2-371.8,706.5z"/>
		</g>
		<g id="path10024">
			<path fill="#59AD40" d="M-343.6,668.3c3.2,1.6,5.2,3.3,5.2,3.3c7.7,6.9,6.2,13.2,6.2,13.2c-0.7-0.4-3.8-1.4-3.8-1.4
				c0,1.6-0.3,5.1-0.3,5.1c-8.2,6.2-18.7,8-18.7,8c-1.3-0.9-2.8-2.7-2.8-2.7c0,1.1,0,2.6,0,2.6c-16.1,2.9-26.8-3.3-26.8-3.3
				c-0.1-0.7-0.1-3-0.1-3c-0.9,0.4-4.1,1.7-4.1,1.7c-2.8-1.8-5-4.8-5-4.8c-0.5-0.8-1.5-7.2-1.5-7.2c0-8.9,10.2-15,10.2-15
				c7.3-2.5,19.3-1.7,19.3-1.7c2.4,0,7.8,0.8,7.8,0.8c5,0.6,9.3,2.1,12.6,3.6l0.1,1.8L-343.6,668.3L-343.6,668.3z"/>
		</g>
		<g id="path10028">
			<path fill="#231F20" d="M-366.3,697.3c-4.5,0-8.3-0.6-11-1.3c-4.7-1.2-7.4-2.7-7.4-2.7l-0.1-0.1l0-0.1c-0.1-0.6-0.1-2-0.1-2.7
				c-1.2,0.5-3.8,1.6-3.8,1.6l-0.1,0l-0.1-0.1c-2.8-1.8-5-4.8-5.1-4.9c-0.5-0.9-1.4-6.7-1.5-7.3c0-8.9,10.2-15.2,10.3-15.2l0,0
				c7.3-2.5,19.3-1.7,19.4-1.7c0,0,0,0,0,0c2.4,0,7.6,0.8,7.8,0.8c4.3,0.5,8.6,1.7,12.7,3.7l0.1,0.1l0,1.6l1.5-0.9l0.1,0.1
				c3.2,1.6,5.2,3.3,5.2,3.3c7.7,6.9,6.4,13.2,6.3,13.5l-0.1,0.3l-0.3-0.2c-0.6-0.3-2.6-1-3.4-1.3c0,1.7-0.3,4.6-0.3,4.8l0,0.1
				l-0.1,0.1c-8.1,6.2-18.7,8.1-18.8,8.1l-0.1,0l-0.1-0.1c-0.9-0.7-1.9-1.7-2.4-2.3c0,0.9,0,1.9,0,1.9l0,0.2l-0.2,0
				C-360.8,697.1-363.7,697.3-366.3,697.3z M-384.4,692.9c1.1,0.6,11.4,5.8,26.3,3.2c0-0.5,0-1.6,0-2.4v-0.6l0.4,0.5
				c0,0,1.4,1.7,2.7,2.6c1.1-0.2,10.8-2.2,18.4-7.9c0.1-0.6,0.3-3.6,0.3-5V683l0.3,0.1c0.1,0,2.5,0.8,3.5,1.3
				c0.1-0.6,0.2-1.9-0.3-3.7c-0.5-2.2-2-5.5-5.9-9c0,0-1.9-1.6-5-3.2l-1.9,1.1l-0.1-2.1c-4-1.9-8.2-3.1-12.4-3.6
				c-0.1,0-5.4-0.8-7.8-0.8c-0.1,0-12.1-0.8-19.2,1.7c-0.5,0.3-10,6.4-10,14.8c0.4,2.5,1.1,6.5,1.4,7.1c0,0,2.2,2.9,4.8,4.7
				c0.6-0.2,3.2-1.3,4-1.7l0.3-0.1l0,0.4C-384.5,690.1-384.4,692.1-384.4,692.9z"/>
		</g>
		<g id="path10032">
			<path fill="#E4412B" d="M-356.8,678.4c0,0,2.8-9.5,1.6-19.2c0,0,11,5.5,17.4,10.6c0,0,1.9-2.8,1.9-3.6c0,0-10.9-9-19.3-18.4
				c0,0-4-4.9-6.5-2.7c0,0,0.2-4.6,0.4-6.1c0,0-5.7-0.2-6.1,1c0,0,0.5,2,0.7,4.8c0,0-1.6-1.6-4.9,1.8c0,0-13.5,12.8-21,20.3
				c0,0,0.8,2.8,2.7,3c0,0,9.2-8.6,16.2-11.6c0,0-1.6,8.7,3.3,21.5c0,0,0.4,0.9,1.7,1.2c0,0,4.1,1.8,10.2-0.3c0,0,1.2-0.4,1.4-0.8
				C-357.3,679.9-356.9,679.2-356.8,678.4"/>
		</g>
		<g id="path10036">
			<path fill="#231F20" d="M-364.5,682c-2.7,0-4.3-0.7-4.4-0.7c-1.3-0.3-1.8-1.3-1.8-1.3c-2.6-6.6-3.3-12.2-3.5-15.6
				c-0.2-2.8,0-4.8,0.1-5.6c-6.9,3-15.7,11.3-15.8,11.3l-0.1,0.1l-0.1,0c-2-0.3-2.9-3.1-2.9-3.2l0-0.1l0.1-0.1
				c7.4-7.5,20.9-20.2,21-20.3c1.4-1.4,2.7-2.2,3.8-2.2c0.4,0,0.7,0.1,0.9,0.2c-0.2-2.5-0.7-4.3-0.7-4.3l0-0.1l0-0.1
				c0.5-1.2,5.4-1.2,6.4-1.1l0.3,0l0,0.3c-0.1,1.2-0.3,4.4-0.3,5.6c0.4-0.2,0.9-0.3,1.5-0.3c2.4,0.2,4.8,3.2,4.9,3.4
				c8.3,9.2,19.2,18.2,19.3,18.3l0.1,0.1v0.1c0,0.9-1.7,3.4-1.9,3.7l-0.1,0.2l-0.2-0.2c-5.6-4.5-14.9-9.3-16.9-10.4
				c1.1,9.4-1.5,18.5-1.6,18.9c-0.2,0.8-0.5,1.5-0.6,1.6c-0.2,0.5-1.3,0.9-1.5,0.9C-360.9,681.7-362.8,682-364.5,682z M-373.5,657.9
				l-0.1,0.4c0,0.1-1.5,8.8,3.3,21.3c0,0,0.4,0.8,1.5,1.1c0.1,0,4.1,1.7,10-0.3c0.5-0.2,1.1-0.5,1.2-0.7c0,0,0.4-0.7,0.5-1.5l0,0
				c0-0.1,2.8-9.5,1.6-19.1l-0.1-0.4l0.4,0.2c0.1,0.1,10.8,5.5,17.2,10.5c0.7-1,1.6-2.6,1.7-3.2c-1.1-0.9-11.3-9.5-19.3-18.3
				c0,0-2.5-3-4.6-3.2c-0.6-0.1-1.1,0.1-1.6,0.5l-0.4,0.3l0-0.5c0-0.2,0.2-4.2,0.3-5.9c-2.2,0-5.2,0.2-5.6,0.8
				c0.1,0.4,0.5,2.3,0.7,4.7l0,0.6l-0.4-0.4c0,0-1.5-1.3-4.5,1.8c-0.1,0.1-13.5,12.8-20.9,20.2c0.2,0.5,0.9,2.4,2.4,2.7
				c0.9-0.9,9.6-8.7,16.2-11.5L-373.5,657.9z"/>
		</g>
		<g id="path10040">
			<path fill="#FFE86E" d="M-352.4,562.8c0.1,0,2.7-9.1,4.1-11.2c0,0-1.6-0.9-2.9-1.2c0,0,0.3-0.8,0.5-1.2c0,0-1.3-0.9-3.5-1.2
				c0,0,0.3-1.1,0.4-1.3c0,0-5.3-2-10.3-1.3c0,0,0-0.6,0-0.8c0,0-6.8-1.4-11.9,1.6c0,0,0.2,0.9,0.2,1.1c0,0-1.6,0.2-2.9,0.7
				c0,0-0.1-0.3-0.2-0.7c0,0-4.8,2-6.2,5.7c0,0,2.5,4.8,3.8,9.9C-381.3,563-357.7,563.5-352.4,562.8"/>
		</g>
		<g id="path10044">
			<path fill="#231F20" d="M-364.9,563.4c-7.9,0-16.3-0.2-16.5-0.2l-0.2,0l0-0.2c-1.3-5-3.7-9.8-3.8-9.9l0-0.1l0-0.1
				c1.5-3.7,6.1-5.8,6.3-5.9l0.2-0.1l0.1,0.2c0.1,0.2,0.1,0.3,0.2,0.5c1-0.3,2.1-0.5,2.5-0.6c0-0.3-0.1-0.7-0.1-0.9l0-0.2l0.1-0.1
				c5.1-3,12-1.6,12.1-1.6l0.2,0v0.2c0,0.1,0,0.4,0,0.5c4.9-0.7,10.1,1.3,10.1,1.3l0.2,0.1l-0.1,0.2c-0.1,0.2-0.2,0.7-0.3,1
				c2.1,0.4,3.3,1.1,3.4,1.2l0.2,0.1l-0.1,0.2c-0.1,0.2-0.3,0.6-0.4,0.9c1.3,0.3,2.6,1.1,2.7,1.1l0.2,0.1l-0.1,0.2
				c-0.9,1.5-2.5,6.5-3.4,9.2c-0.7,2.1-0.7,2.1-0.9,2.2h0C-354.5,563.3-359.5,563.4-364.9,563.4z M-381.2,562.8
				c2.2,0,23.4,0.4,28.6-0.2c0.1-0.3,0.3-1,0.6-1.8c0.9-2.8,2.3-7.4,3.3-9.1c-0.5-0.2-1.6-0.8-2.6-1l-0.3-0.1l0.1-0.3
				c0,0,0.2-0.6,0.4-1c-0.4-0.2-1.6-0.8-3.2-1l-0.3,0l0.1-0.3c0,0,0.2-0.7,0.3-1.1c-1-0.4-5.6-1.9-10-1.2l-0.3,0l0-0.3
				c0,0,0-0.4,0-0.6c-1.1-0.2-6.9-1-11.4,1.5c0,0.3,0.1,0.8,0.1,1v0.2l-0.2,0c0,0-1.5,0.2-2.9,0.7l-0.2,0.1l-0.1-0.2
				c0,0-0.1-0.2-0.2-0.5c-1,0.5-4.6,2.4-5.8,5.4C-384.5,553.8-382.4,558.2-381.2,562.8z"/>
		</g>
		<g id="path10048">
			<path fill="#E8AE10" d="M-354.5,575.5c0,0,3.2-6.4,3.8-7.9c0,0,0.7-1.1,0.5-3.7c0,0,0-1.2-3.4-2.4c0,0-14.3-4.7-28.1,0.2
				c0,0-0.8,0.2-1.5,1.8c0,0-0.5,1.1-0.8,2.5c0,0-0.2,0.9,0.4,2c0,0,2.8,5.3,5,8.2C-378.6,576.2-358.5,577.8-354.5,575.5"/>
		</g>
		<g id="path10052">
			<path fill="#231F20" d="M-365.1,577c-6.3,0-13-0.5-13.5-0.6l-0.1,0l-0.1-0.1c-2.2-2.9-5-8.2-5-8.2c-0.6-1.1-0.4-2.1-0.4-2.1
				c0.3-1.5,0.8-2.6,0.8-2.6c0.7-1.6,1.6-1.9,1.7-1.9c13.7-4.9,28.1-0.3,28.2-0.2c3.4,1.2,3.5,2.5,3.5,2.6c0.2,2.5-0.4,3.7-0.5,3.8
				c-0.6,1.6-3.6,7.7-3.8,7.9l0,0.1l-0.1,0C-356,576.7-360.5,577-365.1,577z M-378.4,576c1.6,0.1,19.9,1.5,23.8-0.6
				c0.3-0.7,3.2-6.4,3.7-7.8l0,0c0,0,0.7-1.1,0.5-3.6c0,0-0.1-1.1-3.2-2.2c-0.1,0-14.3-4.6-27.9,0.2c0,0-0.7,0.3-1.4,1.7
				c0,0-0.5,1.1-0.8,2.5c0,0-0.1,0.8,0.4,1.8C-383.3,567.9-380.6,573.1-378.4,576z"/>
		</g>
		<g id="path10056">
			<path fill="#E8AE10" d="M-363.8,574.1c0,0,0-2.1,0-3.2c0,0,0.1-1.8-1.1-2.2c0,0-1.6-0.7-3.1,0.1c0,0-0.9,0.4-0.7,2.1
				c0,0,0,2.9,0,3.4C-368.7,574.3-364.9,575.3-363.8,574.1"/>
		</g>
		<g id="path10060">
			<path fill="#231F20" d="M-365.9,574.9c-1.4,0-2.8-0.4-2.9-0.4l-0.2,0l0-0.2c0-0.5,0-3.3,0-3.5c-0.1-1.8,0.8-2.3,0.9-2.3
				c1.6-0.9,3.2-0.2,3.3-0.1c1.4,0.4,1.3,2.3,1.2,2.4c0,1.1,0,3.2,0,3.2l0,0.1l-0.1,0.1C-364.1,574.8-365,574.9-365.9,574.9z
				 M-368.5,574.1c1.1,0.3,3.6,0.7,4.5-0.2c0-0.4,0-2.1,0-3.1c0,0,0.1-1.7-0.9-1.9c0,0-1.5-0.7-2.9,0.1c0,0-0.7,0.4-0.6,1.9
				C-368.5,570.9-368.5,573.3-368.5,574.1z"/>
		</g>
		<g id="path10064">
			<path fill="#59AD40" d="M-334.5,592.7c0,0-7.1-20.1-32.6-19.8c0,0-23.7-1.1-31.9,23.2C-399,596.2-364,585-334.5,592.7"/>
		</g>
		<g id="path10068">
			<path fill="#231F20" d="M-399.3,596.6l0.1-0.4c4.3-12.7,12.8-18.3,19.2-20.9c6.9-2.7,12.9-2.5,13-2.5c13.2-0.2,21.5,5.2,26,9.8
				c4.9,5,6.8,10,6.8,10.1l0.1,0.4l-0.4-0.1c-29.1-7.7-64,3.3-64.4,3.4L-399.3,596.6z M-367.5,573.2c-1.5,0-6.6,0.2-12.3,2.5
				c-6.2,2.5-14.5,8-18.7,20.1c4.2-1.3,36.4-10.5,63.7-3.4c-0.5-1.3-2.5-5.4-6.5-9.5c-4.5-4.5-12.6-9.8-25.7-9.7
				C-367.1,573.2-367.2,573.2-367.5,573.2z"/>
		</g>
		<g id="path10072">
			<path fill="#59AD40" d="M-337.2,622.7c0,0,6.2-0.8,7-3.9c0,0,0.5-0.6,0.2-2.3c0,0,1-8.2,0.2-16.4c0,0-0.5-2.5-2.9-5.7
				c0,0-10.8-17-35.6-16.2c0,0-22.1,0-32.5,20.2c0,0-1.1,1.6-1.1,4.7c0,0-0.2,5.5,1.6,13.9c0,0-0.9,3.1,3.8,4.7c0,0,1.4,0.4,2.4,0.5
				c0,0,1.5,0.3,2.6,0.4c0,0,1.5,8.2-7.4,12.7c0,0,4.6,8.3,6.8,10.9h3.1c0,0,7.1-6.5,13.7-8.8c0,0,19.8-4.8,25.6-1.5
				c0,0,5.6,6.2,7.2,9.6c0,0,1.8-0.1,3-0.1c0,0,6.2-8,8.4-10.7C-331.1,635-337.4,631.2-337.2,622.7"/>
		</g>
		<g id="path10076">
			<path fill="#231F20" d="M-389,646.7h-3.2l-0.1-0.1c-2.2-2.6-6.6-10.6-6.8-10.9l-0.1-0.2l0.2-0.1c7.9-4,7.4-11.1,7.3-12.3
				c-1.1-0.1-2.4-0.4-2.4-0.4c-1-0.1-2.3-0.5-2.4-0.5c-4.4-1.5-4-4.5-3.9-4.9c-1.8-8.3-1.6-13.9-1.6-13.9c0-3.1,1.1-4.8,1.2-4.8
				c5.4-10.5,13.9-15.4,20.2-17.8c6.8-2.5,12.4-2.5,12.4-2.5c12.8-0.4,21.9,4,27.2,7.9c5.8,4.1,8.5,8.4,8.6,8.5
				c2.4,3.1,2.9,5.6,2.9,5.7c0.8,7.9-0.1,15.8-0.2,16.4c0.3,1.5-0.1,2.2-0.2,2.4c-0.8,2.9-5.9,3.8-7,4c-0.1,8.1,6,11.8,6,11.8
				l0.2,0.1l-0.2,0.2c-2.2,2.7-8.4,10.7-8.4,10.7l-0.1,0.1h-0.1c-1.2,0-3,0.1-3,0.1l-0.2,0l-0.1-0.1c-1.5-3.2-6.7-9-7.2-9.5
				c-5.6-3.2-25.2,1.5-25.4,1.5c-6.4,2.2-13.5,8.7-13.6,8.7L-389,646.7L-389,646.7z M-392.1,646.2h2.9c0.8-0.7,7.5-6.6,13.7-8.8
				c0.1,0,5.1-1.2,10.7-2c7.6-1,12.7-0.9,15.1,0.5l0.1,0c0.2,0.3,5.5,6.1,7.2,9.5c0.4,0,1.8-0.1,2.8-0.1c0.7-0.9,6-7.8,8.2-10.5
				c-1.1-0.8-6.2-4.7-6-12.3l0-0.2l0.2,0c0.1,0,6.1-0.8,6.8-3.7l0-0.1c0,0,0.4-0.6,0.1-2.1l0,0l0,0c0-0.1,1-8.3,0.2-16.3
				c0,0-0.5-2.5-2.8-5.5c-0.1-0.2-11.1-16.9-35.4-16.1c-0.2,0-22.1,0.2-32.3,20.1c0,0-1.1,1.7-1.1,4.6c0,0.1-0.2,5.6,1.6,13.9l0,0.1
				l0,0.1c0,0.1-0.7,2.9,3.6,4.4c0,0,1.4,0.4,2.3,0.5c0,0,1.5,0.3,2.6,0.4l0.2,0l0,0.2c0,0.1,1.4,8.3-7.3,12.8
				C-397.9,636.9-394.1,643.8-392.1,646.2z"/>
		</g>
		<g id="path10080">
			<path fill="#231F20" d="M-337.2,611.9c0,0,0.5,27.5-27,28.5c0,0-28.4,2.5-27.2-31.5c0,0,5.6-7.5,26-8.4
				C-365.4,600.5-348,599.8-337.2,611.9"/>
		</g>
		<g id="path10084">
			<path fill="#231F20" d="M-365.4,640.7c-3.1,0-11.7-0.6-18.2-6.8c-5.8-5.5-8.5-13.9-8.1-25l0-0.1l0-0.1c0.2-0.3,5.9-7.6,26.2-8.5
				c0.2,0,17.7-0.6,28.5,11.5l0.1,0.1l0,0.1c0,0.1,0.1,7-3.2,14c-3.1,6.5-9.7,14.3-24.1,14.8C-364.2,640.7-364.6,640.7-365.4,640.7z
				 M-391.2,609.1c-0.4,10.9,2.3,19.2,8,24.6c7.9,7.5,18.9,6.6,19,6.6c14.1-0.5,20.7-8.2,23.7-14.5c3.1-6.5,3.2-12.9,3.2-13.7
				c-10.6-11.8-27.9-11.3-28-11.2C-384.5,601.6-390.6,608.4-391.2,609.1z"/>
		</g>
		<g id="path10088">
			<path fill="#231F20" d="M-336.8,620.1l0-0.5c2.3-0.2,2.7-1.4,2.7-1.4c0.6-1.3-2.2-4.8-3.3-6.1l0.4-0.3c0.4,0.5,4.2,4.8,3.4,6.6
				C-333.6,618.4-334.2,619.9-336.8,620.1z"/>
		</g>
		<g id="path10092">
			<path fill="#231F20" d="M-392,620.5c-3.1-0.1-4-1.4-4.2-1.6c-1.3-1.5,0.1-4.1,0.2-4.2c1.7-3.2,4.4-5.9,4.4-5.9l0.3,0.3
				c0,0-2.7,2.6-4.3,5.8c0,0-1.3,2.5-0.2,3.7l0,0c0,0,0.8,1.3,3.8,1.4L-392,620.5z"/>
		</g>
		<g id="path10096">
			<path fill="#231F20" d="M-391.8,622.9c-0.7-5.5-3.3-9.2-3.4-9.2l0.4-0.3c0,0,2.7,3.8,3.4,9.5L-391.8,622.9z"/>
		</g>
		<g id="path10100">
			<path fill="#231F20" d="M-389.3,646.6c-1.6-2.7-6.4-11-6.5-11.1l-0.1-0.2l0.2-0.1c6.4-4.3,6.2-10.2,6.2-10.2l0.5,0
				c0,0.1,0.3,6.1-6.2,10.5c0.7,1.3,4.9,8.4,6.4,10.9L-389.3,646.6z"/>
		</g>
		<g id="path10104">
			<path fill="#231F20" d="M-399,635.8l0-0.5c0.1,0,2.7-0.2,3.5-0.2v0.5C-396.3,635.6-398.9,635.8-399,635.8z"/>
		</g>
		<g id="path10108">
			<path fill="#231F20" d="M-400.1,617.2l-0.5-0.1c0-0.1,1.4-7.6,10.6-13.8c0.1-0.1,8.9-6.9,24.3-6.9c0.1,0,0.2,0,0.3,0
				c0.2,0,21.7-0.8,33.8,16.3c0.1,0.1,1.6,2,1.7,4l-0.5,0c-0.2-1.9-1.6-3.7-1.6-3.7c-11.9-16.9-33.2-16.2-33.4-16.1
				c-15.4-0.1-24.2,6.8-24.3,6.8C-398.7,609.8-400.1,617.1-400.1,617.2z"/>
		</g>
		<g id="path10112">
			<path fill="#231F20" d="M-342.3,645.7l-0.4-0.3c1.3-1.8,6.2-9.4,7-10.6c-3.9-3.5-5.1-8.5-5.1-8.6l0.5-0.1c0,0.1,1.1,5,5.1,8.4
				l0.2,0.1l-0.1,0.2C-335.2,635-340.9,643.7-342.3,645.7z"/>
		</g>
		<g id="path10116">
			<path fill="#231F20" d="M-331.1,635.2c0,0-2.9-0.2-4.2-0.2v-0.5c1.3,0,4.2,0.2,4.3,0.2L-331.1,635.2z"/>
		</g>
		<g id="path10120">
			<path fill="#231F20" d="M-337,622.9l-0.5,0c0-0.2,0.3-5.9,1.9-8.7l0.4,0.2C-336.7,617.1-337,622.8-337,622.9z"/>
		</g>
		<g id="path10124">
			<path fill="#231F20" d="M-350.9,567.7c0,0-2.2-3.7-16.4-3.6c-0.1,0-12.4,0.4-16.4,3l-0.3-0.4c4.1-2.8,16.1-3.1,16.6-3.1
				c14.7-0.2,16.8,3.7,16.9,3.8L-350.9,567.7z"/>
		</g>
		<g id="path10128">
			<path fill="#231F20" d="M-351.1,549.3c0,0-1.5,3.7-2.3,5.6c0,0,1.1-1.8,2.4-4.1C-351,550.7-351,549.2-351.1,549.3"/>
		</g>
		<g id="path10132">
			<path fill="#231F20" d="M-354.5,547.7c-0.4,1.2-1,3-1.6,6c0.5-0.9,0.8-1.5,2.2-5.5C-353.9,548.2-354.1,546.6-354.5,547.7"/>
		</g>
		<g id="path10136">
			<path fill="#231F20" d="M-364.4,544.9c-0.1,1.3-0.2,4.8-0.1,6.7c0,0,0.4-1.6,0.8-6.1C-363.8,545.4-364.2,544.7-364.4,544.9"/>
		</g>
		<g id="path10140">
			<path fill="#231F20" d="M-375.5,546.3c0,0,0.5,4.8,0.7,5.9c0,0-0.7-1.4-1.2-4.8C-376.1,547.4-375.6,546.1-375.5,546.3"/>
		</g>
		<g id="path10144">
			<path fill="#231F20" d="M-379.2,547.8c0,0,1.7,5.1,2.5,6.8c0,0-0.5-2.4-1.7-6.7C-378.4,547.9-379.2,547.5-379.2,547.8"/>
		</g>
		<g id="path10148">
			<path fill="#FFFFFF" d="M-380.7,603.1c0,0-1.3,7,0.1,15.2c0,0,2.1,13.4,8.6,13c0,0,5.7,0,5.6-16c0,0-0.2-9.6-2.5-14.6
				C-369,600.8-375,600.9-380.7,603.1"/>
		</g>
		<g id="path10152">
			<path fill="#231F20" d="M-372.3,631.6c-2.6,0-4.9-2.2-6.7-6.5c-1.3-3.3-1.9-6.7-1.9-6.7c-1.4-8.2-0.1-15.3-0.1-15.3l0-0.1l0.1,0
				c5.7-2.1,11.7-2.3,11.8-2.3l0.2,0l0.1,0.1c2.4,5,2.6,14.3,2.6,14.7c0,9.4-1.9,13.4-3.5,15c-1.2,1.2-2.2,1.2-2.3,1.2
				C-372.1,631.6-372.2,631.6-372.3,631.6z M-380.5,603.2c-0.2,1-1.2,7.5,0.1,15c0,0.1,2.1,12.8,8.1,12.8c0.1,0,0.2,0,0.3,0
				c0.1,0,5.4-0.3,5.4-15.7c0-0.1-0.2-9.4-2.5-14.4C-370.1,601.1-375.4,601.4-380.5,603.2z"/>
		</g>
		<g id="path10156">
			<path fill="#FFFFFF" d="M-361.3,600.8c0,0-2.2,5.2-2,15c0,0-0.1,14.1,5.5,14.8c0,0,6.2,1.1,8-13.2c0,0,1.3-8.6-0.2-14
				C-350,603.3-356.1,600.9-361.3,600.8"/>
		</g>
		<g id="path10160">
			<path fill="#231F20" d="M-357.5,630.8c-0.2,0-0.4,0-0.4,0c-5.7-0.7-5.7-14.4-5.7-15c-0.2-9.8,2-15,2.1-15.1l0.1-0.1l0.2,0
				c5.1,0.2,11.2,2.5,11.3,2.6l0.1,0l0,0.1c1.5,5.4,0.2,14,0.2,14.1c-0.9,7.9-3.3,11.1-5.1,12.4C-355.9,630.7-357,630.8-357.5,630.8
				z M-361.1,601c-0.3,0.9-2.1,6-2,14.8c0,0.1,0,13.9,5.3,14.5c0,0,1.3,0.2,2.8-0.9c1.7-1.3,3.9-4.4,4.9-12.1
				c0-0.1,1.3-8.5-0.1-13.8C-351.1,603.2-356.5,601.2-361.1,601z"/>
		</g>
		<g id="path10164">
			<path fill="#231F20" d="M-366.4,645.3c0,0,0.1,0.8,0.1,1.3c0,0-0.8-0.7-1-2C-367.3,644.6-366.5,644.8-366.4,645.3"/>
		</g>
		<g id="path10168">
			<path fill="#231F20" d="M-362.3,645.5c0,0-0.1,1,0,1.5c0,0,0.7-0.5,1.1-2.2C-361.2,644.8-362.2,645-362.3,645.5"/>
		</g>
		<g id="path10172">
			<path fill="#231F20" d="M-373.4,658.6c0,0,1-6.4,3.8-9.7c0,0-3.4,2.6-4.6,9.2C-374.2,658.2-373.9,658.8-373.4,658.6"/>
		</g>
		<g id="path10176">
			<path fill="#231F20" d="M-355.6,659.2c0,0-0.9-6.1-3.1-8.6c0,0,3,1.4,4,8.6C-354.7,659.2-355.5,659.5-355.6,659.2"/>
		</g>
		<g id="path10180">
			<path fill="#FFFFFF" d="M-397.1,668.6c0,0,0.9-2.4,3.3-2.6c0,0,1.7-0.1,3.1,1.4c0,0,1.9,1.8,0.9,4c0,0-0.7,1.8-2.5,1.8
				C-392.2,673.1-395.3,668.8-397.1,668.6"/>
		</g>
		<g id="path10184">
			<path fill="#231F20" d="M-392.2,673.4C-392.2,673.4-392.2,673.4-392.2,673.4l-0.2,0l-0.1-0.1c-0.8-1.2-3.3-4.3-4.7-4.4l-0.3,0
				l0.1-0.3c0-0.1,0.9-2.6,3.5-2.8c0.1,0,1.9-0.1,3.3,1.5c0,0,2,2,1,4.2C-389.6,671.4-390.3,673.4-392.2,673.4z M-396.8,668.4
				c1.7,0.5,4.2,3.8,4.6,4.5c1.5,0,2.1-1.6,2.1-1.6c0.9-2-0.9-3.7-0.9-3.7c-1.3-1.4-2.9-1.3-2.9-1.3
				C-395.6,666.3-396.5,667.8-396.8,668.4z"/>
		</g>
		<g id="path10188">
			<path fill="#FFFFFF" d="M-331.5,667.5c0,0-2.7-3.4-6-0.1c0,0-1.3,1.3-1.5,2.9c0,0-0.6,2.2,2.7,3.9
				C-336.3,674.1-331.6,671.4-331.5,667.5"/>
		</g>
		<g id="path10192">
			<path fill="#231F20" d="M-336.3,674.4l-0.1-0.1c-3.4-1.7-2.8-4-2.8-4.1c0.2-1.6,1.5-2.9,1.6-3c1.8-1.8,3.5-1.7,4.5-1.2
				c1,0.4,1.8,1.3,1.8,1.5l0,0c-0.2,3.9-4.8,6.7-5,6.8L-336.3,674.4z M-334.5,666.2c-0.9,0-1.9,0.5-2.8,1.4c0,0-1.3,1.3-1.4,2.7
				c0,0.1-0.5,2,2.4,3.6c0.7-0.4,4.4-2.9,4.6-6.3c-0.2-0.2-1.2-1.3-2.5-1.4C-334.3,666.2-334.4,666.2-334.5,666.2z"/>
		</g>
		<g id="path10196">
			<path fill="#FFFFFF" d="M-324.2,662.8c0,0-1.2,3.1-6.4,3.8c0,0-4.4,0.2-6.1,3.4c0,0-2.5,3.3,1.3,11.2c0,0,3.2,6.2,4,14.3
				c0,0,0.5,5.1,0.7,6.3c0,0,0.2,4.3,2,4.5c0,0,0.9,0.2,1.4-0.7c0,0,0.6,2.1,2.2,2.1c0,0,1.7,0.3,2.8-2.6c0,0,1.9,1.1,2.9-3.1
				c0,0,3.5-13.9-1-24.1c0,0-0.6-1.5-0.9-2.5c0,0-0.9-2.5-0.7-5.2c0,0,1.3-1.2,3.2-2.5c0,0,3.4-2.1,2.5-6.7c0,0-1-5.5-3.9-4.9
				c0,0-1.6,0.2-2.4,3C-322.7,659.2-323.5,661.6-324.2,662.8"/>
		</g>
		<g id="path10200">
			<path fill="#231F20" d="M-325,708.1c-0.1,0-0.2,0-0.2,0c-1.3,0-2-1.2-2.3-1.9c-0.5,0.4-1.1,0.5-1.4,0.4c-1.9-0.2-2.1-4.3-2.2-4.7
				c-0.2-1.2-0.7-6.2-0.7-6.3c-0.8-8-4-14.2-4-14.3c-3.8-8-1.4-11.3-1.3-11.5c1.7-3.2,6.1-3.4,6.2-3.5c5-0.6,6.2-3.6,6.2-3.6l0,0
				c0.7-1.2,1.5-3.5,1.5-3.6c0.9-2.9,2.5-3.1,2.6-3.1c3.1-0.6,4.2,4.9,4.2,5.1c0.5,2.5-0.2,4.2-0.9,5.3c-0.7,1.1-1.6,1.7-1.6,1.7
				c-1.6,1.1-2.8,2.1-3.1,2.4c-0.1,2.6,0.7,5,0.7,5c0.3,1.1,0.9,2.5,0.9,2.5c4.5,10.2,1,24.1,1,24.2c-0.4,1.8-1.1,2.9-1.9,3.2
				c-0.4,0.2-0.8,0.1-1.1,0.1C-323.1,707.8-324.4,708.1-325,708.1z M-327.2,705.1l0.1,0.5c0,0,0.5,1.9,2,2l0,0
				c0.1,0,1.5,0.2,2.6-2.4l0.1-0.3l0.2,0.1c0,0,0.4,0.2,0.9,0c0.5-0.2,1.2-0.9,1.6-2.9c0-0.1,3.5-13.9-1-24c0-0.1-0.6-1.5-0.9-2.6
				c0-0.1-0.9-2.5-0.7-5.2l0-0.1l0.1-0.1c0,0,1.3-1.2,3.2-2.5c0.1-0.1,3.2-2.1,2.4-6.5c0-0.1-1-5.2-3.7-4.7c-0.1,0-1.5,0.2-2.2,2.8
				c0,0.1-0.8,2.4-1.5,3.6c-0.1,0.3-1.4,3.3-6.6,3.9c-0.1,0-4.3,0.2-5.9,3.2c0,0.1-2.3,3.4,1.3,11c0,0.1,3.2,6.3,4,14.4
				c0,0.1,0.5,5.1,0.7,6.3c0.1,1.2,0.5,4.2,1.8,4.3c0,0,0.8,0.1,1.2-0.5L-327.2,705.1z"/>
		</g>
		<g id="path10204">
			<path fill="#231F20" d="M-327.1,705.9l-0.4-0.3c0-0.1,3.5-5.8,0.5-17.6l0.5-0.1C-323.5,699.9-327,705.6-327.1,705.9z"/>
		</g>
		<g id="path10208">
			<path fill="#231F20" d="M-322.1,705.3l-0.4-0.2c0-0.1,2.6-5.7,0.5-18.3l0.5-0.1C-319.4,699.5-322,705.1-322.1,705.3z"/>
		</g>
		<g id="path10212">
			<path fill="#231F20" d="M-320.7,685.5c-0.6,1.3-4.2,2.3-7.5,2.4c1.3,0.5,3,0.2,4,0C-322.2,687.4-320.6,687-320.7,685.5"/>
		</g>
		<g id="path10216">
			<path fill="#231F20" d="M-329.4,674c3,1.3,4.2,4.5,3.3,10C-326.4,678.4-326.7,676.7-329.4,674"/>
		</g>
		<g id="path10220">
			<path fill="#231F20" d="M-322.1,670c0,0-1,0.8-0.9,2.1c0,0,0.4-0.7,0.9-1.1C-322.1,671-321.8,670-322.1,670"/>
		</g>
		<g id="path10224">
			
				<rect x="-378.9" y="651.1" transform="matrix(0.559 -0.8291 0.8291 0.559 -720.9583 -18.8795)" fill="#231F20" width="1.3" height="34.6"/>
		</g>
		<g id="path10228">
			<path fill="#231F20" d="M-379.8,675.9c-1.7,0-6,0-11.1-0.5l0-0.5c4.1,0.4,7.8,0.5,9.9,0.5c-3.4-0.9-9.8-2.6-9.9-2.6l0.1-0.5
				c0.1,0,9.9,2.7,11.7,3.1l0,0.5C-379.1,675.9-379.3,675.9-379.8,675.9z"/>
		</g>
		<g id="path10232">
			<path fill="#231F20" d="M-380.3,676.2c0,0,5,0.1,7.6-0.1c0,0-4.6-0.7-7.3-1C-380.1,675.1-380.6,676-380.3,676.2"/>
		</g>
		<g id="path10236">
			<path fill="#231F20" d="M-389,691.8c-0.1-0.9,0-3.8,0-4l0.5,0c0,0-0.1,3.1,0,3.9L-389,691.8z"/>
		</g>
		<g id="path10240">
			<path fill="#231F20" d="M-373.5,682.7c0,0,1.9-1.2,2.4-2.8c0,0-1.6,1.3-3.3,2C-374.4,681.9-374.1,682.7-373.5,682.7"/>
		</g>
		<g id="path10244">
			<path fill="#231F20" d="M-358,692.9c-0.2-0.2-4-5.4-5-8.6l0.4-0.2c0,0.1,4.5,5.5,8.6,7.9c0.8-0.1,8.8-1.1,17.8-8.8l0.3,0.4
				c-5,4.3-9.7,6.5-12.7,7.6c-3.3,1.2-5.3,1.4-5.4,1.4l-0.1,0l-0.1,0c-3-1.7-6.3-5.3-7.9-7c1.4,3.1,4.4,7.1,4.4,7.2L-358,692.9z"/>
		</g>
		<g id="path10248">
			<path fill="#231F20" d="M-365.7,693.7c-5.3,0-12.5-0.9-19.2-4.6l0.2-0.4c12.1,6.8,26.3,3.9,26.4,3.9l0.1,0.5
				C-358.1,693.1-361.2,693.7-365.7,693.7z"/>
		</g>
		<g id="path10252">
			<path fill="#231F20" d="M-363,684.9c0,0-0.6-1.6-0.6-2.4c0,0,1.5,1.6,1.9,2.2C-361.8,684.7-362.9,685.2-363,684.9"/>
		</g>
		<g id="path10256">
			<path fill="#231F20" d="M-354.8,696.5l-0.4-0.2c0.8-2.1,1-4.1,1-4.1l0.5,0C-353.8,692.3-353.9,694.4-354.8,696.5z"/>
		</g>
		<g id="path10260">
			<path fill="#231F20" d="M-335.9,683.6c-0.1,0-6.7-2.5-19.5-5.5l0.1-0.5c0.1,0,10.9-0.1,19.1,1.3l-0.1,0.5c-6.1-1-13.5-1.2-17-1.3
				c11.5,2.8,17.5,5,17.6,5L-335.9,683.6z"/>
		</g>
		<g id="path10264">
			<path fill="#231F20" d="M-355.6,674.3l-0.1-0.5c4.7-1.4,10.3-4.8,10.4-4.8l0.2,0.4C-345.1,669.4-350.8,672.9-355.6,674.3z"/>
		</g>
		<g id="path10268">
			<path fill="#231F20" d="M-346.3,667.2c0,0-4.6,3.4-6.2,4.2c0,0,1.8-0.5,6.8-3.4C-345.6,668-345.6,667.3-346.3,667.2"/>
		</g>
		<g id="path10272">
			<path fill="#231F20" d="M-372.2,714.9c1.6-1.5,2.3-3.3,1.7-4.1c-0.7-0.8-2.5-0.2-4.1,1.3c-1.6,1.5-2.3,3.3-1.7,4.1
				C-375.6,717-373.8,716.4-372.2,714.9"/>
		</g>
		<g id="path10276">
			<path fill="#231F20" d="M-375.4,716.8c0,0-0.1,0-0.1,0c-0.4,0-0.7-0.2-0.9-0.4c-0.8-0.9,0-2.8,1.7-4.4c1.2-1.1,2.5-1.7,3.5-1.7
				c0.4,0,0.7,0.2,0.9,0.4c0.8,0.9,0,2.8-1.7,4.4l0,0C-373.2,716.2-374.5,716.8-375.4,716.8z M-371.4,710.8c-0.8,0-2,0.6-3,1.6
				c-1.6,1.5-2.2,3.2-1.7,3.7c0.1,0.2,0.3,0.2,0.6,0.3c0.8,0,2-0.6,3.1-1.6c1.6-1.5,2.2-3.2,1.7-3.7
				C-370.9,710.9-371.1,710.8-371.4,710.8C-371.4,710.8-371.4,710.8-371.4,710.8z"/>
		</g>
		<g id="path10280">
			<path fill="#231F20" d="M-376.1,710.4c-1.3-1.5-3.4-1.7-3.4-1.7l0.1-0.5c0.1,0,2.3,0.3,3.7,1.9L-376.1,710.4z"/>
		</g>
		<g id="path10284">
			<path fill="#231F20" d="M-382.8,713.8c-2.1-2.5-6.6-3.6-6.7-3.6l0.1-0.5c0.2,0,4.8,1.2,6.9,3.7L-382.8,713.8z"/>
		</g>
		<g id="path10288">
			<path fill="#231F20" d="M-390.4,717.8c-4.4-4-13.6-4.3-13.7-4.3l0-0.5c0,0,2.4,0.1,5.2,0.6c2.7,0.5,6.3,1.6,8.7,3.8L-390.4,717.8
				z"/>
		</g>
		<g id="path10292">
			<path fill="#231F20" d="M-397.5,724.5c-7.3-3.5-16-3.2-16.1-3.2l0-0.5c0.1,0,9-0.3,16.3,3.2L-397.5,724.5z"/>
		</g>
		<g id="path10296">
			<path fill="#231F20" d="M-355,715.6c1.4,1.5,3.1,2.2,3.7,1.5c0.6-0.7-0.1-2.4-1.6-3.9c-1.4-1.5-3.1-2.2-3.7-1.5
				C-357.1,712.3-356.4,714.1-355,715.6"/>
		</g>
		<g id="path10300">
			<path fill="#231F20" d="M-352,717.6c-0.9,0-2.1-0.7-3.2-1.8l0,0c-1.5-1.6-2.2-3.5-1.6-4.2c0.2-0.2,0.5-0.3,0.8-0.3
				c0.9,0,2.1,0.7,3.2,1.8c1.6,1.6,2.2,3.5,1.6,4.2C-351.3,717.5-351.6,717.6-352,717.6C-351.9,717.6-352,717.6-352,717.6z
				 M-354.8,715.4c1,1,2.2,1.7,2.9,1.7c0.2,0,0.3-0.1,0.4-0.2c0.4-0.5-0.1-2.1-1.6-3.6c-1-1-2.1-1.7-2.9-1.7c0,0,0,0,0,0
				c-0.2,0-0.3,0.1-0.4,0.2C-356.8,712.3-356.3,713.9-354.8,715.4L-354.8,715.4z"/>
		</g>
		<g id="path10304">
			<path fill="#231F20" d="M-352,710.8l-0.3-0.4c2.6-2.3,5.4-2.7,5.6-2.8l0.1,0.5C-346.7,708.2-349.5,708.7-352,710.8z"/>
		</g>
		<g id="path10308">
			<path fill="#231F20" d="M-344.7,713.4l-0.3-0.4c4.3-3.8,11.4-4.8,11.4-4.9l0.1,0.5C-333.6,708.6-340.6,709.7-344.7,713.4z"/>
		</g>
		<g id="path10312">
			<path fill="#231F20" d="M-333,716.9l-0.3-0.4c6.4-4.9,15.2-5.5,15.3-5.5l0,0.5C-318.1,711.5-326.7,712.1-333,716.9z"/>
		</g>
		<g id="path10316">
			<path fill="#231F20" d="M-324,722.7l-0.3-0.3c6.1-6.7,14.9-6.3,15-6.3l0,0.5C-309.4,716.6-318,716.2-324,722.7z"/>
		</g>
		<g id="path10320">
			<path fill="#231F20" d="M-357.4,692.5c0,0,0,1.1,0,1.6c0,0.5-0.7-0.9-0.8-1.4C-358.2,692.7-357.7,692.4-357.4,692.5"/>
		</g>
		<g id="path10324">
			<path fill="#231F20" d="M-361.7,573.5l-0.2,0c0,0-2.8-0.5-8.3-0.1l-0.2,0l-0.1-0.1c-1.1-2.1-1.2-4.5-0.1-6c0.6-1,2-2.1,4.9-1.8
				c1.7,0.2,2.8,0.7,3.5,1.5c1.2,1.4,0.9,3.7,0.6,5.8L-361.7,573.5z M-366.1,572.7c2.2,0,3.5,0.2,4.1,0.2l0-0.3
				c0.3-2,0.6-4.1-0.5-5.4c-0.6-0.8-1.7-1.2-3.2-1.4c-2.1-0.2-3.6,0.4-4.4,1.6c-0.9,1.4-0.9,3.5,0.1,5.4
				C-368.5,572.8-367.2,572.7-366.1,572.7z"/>
		</g>
		<g id="path10328">
			<path fill="#231F20" d="M-384.5,690.1l-0.5,0c0,0,0-0.5,0-1.1l0-0.2l0.1-0.1c0.1,0,6.1-3,10-5.8c-3,1.3-9.5,3.9-13.8,5.2l-0.1,0
				l-0.1-0.1c-0.1-0.1-2.8-1.7-4.3-4.8l0.4-0.2c1.4,2.7,3.6,4.3,4.1,4.6c5.8-1.7,15.2-5.8,15.3-5.8l0.2,0.4
				c-3.4,2.9-10.2,6.4-11.3,6.9C-384.4,689.6-384.5,690-384.5,690.1z"/>
		</g>
		<g id="path10332">
			<path fill="#FFFFFF" d="M-393.4,668.8c0,0-1.6-1.4-6.9-0.8c0,0-2.9,0.5-4.4-1.4c0,0-1.3-1.4-2-3.5c0,0-1.3-3.9-3.7-3.7
				c0,0-4.5,0.3-3.9,5.8c0,0,0.5,4.6,4.9,6c0,0,0.9,0.2,1.5,0.4c0,0,1.6,0.2,1.3,4.3c0,0,0,2.6-0.8,7.2c0,0-1,5.4-0.4,10.8
				c0,0,0.7,7.7,2.7,11.2c0,0,1.1,2.4,3.6,1.7c0,0,1.1,1.6,2.5,1.4c0,0,1.2,0,2-1.4c0,0,0.5,0.6,1.4,0.6c0,0,2.1,0.3,1.8-7.1
				c0,0-0.1-6.8,0.2-10.7c0,0,0.6-6.2,2-10.1C-391.8,679.6-388.7,671.3-393.4,668.8"/>
		</g>
		<g id="path10336">
			<path fill="#231F20" d="M-399.4,708.4c-1.1,0-2-1-2.3-1.4c-2.6,0.6-3.7-1.8-3.7-1.9c-2-3.5-2.7-11-2.7-11.3
				c-0.6-5.4,0.4-10.8,0.4-10.9c0.8-4.5,0.8-7.1,0.8-7.2c0.3-3.8-1.1-4-1.1-4c-0.7-0.2-1.5-0.4-1.6-0.4c-4.5-1.4-5-6.1-5-6.2
				c-0.2-1.9,0.2-3.4,1.1-4.5c1.2-1.5,3-1.6,3.1-1.6c2.5-0.2,3.9,3.7,4,3.9c0.7,2.1,2,3.4,2,3.4c1.4,1.7,4.1,1.3,4.2,1.3
				c5.1-0.6,6.9,0.6,7.1,0.8c4.7,2.6,1.7,10.7,1.6,11c-1.4,3.8-1.9,10-2,10c-0.3,3.8-0.2,10.6-0.2,10.6c0.2,4.7-0.5,6.4-1.2,7
				c-0.4,0.3-0.7,0.4-0.8,0.3c-0.6,0-1.1-0.2-1.3-0.4c-0.8,1.2-2,1.2-2,1.2C-399.2,708.4-399.3,708.4-399.4,708.4z M-401.5,706.5
				l0.1,0.1c0,0,1,1.4,2.2,1.3c0.1,0,1.1,0,1.8-1.2l0.2-0.3l0.2,0.3c0,0,0.4,0.5,1.2,0.5l0,0l0,0l0,0c0,0,0.2,0,0.5-0.3
				c0.5-0.5,1.3-2,1-6.6c0-0.1-0.1-6.9,0.2-10.7c0-0.1,0.6-6.3,2-10.1c0-0.1,3-8.1-1.4-10.5l0,0c0,0-1.6-1.3-6.7-0.7
				c-0.1,0-3.1,0.5-4.6-1.4c0,0-1.3-1.4-2.1-3.6c0,0-1.3-3.8-3.5-3.6c0,0-1.7,0.1-2.8,1.4c-0.8,1-1.1,2.4-1,4.1c0,0,0.5,4.5,4.7,5.8
				c0,0,0.9,0.2,1.5,0.4c0,0,1.8,0.2,1.5,4.5c0,0,0,2.7-0.8,7.2c0,0.1-1,5.4-0.4,10.8c0,0.1,0.7,7.7,2.7,11.1c0.1,0.1,1,2.2,3.3,1.6
				L-401.5,706.5z"/>
		</g>
		<g id="path10340">
			<path fill="#231F20" d="M-397.3,707c-1.7-2-2.7-5.9-3-11.5c-0.2-3.5,0-6.6,0-7.5c-1.1,0-2.6-0.2-3.2-0.2
				c-1.5,14.3,2.1,18.8,2.1,18.9l-0.4,0.3c-0.2-0.2-3.8-4.8-2.2-19.5l0-0.2l0.2,0c0,0,2.3,0.3,3.6,0.2l0.3,0l0,0.3
				c0,0.1-1.1,14.3,2.8,18.9L-397.3,707z"/>
		</g>
		<g id="path10344">
			<path fill="#231F20" d="M-403.4,687.2c0,0-0.9-0.1-1.9-0.4c0,0,0.2,0.7,1.8,1L-403.4,687.2z"/>
		</g>
		<g id="path10348">
			<path fill="#231F20" d="M-400.3,687.4c0,0,1.6-0.1,2.4-0.2c0,0-0.3,0.8-2.3,0.9C-400.2,688.1-400.5,687.4-400.3,687.4"/>
		</g>
		<g id="path10352">
			<path fill="#231F20" d="M-396.5,670.9c-2.5,2.4-3.2,5.5-2.7,10C-400.5,677.2-400,672.8-396.5,670.9"/>
		</g>
		<g id="path10356">
			<path fill="#231F20" d="M-355.3,678.4l-1.1-0.2l-0.3-0.8l1.7,0L-355.3,678.4L-355.3,678.4z"/>
		</g>
		<g id="path10360">
			<path fill="#231F20" d="M-359.5,620.4c0.8,0,1.5-1.4,1.6-3.2c0.1-1.8-0.5-3.3-1.3-3.3c-0.8,0-1.5,1.4-1.6,3.2
				C-360.9,618.9-360.3,620.3-359.5,620.4"/>
		</g>
		<g id="path10364">
			<path fill="#231F20" d="M-359.5,620.6C-359.5,620.6-359.5,620.6-359.5,620.6L-359.5,620.6c-1,0-1.6-1.6-1.6-3.5
				c0.1-1.4,0.5-2.5,1.1-3.1c0.2-0.2,0.5-0.3,0.8-0.3c0.3,0,0.5,0.1,0.7,0.4c0.5,0.6,0.8,1.8,0.8,3.2
				C-357.7,619.2-358.5,620.6-359.5,620.6z M-359.5,620.2c0.6,0,1.3-1.2,1.4-2.9c0.1-1.2-0.2-2.3-0.6-2.8c-0.1-0.1-0.3-0.2-0.4-0.2
				c-0.1,0-0.3,0.1-0.4,0.2c-0.5,0.5-0.9,1.5-0.9,2.7C-360.6,618.9-360,620.1-359.5,620.2L-359.5,620.2z"/>
		</g>
		<g id="path10368">
			<path fill="#231F20" d="M-369.8,620.4c0.8,0,1.5-1.4,1.6-3.2c0.1-1.8-0.5-3.3-1.3-3.3c-0.8,0-1.5,1.4-1.6,3.2
				C-371.1,618.9-370.6,620.4-369.8,620.4"/>
		</g>
		<g id="path10372">
			<path fill="#231F20" d="M-369.7,620.7C-369.7,620.7-369.8,620.7-369.7,620.7L-369.7,620.7c-0.3,0-0.6-0.1-0.8-0.4
				c-0.5-0.6-0.8-1.8-0.8-3.2c0-0.9,0.2-1.7,0.6-2.4c0.3-0.7,0.8-1.1,1.3-1c0.3,0,0.5,0.1,0.7,0.4c0.5,0.6,0.8,1.8,0.8,3.2
				C-368,619.2-368.8,620.7-369.7,620.7z M-369.5,614.2c-0.3,0-0.6,0.3-0.8,0.8c-0.3,0.6-0.5,1.3-0.5,2.2c-0.1,1.2,0.2,2.3,0.7,2.8
				c0.1,0.1,0.3,0.2,0.4,0.2l0,0c0.6,0,1.3-1.2,1.4-2.9c0.1-1.2-0.2-2.3-0.7-2.8C-369.2,614.3-369.3,614.2-369.5,614.2
				C-369.5,614.2-369.5,614.2-369.5,614.2z"/>
		</g>
	</g>
</g>
</svg>
