<?xml version="1.0" encoding="utf-8"?>
<!-- Generator: Adobe Illustrator 21.0.0, SVG Export Plug-In . SVG Version: 6.00 Build 0)  -->
<!DOCTYPE svg PUBLIC "-//W3C//DTD SVG 1.1//EN" "http://www.w3.org/Graphics/SVG/1.1/DTD/svg11.dtd">
<svg version="1.1" id="Layer_1" xmlns="http://www.w3.org/2000/svg" xmlns:xlink="http://www.w3.org/1999/xlink" x="0px" y="0px"
	 viewBox="0 0 2000 223" enable-background="new 0 0 2000 223" xml:space="preserve">
<g>
	<radialGradient id="SVGID_1_" cx="1000" cy="727.5" r="679" gradientUnits="userSpaceOnUse">
		<stop  offset="0.885" style="stop-color:#ED2A26"/>
		<stop  offset="0.9035" style="stop-color:#E12824"/>
		<stop  offset="0.9371" style="stop-color:#C1221F"/>
		<stop  offset="0.9815" style="stop-color:#8E1917"/>
		<stop  offset="1" style="stop-color:#771513"/>
	</radialGradient>
	<path fill="url(#SVGID_1_)" d="M1000,1406.5c-91.6,0-180.6-18-264.3-53.4c-40.2-17-79.1-38.1-115.4-62.6
		c-35.9-24.3-69.7-52.2-100.4-82.9s-58.6-64.5-82.9-100.4c-24.5-36.3-45.6-75.1-62.6-115.4C339,908.1,321,819.1,321,727.5
		s18-180.6,53.4-264.3c17-40.2,38.1-79.1,62.6-115.4c24.3-35.9,52.2-69.7,82.9-100.4s64.5-58.6,100.4-82.9
		c36.3-24.5,75.1-45.6,115.4-62.6c83.8-35.4,172.7-53.4,264.3-53.4s180.6,18,264.3,53.4c40.2,17,79.1,38.1,115.4,62.6
		c35.9,24.3,69.7,52.2,100.4,82.9s58.6,64.5,82.9,100.4c24.5,36.3,45.6,75.1,62.6,115.4c35.4,83.8,53.4,172.7,53.4,264.3
		s-18,180.6-53.4,264.3c-17,40.2-38.1,79.1-62.6,115.4c-24.3,35.9-52.2,69.7-82.9,100.4c-30.7,30.7-64.5,58.6-100.4,82.9
		c-36.3,24.5-75.1,45.6-115.4,62.6C1180.6,1388.5,1091.6,1406.5,1000,1406.5z M1000,173.3c-74.8,0-147.4,14.6-215.7,43.5
		c-66,27.9-125.3,67.9-176.2,118.8c-50.9,50.9-90.9,110.2-118.8,176.2c-28.9,68.3-43.5,140.9-43.5,215.7
		c0,74.8,14.6,147.4,43.5,215.7c27.9,66,67.9,125.3,118.8,176.2c50.9,50.9,110.2,90.9,176.2,118.8c68.3,28.9,140.9,43.5,215.7,43.5
		c74.8,0,147.4-14.6,215.7-43.5c66-27.9,125.3-67.9,176.2-118.8s90.9-110.2,118.8-176.2c28.9-68.3,43.5-140.9,43.5-215.7
		c0-74.8-14.6-147.4-43.5-215.7c-27.9-66-67.9-125.3-118.8-176.2c-50.9-50.9-110.2-90.9-176.2-118.8
		C1147.4,187.9,1074.8,173.3,1000,173.3z"/>
</g>
<g>
	<radialGradient id="SVGID_2_" cx="1000" cy="727.5" r="563" gradientUnits="userSpaceOnUse">
		<stop  offset="0.885" style="stop-color:#ED2A26"/>
		<stop  offset="0.9035" style="stop-color:#E12824"/>
		<stop  offset="0.9371" style="stop-color:#C1221F"/>
		<stop  offset="0.9815" style="stop-color:#8E1917"/>
		<stop  offset="1" style="stop-color:#771513"/>
	</radialGradient>
	<path fill="url(#SVGID_2_)" d="M1000,1290.5c-76,0-149.7-14.9-219.2-44.3c-33.4-14.1-65.6-31.6-95.7-51.9
		c-29.8-20.1-57.8-43.3-83.3-68.7s-48.6-53.5-68.7-83.3c-20.3-30.1-37.8-62.3-51.9-95.7C451.9,877.2,437,803.5,437,727.5
		s14.9-149.7,44.3-219.2c14.1-33.4,31.6-65.6,51.9-95.7c20.1-29.8,43.3-57.8,68.7-83.3s53.5-48.6,83.3-68.7
		c30.1-20.3,62.3-37.8,95.7-51.9c69.4-29.4,143.2-44.3,219.2-44.3s149.7,14.9,219.2,44.3c33.4,14.1,65.6,31.6,95.7,51.9
		c29.8,20.1,57.8,43.3,83.3,68.7s48.6,53.5,68.7,83.3c20.3,30.1,37.8,62.3,51.9,95.7c29.4,69.4,44.3,143.2,44.3,219.2
		s-14.9,149.7-44.3,219.2c-14.1,33.4-31.6,65.6-51.9,95.7c-20.1,29.8-43.3,57.8-68.7,83.3c-25.5,25.5-53.5,48.6-83.3,68.7
		c-30.1,20.3-62.3,37.8-95.7,51.9C1149.7,1275.6,1076,1290.5,1000,1290.5z M1000,268c-62.1,0-122.2,12.1-178.9,36.1
		c-54.7,23.1-103.9,56.3-146.1,98.5c-42.2,42.2-75.4,91.4-98.5,146.1c-23.9,56.6-36.1,116.8-36.1,178.9
		c0,62.1,12.1,122.2,36.1,178.9c23.1,54.7,56.3,103.9,98.5,146.1c42.2,42.2,91.4,75.4,146.1,98.5c56.6,23.9,116.8,36.1,178.9,36.1
		c62.1,0,122.2-12.1,178.9-36.1c54.7-23.1,103.9-56.3,146.1-98.5c42.2-42.2,75.4-91.4,98.5-146.1c23.9-56.6,36.1-116.8,36.1-178.9
		c0-62.1-12.1-122.2-36.1-178.9c-23.1-54.7-56.3-103.9-98.5-146.1c-42.2-42.2-91.4-75.4-146.1-98.5
		C1122.2,280.1,1062.1,268,1000,268z"/>
</g>
<g>
	<radialGradient id="SVGID_3_" cx="1000" cy="727.5" r="827.7943" gradientUnits="userSpaceOnUse">
		<stop  offset="0.885" style="stop-color:#ED2A26"/>
		<stop  offset="0.9035" style="stop-color:#E12824"/>
		<stop  offset="0.9371" style="stop-color:#C1221F"/>
		<stop  offset="0.9815" style="stop-color:#8E1917"/>
		<stop  offset="1" style="stop-color:#771513"/>
	</radialGradient>
	<path fill="url(#SVGID_3_)" d="M1000,1555.3c-111.7,0-220.1-21.9-322.2-65.1c-49.1-20.8-96.4-46.4-140.6-76.3
		c-43.8-29.6-85-63.6-122.5-101s-71.4-78.6-101-122.5c-29.9-44.3-55.6-91.6-76.3-140.6c-43.2-102.1-65.1-210.5-65.1-322.2
		s21.9-220.1,65.1-322.2c20.8-49.1,46.4-96.4,76.3-140.6c29.6-43.8,63.6-85,101-122.5s78.6-71.4,122.5-101
		c44.3-29.9,91.6-55.6,140.6-76.3c102.1-43.2,210.5-65.1,322.2-65.1s220.1,21.9,322.2,65.1c49.1,20.8,96.4,46.4,140.6,76.3
		c43.8,29.6,85,63.6,122.5,101s71.4,78.6,101,122.5c29.9,44.3,55.6,91.6,76.3,140.6c43.2,102.1,65.1,210.5,65.1,322.2
		s-21.9,220.1-65.1,322.2c-20.8,49.1-46.4,96.4-76.3,140.6c-29.6,43.8-63.6,85-101,122.5c-37.4,37.4-78.6,71.4-122.5,101
		c-44.3,29.9-91.6,55.6-140.6,76.3C1220.1,1533.4,1111.7,1555.3,1000,1555.3z M1000,51.8c-91.2,0-179.7,17.9-263,53.1
		c-80.5,34-152.7,82.8-214.8,144.8c-62.1,62.1-110.8,134.3-144.8,214.8c-35.2,83.3-53.1,171.7-53.1,263c0,91.2,17.9,179.7,53.1,263
		c34,80.5,82.8,152.7,144.8,214.8c62.1,62.1,134.3,110.8,214.8,144.8c83.3,35.2,171.7,53.1,263,53.1c91.2,0,179.7-17.9,263-53.1
		c80.5-34,152.7-82.8,214.8-144.8c62.1-62.1,110.8-134.3,144.8-214.8c35.2-83.3,53.1-171.7,53.1-263c0-91.2-17.9-179.7-53.1-263
		c-34-80.5-82.8-152.7-144.8-214.8c-62.1-62.1-134.3-110.8-214.8-144.8C1179.7,69.7,1091.2,51.8,1000,51.8z"/>
</g>
<g>
	<radialGradient id="SVGID_4_" cx="1000" cy="727.5" r="999" gradientUnits="userSpaceOnUse">
		<stop  offset="0.885" style="stop-color:#ED2A26"/>
		<stop  offset="0.9035" style="stop-color:#E12824"/>
		<stop  offset="0.9371" style="stop-color:#C1221F"/>
		<stop  offset="0.9815" style="stop-color:#8E1917"/>
		<stop  offset="1" style="stop-color:#771513"/>
	</radialGradient>
	<path fill="url(#SVGID_4_)" d="M1000,1726.5c-134.8,0-265.7-26.4-388.9-78.5c-59.2-25-116.3-56-169.7-92.1
		c-52.9-35.7-102.6-76.7-147.8-121.9c-45.2-45.2-86.2-94.9-121.9-147.8c-36.1-53.4-67.1-110.5-92.1-169.7
		C27.4,993.2,1,862.3,1,727.5s26.4-265.7,78.5-388.9c25-59.2,56-116.3,92.1-169.7C207.4,116,248.4,66.3,293.6,21.1
		s94.9-86.2,147.8-121.9c53.4-36.1,110.5-67.1,169.7-92.1c123.2-52.1,254.1-78.5,388.9-78.5s265.7,26.4,388.9,78.5
		c59.2,25,116.3,56,169.7,92.1c52.9,35.7,102.6,76.7,147.8,121.9c45.2,45.2,86.2,94.9,121.9,147.8c36.1,53.4,67.1,110.5,92.1,169.7
		c52.1,123.2,78.5,254.1,78.5,388.9s-26.4,265.7-78.5,388.9c-25,59.2-56,116.3-92.1,169.7c-35.7,52.9-76.7,102.6-121.9,147.8
		c-45.2,45.2-94.9,86.2-147.8,121.9c-53.4,36.1-110.5,67.1-169.7,92.1C1265.7,1700.1,1134.8,1726.5,1000,1726.5z M1000-87.9
		c-110.1,0-216.9,21.5-317.4,64C585.5,17.2,498.3,76,423.4,150.9C348.5,225.8,289.7,313,248.6,410.1c-42.5,100.5-64,207.3-64,317.4
		c0,110.1,21.5,216.9,64,317.4c41.1,97.1,99.9,184.3,174.8,259.2c74.9,74.9,162.1,133.7,259.2,174.8c100.5,42.5,207.3,64,317.4,64
		c110.1,0,216.9-21.5,317.4-64c97.1-41.1,184.3-99.9,259.2-174.8c74.9-74.9,133.7-162.1,174.8-259.2c42.5-100.5,64-207.3,64-317.4
		c0-110.1-21.5-216.9-64-317.4c-41.1-97.1-99.9-184.3-174.8-259.2C1501.7,76,1414.5,17.2,1317.4-23.9
		C1216.9-66.4,1110.1-87.9,1000-87.9z"/>
</g>
<g>
	<radialGradient id="SVGID_5_" cx="1000" cy="727.5" r="1219" gradientUnits="userSpaceOnUse">
		<stop  offset="0.885" style="stop-color:#ED2A26"/>
		<stop  offset="0.9035" style="stop-color:#E12824"/>
		<stop  offset="0.9371" style="stop-color:#C1221F"/>
		<stop  offset="0.9815" style="stop-color:#8E1917"/>
		<stop  offset="1" style="stop-color:#771513"/>
	</radialGradient>
	<path fill="url(#SVGID_5_)" d="M1000,1946.5c-164.5,0-324.2-32.2-474.5-95.8c-72.3-30.6-141.9-68.4-207.1-112.4
		c-64.5-43.6-125.2-93.6-180.3-148.8S32.8,1473.7-10.7,1409.1c-44-65.2-81.9-134.9-112.4-207.1c-63.6-150.4-95.8-310-95.8-474.5
		s32.2-324.2,95.8-474.5C-92.6,180.7-54.8,111-10.7,45.9C32.8-18.7,82.9-79.3,138-134.5s115.8-105.2,180.3-148.8
		c65.2-44,134.9-81.9,207.1-112.4c150.4-63.6,310-95.8,474.5-95.8s324.2,32.2,474.5,95.8c72.3,30.6,141.9,68.4,207.1,112.4
		c64.5,43.6,125.2,93.6,180.3,148.8s105.2,115.8,148.8,180.3c44,65.2,81.9,134.9,112.4,207.1c63.6,150.4,95.8,310,95.8,474.5
		s-32.2,324.2-95.8,474.5c-30.6,72.3-68.4,141.9-112.4,207.1c-43.6,64.5-93.6,125.2-148.8,180.3c-55.1,55.1-115.8,105.2-180.3,148.8
		c-65.2,44-134.9,81.9-207.1,112.4C1324.2,1914.3,1164.5,1946.5,1000,1946.5z M1000-267.5c-134.4,0-264.7,26.3-387.3,78.1
		C494.3-139.2,387.8-67.5,296.4,23.9C205,115.3,133.3,221.8,83.1,340.2C31.3,462.8,5,593.1,5,727.5c0,134.4,26.3,264.7,78.1,387.3
		c50.1,118.5,121.9,224.9,213.3,316.3c91.4,91.4,197.8,163.2,316.3,213.3c122.6,51.9,252.9,78.1,387.3,78.1
		c134.4,0,264.7-26.3,387.3-78.1c118.5-50.1,224.9-121.9,316.3-213.3s163.2-197.8,213.3-316.3c51.9-122.6,78.1-252.9,78.1-387.3
		c0-134.4-26.3-264.7-78.1-387.3c-50.1-118.5-121.9-224.9-213.3-316.3c-91.4-91.4-197.8-163.2-316.3-213.3
		C1264.7-241.2,1134.4-267.5,1000-267.5z"/>
</g>
<g>
	<radialGradient id="SVGID_6_" cx="1000" cy="727.5" r="1481" gradientUnits="userSpaceOnUse">
		<stop  offset="0.885" style="stop-color:#ED2A26"/>
		<stop  offset="0.9035" style="stop-color:#E12824"/>
		<stop  offset="0.9371" style="stop-color:#C1221F"/>
		<stop  offset="0.9815" style="stop-color:#8E1917"/>
		<stop  offset="1" style="stop-color:#771513"/>
	</radialGradient>
	<path fill="url(#SVGID_6_)" d="M1000,2208.5c-199.9,0-393.8-39.2-576.5-116.4c-87.8-37.1-172.4-83.1-251.6-136.6
		c-78.4-53-152.1-113.8-219.1-180.8c-67-67-127.8-140.7-180.8-219.1c-53.5-79.2-99.4-163.8-136.6-251.6
		C-441.8,1121.3-481,927.4-481,727.5s39.2-393.8,116.4-576.5c37.1-87.8,83.1-172.4,136.6-251.6c53-78.4,113.8-152.1,180.8-219.1
		S93.5-447.5,171.9-500.5C251-554,335.7-599.9,423.5-637.1c182.7-77.3,376.6-116.4,576.5-116.4s393.8,39.2,576.5,116.4
		c87.8,37.1,172.4,83.1,251.6,136.6c78.4,53,152.1,113.8,219.1,180.8c67,67,127.8,140.7,180.8,219.1
		c53.5,79.2,99.4,163.8,136.6,251.6c77.3,182.7,116.4,376.6,116.4,576.5s-39.2,393.8-116.4,576.5c-37.1,87.8-83.1,172.4-136.6,251.6
		c-53,78.4-113.8,152.1-180.8,219.1c-67,67-140.7,127.8-219.1,180.8c-79.2,53.5-163.8,99.4-251.6,136.6
		C1393.8,2169.3,1199.9,2208.5,1000,2208.5z M1000-481.4c-163.3,0-321.6,31.9-470.5,94.9c-143.9,60.9-273.2,148.1-384.3,259.1
		C34.1-16.2-53,113.1-113.9,257c-63,148.9-94.9,307.2-94.9,470.5c0,163.3,31.9,321.6,94.9,470.5c60.9,143.9,148.1,273.2,259.1,384.3
		c111.1,111.1,240.4,198.2,384.3,259.1c148.9,63,307.2,94.9,470.5,94.9c163.3,0,321.6-31.9,470.5-94.9
		c143.9-60.9,273.2-148.1,384.3-259.1s198.2-240.4,259.1-384.3c63-148.9,94.9-307.2,94.9-470.5c0-163.3-31.9-321.6-94.9-470.5
		c-60.9-143.9-148.1-273.2-259.1-384.3c-111.1-111.1-240.4-198.2-384.3-259.1C1321.6-449.4,1163.3-481.4,1000-481.4z"/>
</g>
</svg>
