<?xml version="1.0" encoding="utf-8"?>
<!-- Generator: Adobe Illustrator 21.0.0, SVG Export Plug-In . SVG Version: 6.00 Build 0)  -->
<!DOCTYPE svg PUBLIC "-//W3C//DTD SVG 1.1//EN" "http://www.w3.org/Graphics/SVG/1.1/DTD/svg11.dtd">
<svg version="1.1" id="Layer_1" xmlns="http://www.w3.org/2000/svg" xmlns:xlink="http://www.w3.org/1999/xlink" x="0px" y="0px"
	 viewBox="0 0 380.5 510.5" enable-background="new 0 0 380.5 510.5" xml:space="preserve">
<path fill="#FFFFFF" d="M131.4,102.9v254.6c0,12.9-12.3,22.3-24.8,19c-13-3.5-27.4-4-42.1-0.8C21.7,385.1-6.6,422.3,1.3,459
	c8,36.6,49.2,58.8,92.1,49.4c40.2-8.7,67.5-42,64.3-76.2V184.4l198.5-77.4v187.7c0,13-12.5,22.6-25,18.9c-13.6-4-28.8-4.8-44.3-1.4
	c-42.9,9.3-71.2,46.6-63.2,83.2c8,36.6,49.2,58.8,92.1,49.4c36.3-7.9,62.1-35.8,64.4-66.3h0.2V0L131.4,102.9z"/>
</svg>
