<?xml version="1.0" encoding="utf-8"?>
<!-- Generator: Adobe Illustrator 21.0.0, SVG Export Plug-In . SVG Version: 6.00 Build 0)  -->
<!DOCTYPE svg PUBLIC "-//W3C//DTD SVG 1.1//EN" "http://www.w3.org/Graphics/SVG/1.1/DTD/svg11.dtd">
<svg version="1.1" id="Layer_1" xmlns="http://www.w3.org/2000/svg" xmlns:xlink="http://www.w3.org/1999/xlink" x="0px" y="0px"
	 viewBox="0 0 275.3 207" enable-background="new 0 0 275.3 207" xml:space="preserve">
<path fill="#ED2724" d="M275.3,89.7L137.9,0v46.9c-9,1.8-17.9,4.1-26.7,6.9c-10,3.3-19.7,7.4-29,12.2C73,70.7,64.2,76.3,56.1,82.6
	C48,88.9,40.6,95.9,34,103.4c-13.2,15-22.9,32.2-28.5,50.2c-2.8,8.9-4.6,18.1-5.2,27.1c-0.6,9-0.1,18,1.7,26.4
	c1.9-8.4,5-16.2,8.9-23.4c4-7.2,8.7-13.7,14-19.5c10.5-11.7,23.2-20.4,36.5-26.2c6.6-2.9,13.4-5.1,20.2-6.6
	c6.8-1.5,13.7-2.2,20.5-2.4c6.8-0.2,13.5,0.2,20.2,1.1c5.3,0.8,10.6,1.8,15.8,3.1v46.2L275.3,89.7z"/>
</svg>
