<?xml version="1.0" encoding="utf-8"?>
<!-- Generator: Adobe Illustrator 21.0.0, SVG Export Plug-In . SVG Version: 6.00 Build 0)  -->
<!DOCTYPE svg PUBLIC "-//W3C//DTD SVG 1.1//EN" "http://www.w3.org/Graphics/SVG/1.1/DTD/svg11.dtd">
<svg version="1.1" id="Layer_1" xmlns="http://www.w3.org/2000/svg" xmlns:xlink="http://www.w3.org/1999/xlink" x="0px" y="0px"
	 viewBox="0 0 423.4 424.8" enable-background="new 0 0 423.4 424.8" xml:space="preserve">
<g>
	<path fill="#FFFFFF" d="M340,258c-32.4,0-60.6,18.5-74.3,45.6l-148.2-51.2c0.4-2.6,0.6-5.3,0.6-8c0-5.5-0.8-10.9-2.2-15.9
		l144.1-73.2c10.4,13,26.4,21.3,44.2,21.3c31.2,0,56.7-25.4,56.7-56.7s-25.4-56.7-56.7-56.7s-56.7,25.4-56.7,56.7
		c0,5.1,0.7,10.1,2,14.9L105.4,208c-8.5-10.9-20.8-18.6-34.9-21.4V76.4c16-4.9,27.6-19.8,27.6-37.4C98.1,17.5,80.5,0,59,0
		S19.9,17.5,19.9,39.1c0,17.5,11.6,32.4,27.6,37.4v110.1C20.4,191.9,0,215.8,0,244.4c0,32.6,26.4,59,59,59
		c21.7,0,40.7-11.8,50.9-29.2l148.2,51.2c-1,5.2-1.6,10.6-1.6,16.1c0,46.1,37.3,83.4,83.4,83.4s83.4-37.3,83.4-83.4
		C423.4,295.3,386.1,258,340,258z M59,280.4c-19.9,0-36-16.1-36-36c0-19.9,16.1-36,36-36c19.9,0,36,16.1,36,36
		C95,264.3,78.9,280.4,59,280.4z"/>
</g>
</svg>
