<?xml version="1.0" encoding="utf-8"?>
<!-- Generator: Adobe Illustrator 21.0.0, SVG Export Plug-In . SVG Version: 6.00 Build 0)  -->
<!DOCTYPE svg PUBLIC "-//W3C//DTD SVG 1.1//EN" "http://www.w3.org/Graphics/SVG/1.1/DTD/svg11.dtd">
<svg version="1.1"
	 id="Layer_2" inkscape:version="0.47 r22583" sodipodi:docname="Sylvester_the_Cat.svg" xmlns:cc="http://creativecommons.org/ns#" xmlns:dc="http://purl.org/dc/elements/1.1/" xmlns:inkscape="http://www.inkscape.org/namespaces/inkscape" xmlns:rdf="http://www.w3.org/1999/02/22-rdf-syntax-ns#" xmlns:sodipodi="http://sodipodi.sourceforge.net/DTD/sodipodi-0.dtd" xmlns:svg="http://www.w3.org/2000/svg"
	 xmlns="http://www.w3.org/2000/svg" xmlns:xlink="http://www.w3.org/1999/xlink" x="0px" y="0px" viewBox="0 0 788.8 305"
	 enable-background="new 0 0 788.8 305" xml:space="preserve">
<linearGradient id="SVGID_1_" gradientUnits="userSpaceOnUse" x1="-227.071" y1="143.2909" x2="806.5081" y2="143.2909">
	<stop  offset="0" style="stop-color:#FFFFFF"/>
	<stop  offset="1" style="stop-color:#844FBE"/>
</linearGradient>
<rect x="-227.1" y="-31.2" fill="url(#SVGID_1_)" width="1033.6" height="349.1"/>
<defs>
	
	
		<inkscape:perspective  id="perspective204" inkscape:persp3d-origin="164.54401 : 209.61001 : 1" inkscape:vp_x="0 : 314.41501 : 1" inkscape:vp_y="0 : 1000 : 0" inkscape:vp_z="329.08801 : 314.41501 : 1" sodipodi:type="inkscape:persp3d">
		</inkscape:perspective>
</defs>
<sodipodi:namedview  bordercolor="#666666" borderopacity="1" gridtolerance="10" guidetolerance="10" id="namedview198" inkscape:current-layer="Layer_2" inkscape:cx="164.544" inkscape:cy="314.41501" inkscape:pageopacity="0" inkscape:pageshadow="2" inkscape:window-height="714" inkscape:window-maximized="1" inkscape:window-width="1280" inkscape:window-x="-4" inkscape:window-y="-4" inkscape:zoom="0.37530015" objecttolerance="10" pagecolor="#ffffff" showgrid="false">
	</sodipodi:namedview>
<g id="XMLID_1_" transform="matrix(0.52292351,0,0,0.52292351,-1.8758097e-6,0)">
	<g id="g4">
		<path id="path6" fill="#FFFFFF" d="M1094.3,798.2c2.2,1.7,1,4.5-0.5,4.9l0,0c-12.4,4.5-25.4,7.4-34.5,8.1
			c-19.9,1.7-65.3,4.2-75.9,3.4c-10.6-0.8-31,2.5-38.2,2.5c7.6-7.6,12.7-12.7,66.2-22.1c17.7-3.1,30.1-6.4,39.3-9.9l0,0
			c9.9-0.8,19.2-1.9,20.7-1.6c1.4,0.3,1.8,2.5-1.9,5.7c-3.8,3.3-4.5,3.3-6,4.6c3.7-0.5,18.5-4.3,23.2-5.2c4.8-1,7.6,1,3,4
			c-4.6,3-15.9,7.2-18.3,8.3C1077.8,799.8,1092.1,796.5,1094.3,798.2L1094.3,798.2z"/>
		<path id="path8" fill="#FFFFFF" d="M935.1,64c-2.5,3.8-8.6,14.6-12.1,11.5l-0.1,0.1c-2.9-4.7-4-9.8-4-14.1
			c0-4.7,7.3-26.3,19.3-38.9l0.1,0.1c1.3,4.1-0.6,32.1-1.6,36.3c2.4-0.2,5.1,0.9,7.2,2.4c1.5,1,2.6,2.3,3,3.3
			C941.5,62.4,937.6,60.1,935.1,64z"/>
		<path id="path10" fill="#FFFFFF" d="M959.6,144.4c-2.6-1.7-5.4-3.2-8.4-4.4l0.1-0.3c10.5-5.4,10.2-13.7,9.2-16.9
			c-1-3.4-3.2-4.1-7.3-3.2c4.1-10.8,9.2-21,15.6-27.4c5.1-5.1,11.7-8.6,13-4.1c2.5,8.6,0.3,20-4.1,29.6c-3.8,8.1-7.3,16.1-14.6,21.7
			l0.6,0.7C961.8,141.7,960.3,143.1,959.6,144.4z"/>
		<path id="path12" fill="#FFFFFF" d="M936.9,136.4c-4.2-0.6-8.3-0.9-12.1-0.8v-0.2c-1.2-2-2.5-3.9-3.8-5.8
			c-2.2-6.8-0.6-23.5,0.4-30.4c1-7,3.8-14.6,10.5-20.4c5.8-5,9.5-1.6,10.8,2.2c1.3,3.8,1.7,25.9,0,33.4c-2.5-0.6-6.6-0.1-8.6,3.8
			c-1.9,3.8-2.9,10.4,2.8,17.8C937,136.2,936.9,136.4,936.9,136.4z"/>
		<path id="path14" fill="#C90409" d="M959.6,144.4c10.6,6.9,17,17.1,14.6,26.1c-3.6,13.7-23.2,21.6-44,16.1
			c-20.8-5.5-34-22.5-30.2-36.1c3-10.6,12.5-14.6,24.8-14.9c3.8-0.1,7.8,0.2,12.1,0.8c1,0.1,1.9,0.3,2.9,0.4c4,0.6,7.8,1.7,11.3,3.2
			C954.2,141.3,957,142.7,959.6,144.4z"/>
		<path id="path16" fill="#FFFFFF" d="M769.8,722.3c-0.8-6.8-1.1-21.9,11.5-30.8l-0.1-0.2c0.3-4.3,8-16.5,23.4-16.7
			c14.8-0.2,30.9,11.7,37.7,12.7c6.6,1,12.2,0.2,11.3-3.7c4.5,0.1,4.1,3.7,7,5.6c2.9,1.9,1.3-3.8,2.2-5.7c1-1.9,5.1,5.4,8.3,7.3
			c3.2,1.9,6.4,2.9,5.1,0.3s-1.9-2.9-3.2-7c-1.3-4.4,0.5-3.2,4.1,0c9.2,8.3,18.1,9.2,29,11.5h0c0,1.6-0.1,3.1-0.1,4.5
			c-0.1,3.9,0,6.8,0.1,8.3c0.5,7,0.6,11.3,3.7,15.8l-0.2,0.2c-13.1,13.2-52.1,31.1-82.7,30.5c-21.8-0.4-29.1-6.8-32.3-10.6l-0.1-0.4
			c1.6-0.6,3.3-1,4.9-1.2c0-5.1-3.7-10.2-7.2-8.9c-1.2,0.4-2.5,1.2-3.7,2.3c-1.2,1-2.5,2.4-3.6,3.9l-0.5-0.3
			c-5.2-3.1-7.2-5.3-10.4-9.2l0-0.1c1.2-0.5,2.4-0.9,3.5-0.9c-0.8-5.4-2.9-8.4-5.9-8.8C771.1,721.2,770.5,721.8,769.8,722.3
			L769.8,722.3L769.8,722.3z"/>
		<path id="path18" d="M1002.9,630.4l0.6,3.8c-1,0-1.8,1-2.2,2c-0.6,1.6-5.7,17.5-11.5,22.3c-4.5,3.7-20.7,20.5-26.4,28.6l-0.1-0.1
			c-0.2-2.1-1.1-5.1-4.6-2.7c-3.5,2.4-12.2,9.2-14.3,10.3c1.3-5.1,1-7.9-1.3-5.1c-3,3.7-14.2,10.8-27.4,13.7c-4.5,1-1.6-2.1,0-4.3
			c2.1-2.9,5.4-10.2,1.3-7.3c-4.1,2.9-8.7,6.8-10.8,8.6h-0.1c0-1.4,0.1-2.9,0.1-4.5c0-0.5,0-1.1,0-1.6c0.3-15.8,1.2-40.2,1.8-55.7
			c0.2-7,0.4-12.2,0.4-14c0-7.3-2.2-12.4-8.6-16.5c38.2-11.1,50-58.9,48.7-69.5v-0.4c11.9,0.1,24.8-11.7,28-12.5
			c-2.5,4.2-5.1,6.1-8.1,9.5c4,0.2,11.5-3.4,16.5-5.9c0.6,0-2.8,3.6-6.8,6.4c1.3,2.3,6.1,6.1,13.8,6.2c2.6,0,4.9-0.3,7-0.9l2.7,1.9
			C1005.1,556.5,1005.4,619.5,1002.9,630.4L1002.9,630.4z"/>
		<path id="path20" d="M975.8,442.3c3.9,8.8,6.7,2.2,6.7-0.6s1.3-38.8-3.8-52.8s-24.2-42.7-32.8-48c-2.5-1.6-2.5-1-2.2,4.8
			C944.3,358.9,969.8,428.6,975.8,442.3z M914.7,299.7c6.7-31.8,20.7-75.7,52.5-86.9c1.4-0.5,2.8-0.9,4.2-1.2c0.3,0.5,0.6,0.9,1,1.4
			c-2.4,0.6-4.8,1.6-7.7,3c-9.9,4.8-29.3,32.8-29.6,48.7c3.5-5.1,8-8,12.7-8.3c6-0.3,15,2.9,22.9,13.4c8,10.5,39.2,61.9,49,101.5
			c8.9,36,4.6,92.2-3.6,102.2c0.1,0.1,0.1,0.3,0.2,0.4l-0.2,0.1c-6.7-1.9-8.7-14.6-8.9-16.5c-0.2-1.3-3.2-4.1-3.3-2.9
			c-0.4,3,0.3,8.8,0.5,11.6c-1.8,0-4.5-6.7-5.9-9.4c-1.4-2.7-2.1-1.3-2.5-1.3s-1.3,5.4-1.6,10.5c-7.3-2.7-7-16.7-8.4-16.5
			c-1.4,0.2-4.5,15.3-4.8,12.2c-0.3-3,0.2-9.2,0.2-11s-5.7-5.2-10.2-5.2c-4.5,0-9.5,4-16.2,10.2c-6.7,6.2-7.5,13.2-6.8,16.9
			c0.6,3.7,9.5,9.7,17.2,13.5h0c-0.3,1.7-0.7,3.4-1.2,4.8c0.8-3-3-7.6-12.3-7.6c-2.5,0-5.4,0.6-8.1,2l0-0.1
			c-1.3-5.6-23.7-73.5-25.9-89.4C915.4,379.9,908,331.6,914.7,299.7L914.7,299.7z"/>
		<path id="path22" d="M894.4,105c8.3,3.8,15-7.3,21.3-14.6c-0.3,3.8,1.6,1,3.5-1c1.9-1.9,5.7-11.1,5.7-11.1c-0.8-0.9-1.4-1.8-2-2.8
			l0.1-0.1c3.5,3.2,9.5-7.6,12.1-11.5s6.4-1.6,11.8,0.6c-0.4-1.1-1.5-2.3-3-3.3l2.6-0.4c0.6,0.4,0.9,0.3,2-1.3
			c3.2-4.5,19.7-18.5,22-20.4c-2.2,3.2-16.5,23.2-14,21.6s12.6-7.5,21.3-10.8c2.1-0.8,4.4-1.6,6.8-2.3c2.2-0.7,4.6-1.3,6.9-1.9
			c2.2-0.5,4.5-1,6.7-1.5c0.1,1,0.1,1.9,0.2,2.9c-3,0.6-5.9,1.2-8.6,1.9c-3.1,0.8-6,1.6-8.6,2.5v0c-8.3,2.9-13.3,6.4-11,10.7
			c0.8,0,1.7-0.1,2.5-0.1c3.3-0.1,7.1-0.3,11-0.4c5.1-0.1,10.4-0.2,14.5,0.2c0,0.5,0,1-0.1,1.5c-4.8,0-10.8-0.1-15.5,0
			c-4.7,0.1-8.1,0.3-7.4,1.1c1.5,1.5,2.4,3.8,1.8,5.6c-0.2,0.5-0.4,1-0.9,1.4c-1.9,1.9-0.6,5.4,1,3.2c2.5-3.5,3.8-6,6.4-5.1
			s4.5,4.1,4.8,8.6c0.3,4.5,0.3,15.6,5.1,7l0.2,0.1c-1.4,2.8-2.9,5.4-3.7,7.5c-1.6,4.5-3.8,14-4.1,17.5c1,0,1.3-0.3,3.2-4.8
			c-0.6,4.5,2.5,21.7,4.8,21.3c-9.2,1.5-22.9,7.6-29.9,13.2l-0.6-0.7c7.3-5.6,10.9-13.6,14.6-21.7c4.5-9.5,6.7-21,4.1-29.6
			c-1.3-4.4-8-0.9-13,4.1c-6.4,6.4-11.5,16.5-15.6,27.4c4.1-1,6.3-0.2,7.3,3.2c1,3.2,1.3,11.5-9.2,16.9l-0.1,0.3
			c-3.5-1.5-7.4-2.6-11.3-3.2c-1-0.2-2-0.3-2.9-0.4l0-0.2c-5.7-7.4-4.7-14-2.8-17.8c2-4,6-4.5,8.6-3.8c1.7-7.5,1.3-29.6,0-33.4
			c-1.3-3.8-5-7.2-10.8-2.2c-6.7,5.7-9.5,13.4-10.5,20.4c-0.9,6.9-2.5,23.6-0.4,30.4c-10.1-14-23.1-23-29.2-25.7l0-0.1
			C892.7,104.2,893.5,104.6,894.4,105z"/>
		<path id="path24" fill="#FFFFFF" d="M771.7,720.7c3,0.3,5.1,3.3,5.9,8.8c-1.2,0-2.4,0.3-3.5,0.9c-4.2,1.9-8.1,6.5-9.4,9
			c-0.5-8.7,2-13.7,5.2-17C770.5,721.8,771.1,721.2,771.7,720.7L771.7,720.7z"/>
		<path id="path26" d="M972.6,62.3c1.6-1.5,5.5-6.2,8.5-10.4l-0.1-0.2v0c2.6-0.9,5.5-1.7,8.6-2.5l0.1,0.4c-1.7,4.1-3.8,8.5-6.2,12.3
			v0C979.7,62,975.9,62.2,972.6,62.3L972.6,62.3L972.6,62.3z"/>
		<path id="path28" fill="#FFFFFF" d="M1032.9,744.1c-1.9-0.4-3.5-1-3.4-2.8c0.2-2.4,2.7-7.9,4.8-7.3c1,0.4,3,1.1,5.1,3.1
			c2.6,2.5,5.2,7,5.8,15.2c-3.8-4.2-7.7-7.5-10.2-7.9C1034.3,744.3,1033.6,744.2,1032.9,744.1z"/>
		<path id="path30" fill="#FFFFFF" d="M1014.3,746.8c1.7,1.5,3.2,3.6,4.4,6.1h0c1.5,3.1,2.5,6.8,2.3,10.7c-5.4-4.9-8.3-8.9-13.9-8.5
			c-0.8,0.1-1.6,0.2-2.5,0.4c-0.8-3.3,0.4-11.1,5.5-11.3C1011.6,744.6,1013,745.5,1014.3,746.8L1014.3,746.8z"/>
		<path id="path32" fill="#FFFFFF" d="M788.5,736c1.2-1.1,2.5-1.8,3.7-2.3c3.5-1.3,7.2,3.8,7.2,8.9c-1.6,0.2-3.3,0.6-4.9,1.2
			c-5.6,2-10.9,6-14.3,9.4c0.3-5.2,2.3-9.9,4.8-13.4C786.1,738.4,787.3,737.1,788.5,736z"/>
		<path id="path34" fill="#FFFFFF" d="M1042.4,720.7c-0.1,6.4-1.2,12.3-2.7,16l-0.3,0.3c-2-1.9-4-2.7-5.1-3.1
			c-2-0.5-4.6,4.9-4.8,7.3c-0.2,1.8,1.5,2.4,3.4,2.8c-1.9,3.9-5.8,9.7-14.1,8.8h0c-1.2-2.4-2.8-4.5-4.4-6.1
			c-1.4-1.3-2.8-2.2-4.1-2.6c-5.1,0.2-6.3,8.1-5.5,11.3c0.9-0.2,1.7-0.4,2.5-0.4c-12.1,12.1-31.5,10.8-48.9,3.2
			c-20.6-9-38.8-23.9-45.2-30.2c-1.4-1.4-2.4-2.6-3.3-3.9c-3.1-4.6-3.2-8.8-3.7-15.8c-0.1-1.4-0.1-4.3-0.1-8.3h0.1
			c2.1-1.7,6.7-5.7,10.8-8.6c4.1-2.9,0.8,4.5-1.3,7.3c-1.6,2.2-4.5,5.3,0,4.3c13.2-2.9,24.3-10,27.4-13.7c2.3-2.8,2.5,0,1.3,5.1
			c2.1-1.1,10.8-8,14.3-10.3s4.5,0.6,4.6,2.7l0.1,0.1c-1.7,2.3-2.4,3.9-1.9,4.4c2.5,1.9,4.8,2.6,11.1,2.1
			c16.7-1.4,25.1-6.5,39.5-6.4c12.7,0.2,23.7,6.5,28.3,20C1041.9,711.3,1042.4,716.1,1042.4,720.7L1042.4,720.7z"/>
		<path id="path36" fill="#FFFFFF" d="M1008.6,584.5c0.3,18.5-1.9,40.1-5.7,45.8c2.5-10.8,2.2-73.8-1.3-87.8
			C1005.7,544.8,1008.3,566.1,1008.6,584.5z"/>
		<path id="path38" fill="#FFFFFF" d="M964,491c0.5-1.4,0.9-3,1.2-4.8h0c-7.6-3.8-16.5-9.9-17.2-13.5c-0.6-3.7,0.2-10.7,6.8-16.9
			c6.7-6.2,11.8-10.2,16.2-10.2c4.5,0,10.2,3.5,10.2,5.2s-0.5,8-0.2,11c0.3,3,3.3-12.1,4.8-12.2c1.4-0.2,1.1,13.8,8.4,16.5
			c0.3-5.1,1.1-10.5,1.6-10.5s1.1-1.4,2.5,1.3c1.4,2.7,4.1,9.4,5.9,9.4c-0.2-2.9-0.9-8.6-0.5-11.6c0.2-1.3,3.2,1.6,3.3,2.9
			c0.2,1.9,2.2,14.6,8.9,16.5l0.2-0.1c1.5,4.5,1.1,24.5,1.3,31.8c0.2,7.6-2.2,19.9-8.1,27.1c-3,3.8-6.3,6.4-10.6,7.6
			c-2,0.6-4.3,0.9-7,0.9c-7.7-0.1-12.5-3.8-13.8-6.2c4-2.7,7.4-6.4,6.8-6.4c-5.1,2.5-12.5,6.2-16.5,5.9c3-3.4,5.5-5.3,8.1-9.5
			c-3.2,0.9-16.1,12.7-28,12.5c-0.1,0-0.1,0-0.2,0c-8.9-0.2-18.7-7.4-18.7-28c0-13,6.7-21.1,14-24.6c2.7-1.3,5.5-2,8.1-2
			C961,483.3,964.8,488,964,491L964,491z"/>
		<path id="path40" fill="#FFFFFF" d="M999.9,213.5c-1.9-0.6-3.9-1.2-5.9-1.6c-7.4-1.7-15-2-22.5-0.2c-1.1-1.6-2.3-3.2-3.5-4.6
			c1.8-0.8,3.6-1.7,5.3-2.7c3.4-2,6.8-5.6,9.2-9.2C987.7,199.1,994.1,205.1,999.9,213.5z"/>
		<path id="path42" fill="#FFFFFF" d="M967.9,207c1.2,1.4,2.4,3,3.5,4.6c-1.4,0.3-2.8,0.7-4.2,1.2c-31.8,11.1-45.8,55-52.5,86.9
			s0.6,80.2,2.9,96.1c2.2,15.9,24.7,83.8,25.9,89.4l0,0.1c-7.2,3.4-14,11.5-14,24.6c0,20.6,9.7,27.8,18.7,28c0.1,0,0.1,0,0.2,0v0.4
			c1.3,10.6-10.5,58.3-48.7,69.5c6.4,4.1,8.6,9.2,8.6,16.5c0,1.7-0.2,6.9-0.4,14l-3.1-0.1c0.2-6.8,0-13.8-0.9-15.8
			c-1.6-3.5-3.8-11.1-12.1-11.8c-8.3-0.6-19.2-3.8-30.2-13c-11.8-9.9-34.5-41.1-38.1-62.9c-1.3-12.3-2.7-33.1-2.1-47.9
			c0.9-20.8,13.9-74.5,23.4-111.4c4.3-16.5,7.8-29.6,9.2-35c2.6-9.7,12.3-35.5,19.9-50.7c2.1-4.2,4-7.6,5.6-9.6
			c9.8-12.5,22.1-23.3,22.1-25.5c1.3-7.2,1.7-24.2,0.4-29.3c-0.9-3.6-6.7-19.8-20.8-28.9c2.7-2.4,5.6-4.7,8.3-6.7
			c4,4.8,9.4,8.3,17.2,8.9c8.6,0.7,14.8-0.6,26.7-3.4c1.3,3.6,5.5,12.2,16.4,13.6C957.7,209.9,963.2,209,967.9,207L967.9,207z"/>
		<path id="path44" fill="#FFFFFF" d="M982.4,195c-2.4,3.6-5.8,7.2-9.2,9.2c-1.7,1-3.4,2-5.3,2.7c-4.7,2-10.2,2.9-18.1,1.9
			c-11-1.4-15.2-10-16.4-13.6c-11.9,2.7-18.1,4.1-26.7,3.4c-7.8-0.6-13.2-4-17.2-8.9c-2.7,2-5.6,4.3-8.3,6.7
			c-5.8-3.8-13.1-6.3-22-6.3c-16.2,0-29.5,3.6-34.8,8.5c-2.4-19.4-16-28-21-29.1c2.9-20.4,11.5-27.4,22.6-39.8
			c-7.6,2.9-10.5,5.4-21.6,15.3c19.4-37.9,50.3-45.7,64-46.1c9.4-0.3,16.3,1.7,23.6,4.9l0,0.1c6.1,2.8,19.1,11.7,29.2,25.7
			c1.3,1.8,2.6,3.8,3.8,5.8v0.2c-12.3,0.2-21.8,4.3-24.8,14.9c-3.9,13.6,9.4,30.6,30.2,36.1c20.8,5.5,40.3-2.4,44-16.1
			c2.4-9-4-19.2-14.6-26.1c0.7-1.3,2.2-2.8,4.1-4.3c7.1-5.5,20.7-11.7,29.9-13.2c53.5-8,64.6,30.9,70.6,46.5c-3.5-4.8-6-8.3-14-13.7
			c25.5,28.3,8.9,73.2,4.1,84c-0.2-5.1-4.5-11.5-9.4-17.2c0.9,3.1,1.8,10.2,1.5,17.2c-8.6-7.9-26.4-23.6-46.6-30.2
			C994.1,205.1,987.7,199.1,982.4,195z M966.9,196.2c0-1-0.9-1.8-1.9-1.8c-1.1,0-1.9,0.8-1.9,1.8c0,1,0.9,1.7,1.9,1.7
			C966.1,197.9,966.9,197.1,966.9,196.2z M900.1,176.8c0-1-0.6-1.7-1.4-1.7c-0.8,0-1.4,0.8-1.4,1.7c0,1,0.6,1.8,1.4,1.8
			C899.5,178.5,900.1,177.7,900.1,176.8z M895,165.9c0-0.6-0.6-1.1-1.3-1.1c-0.7,0-1.3,0.5-1.3,1.1c0,0.6,0.6,1.1,1.3,1.1
			C894.4,167.1,895,166.6,895,165.9z"/>
		<path id="path46" fill="#FFFFFF" d="M752.4,262.8l0.6,0.3c-1.7,2.2-3,5.1-3.1,8.6c-3.4,0.2-6.4,0.1-9-0.4
			c-13.6-2.2-16.5-12.2-16.5-24.2c0-14.3,17.2-22.9,24.5-23.2l0.2,0.1c-3.7,7.1-6.7,20.3-4.3,27.9
			C747.4,260.3,749.9,260.6,752.4,262.8z"/>
		<path id="path48" fill="#FFFFFF" d="M824.3,198.7c0.2,1.9,0.4,3.8,0.4,5.9c0,20-4,27.6-6.9,33.3l-0.2,0.3
			c-5.2-3.8-12.6-6.6-23.4-6.2c-30.9,0.9-34.4,22-34.7,25.8l0.1,0.4c-1.7,0.5-4.4,2.3-6.5,5l-0.6-0.3c-2.5-2.2-5.1-2.5-7.6-10.8
			c-2.4-7.6,0.7-20.8,4.3-27.9c0.5-0.9,0.9-1.7,1.4-2.3c4.4-6.3,9.2-9.8,15.9-10.2c10.5-0.6,19.4,4.8,23.5,15.6
			c-1.9-8.3-2.9-13.4-8.9-20.4c-3.8-4.4-4.8-7.3-5.1-13.4c-0.3-4.9,1.9-12.1,5.7-14.6l0.2-0.6c1.3,1.2,2.5,2.4,3.4,3.7
			c6.2-2.9,6.2-8.9,6.2-10.8c-0.1-0.1-0.2-0.1-0.3-0.2v0l0.1-0.1c3.8-1.9,8.9-1.8,12.1-1.2C808.3,170.8,822,179.3,824.3,198.7z"/>
		<path id="path50" fill="#FFFFFF" d="M828.2,255.8c0,3.8,1.9,17.2-24.5,23.5c-0.4,1.2-0.7,2.8-1,4.8l-0.2,0
			c-3.7,7-14,15.9-17.2,17.2c-3.2,1.3-6.5-0.2-5.3-2.4c1.3-2.2,5.4-7.5,6.4-8.6c-3.5,1.9-9.4,8.6-14.3,11.1s-10.3,1.8-11.5-2.2
			c-0.1-4.7-0.1-8.2,0-9.7c-23.1,4.4-19.7-14.3-19.7-18.1v0c2.6,0.4,5.6,0.5,9,0.4c0,1.2,0.1,2.5,0.5,3.8c0-1.6,3.3-5,5.9-6.3
			c2.2-1.1,3.5-0.8,6.6-1.4c2.7-0.5,2.2-2.2,2.2-4.1c0-2.5-2-4.8-4.1-5.7c-0.3-0.1-0.8-0.1-1.5,0.1l-0.1-0.4
			c0.3-3.8,3.8-24.9,34.7-25.8c10.8-0.3,18.3,2.5,23.4,6.2C826,244.5,828.2,253.5,828.2,255.8z"/>
		<path id="path52" fill="#FFFFFF" d="M750,271.8c0.1-3.4,1.3-6.3,3.1-8.6c2.1-2.7,4.8-4.5,6.5-5c0.6-0.2,1.2-0.2,1.5-0.1
			c2.1,1,4.1,3.2,4.1,5.7c0,1.9,0.4,3.7-2.2,4.1c-3.1,0.5-4.3,0.3-6.6,1.4c-2.6,1.3-5.9,4.7-5.9,6.3C750.1,274.2,750,273,750,271.8z
			"/>
		<path id="path54" fill="#FFFFFF" d="M791.2,170.9c0.1,0.1,0.2,0.1,0.3,0.2c0,1.9,0,8-6.2,10.8c-0.9-1.2-2-2.5-3.4-3.7
			c-4.3-3.8-10.7-7-17.7-6.5c3.4-1.7,11.3-4.2,16.2-3.7C786.5,168.6,790.1,170.1,791.2,170.9C791.2,170.9,791.2,170.9,791.2,170.9z"
			/>
		<path id="path56" d="M893.7,164.8c0.7,0,1.3,0.5,1.3,1.1c0,0.6-0.6,1.1-1.3,1.1c-0.7,0-1.3-0.5-1.3-1.1
			C892.5,165.3,893,164.8,893.7,164.8z"/>
		<path id="path58" d="M898.7,175c0.8,0,1.4,0.8,1.4,1.7c0,1-0.6,1.8-1.4,1.8c-0.8,0-1.4-0.8-1.4-1.8
			C897.2,175.8,897.9,175,898.7,175z"/>
		<path id="path60" d="M965,194.4c1.1,0,1.9,0.8,1.9,1.8c0,1-0.9,1.7-1.9,1.7c-1.1,0-1.9-0.8-1.9-1.7
			C963.1,195.2,964,194.4,965,194.4z"/>
		<path id="path62" d="M995.9,33.4l-0.1,0c-0.4,1-2,6-4.4,12.2l0.1,0.2c-2.4,0.6-4.7,1.2-6.9,1.9l-0.1-0.3
			c2.2-4.8,4.5-10.2,9.9-16.9C994.9,31.3,995.4,32.3,995.9,33.4z"/>
		<path id="path64" d="M982.5,63.5c-1.7,2.6-3.6,5-5.5,6.7c0.6-1.8-0.3-4.1-1.8-5.6C974.5,63.9,977.8,63.6,982.5,63.5z"/>
		<path id="path66" fill="#FFFFFF" d="M982.5,63.5c4.7-0.1,10.7,0,15.5,0c-0.4,6-1,11-1.2,12.8c-0.3,2.8-1.8,6-3.3,9l-0.2-0.1
			c-4.8,8.6-4.8-2.5-5.1-7c-0.3-4.5-2.2-7.6-4.8-8.6s-3.9,1.6-6.4,5.1c-1.6,2.2-2.9-1.3-1-3.2c0.4-0.4,0.7-0.9,0.9-1.4
			C979,68.5,980.8,66.1,982.5,63.5z"/>
		<path id="path68" fill="#FFFFFF" d="M995.9,33.4c1.2,2.9,1.9,6.7,2.3,10.9c-2.2,0.4-4.5,0.9-6.7,1.5l-0.1-0.2
			c2.4-6.1,3.9-11.1,4.4-12.2C995.8,33.4,995.9,33.4,995.9,33.4z"/>
		<path id="path70" fill="#FFFFFF" d="M998.3,47.2c0.2,4.9,0.1,10.1-0.2,14.8c-4.2-0.3-9.4-0.3-14.5-0.2v0c2.3-3.8,4.4-8.2,6.2-12.3
			l-0.1-0.4C992.4,48.5,995.3,47.8,998.3,47.2z"/>
		<path id="path72" d="M946.4,60.8l-2.6,0.4c-2-1.5-4.8-2.6-7.2-2.4c1-4.1,2.9-32.1,1.6-36.3l-0.1-0.1c1-1.1,2.1-2.1,3.3-3.1
			c1,9.5,2.5,36.3,3.8,40.4C945.8,60.2,946.2,60.6,946.4,60.8z"/>
		<path id="path74" d="M1004.8,63.3c-1.5,0.1-3.9,0.2-6.7,0.2c0-0.5,0.1-1,0.1-1.5C1001,62.3,1003.3,62.7,1004.8,63.3z"/>
		<path id="path76" d="M998.1,44.3c10.6-2.1,21.1-3,27.3-1.7c-8,1.2-17.9,2.7-27.1,4.6C998.3,46.3,998.2,45.3,998.1,44.3z"/>
		<path id="path78" d="M1140.4,740.5c1.3,12.3-0.8,22.1-11.9,39.9c-6,9.7-20,17.5-34.7,22.8l0,0c1.4-0.5,2.7-3.2,0.5-4.9
			c-2.2-1.8-16.5,1.6-22.9,2.9c2.4-1.1,13.7-5.2,18.3-8.3c4.6-3,1.8-4.9-3-4c-4.8,1-19.6,4.8-23.2,5.2c1.6-1.3,2.2-1.3,6-4.6
			c3.7-3.2,3.3-5.4,1.9-5.7c-1.4-0.3-10.8,0.8-20.7,1.6l0,0c18.5-7,23.8-14.5,32.8-21.9c13.6-11,13.6-24.6,12.3-28
			c-0.8,2.1-1.7,6.8-3.8,13.6c0.9-6.8-8.1-32.7-22.5-46.7c-10.6-10.3-32.3-32.7-38.2-37.8c-5.9-5.1-15.2-13.5-25.4-28.4
			c-1-1.5-1.9-2-2.6-2l-0.6-3.8c3.8-5.7,6-27.4,5.7-45.8c-0.3-18.5-2.9-39.8-7-42l-2.7-1.9c4.4-1.3,7.6-3.9,10.6-7.6h1.1
			c6.4,15.3,53,96.3,59.8,106.9c6.8,10.6,33.5,43.7,45,55.6C1126.9,707.4,1139.2,728.1,1140.4,740.5L1140.4,740.5z"/>
		<path id="path80" d="M994,211.9L994,211.9c-10.7-0.2-16-0.4-21.6,1.2c-0.3-0.5-0.6-0.9-1-1.4C979,209.8,986.6,210.2,994,211.9z"/>
		<path id="path82" d="M906.1,694L906.1,694c0,0.5,0,1.1,0,1.6h0c-10.8-2.2-19.7-3.2-29-11.5c-3.6-3.2-5.5-4.4-4.1,0
			c1.3,4.1,1.9,4.5,3.2,7s-1.9,1.6-5.1-0.3c-3.2-1.9-7.3-9.2-8.3-7.3c-1,1.9,0.6,7.6-2.2,5.7c-2.9-1.9-2.5-5.5-7-5.6
			c-1.9-7.9-8.5-21.2-13.1-28c-4.7-6.8-15.9-22.5-17.4-31.4c-7.2-42.4,0.4-79.8,0.4-89.5c3.6,21.8,26.3,53,38.1,62.9
			c11,9.3,22,12.4,30.2,13c8.3,0.6,10.5,8.3,12.1,11.8c0.9,2,1.1,9,0.9,15.8c-0.1,5.2-0.5,10.2-0.9,12.8c-1,6-1.6,14-1.9,23.2
			C901.7,683.5,903.3,689.2,906.1,694z"/>
		<path id="path84" d="M873.7,289.6l0.3,0.1c-7.5,15.2-17.3,40.9-19.9,50.7c-1.4,5.4-5,18.5-9.2,35l-0.1,0
			c-4.1,5.4-30.2,23.7-52.8,24.3c-22.6,0.6-27.7-26.4-29-39.8c-1-10.5-2-43.5-2.2-60.6c1.1,4,6.5,4.8,11.5,2.2s10.8-9.2,14.3-11.1
			c-1,1.1-5.1,6.4-6.4,8.6c-1.3,2.2,2.1,3.7,5.3,2.4s13.5-10.2,17.2-17.2l0.2,0c-0.9,6.8-1.1,17.7,0.6,27c2.2,12.1,6.4,25.5,7,28.3
			c2.9-2.5,1-4.8,3.5-5.7c2.5-1,15-4.1,26.7-12.4C852.4,313.1,867.6,298.2,873.7,289.6z"/>
	</g>
	<g id="g86">
		<path id="path88" fill="none" stroke="#000000" stroke-width="2" stroke-linecap="round" stroke-linejoin="round" d="M1010.6,533
			c6.4,15.3,53,96.3,59.8,106.9c6.8,10.6,33.5,43.7,45,55.6c11.5,11.9,23.8,32.7,25,45c1.3,12.3-0.8,22.1-11.9,39.9
			c-6,9.7-20,17.5-34.7,22.8c-12.4,4.5-25.4,7.4-34.5,8.1c-19.9,1.7-65.3,4.2-75.9,3.4c-10.6-0.8-31,2.5-38.2,2.5
			c7.6-7.6,12.7-12.7,66.2-22.1c17.7-3.1,30.1-6.4,39.3-9.9c18.5-7,23.8-14.5,32.8-21.9c13.6-11,13.6-24.6,12.3-28
			c-0.8,2.1-1.7,6.8-3.8,13.6c0.9-6.8-8.1-32.7-22.5-46.7c-10.6-10.3-32.3-32.7-38.2-37.8c-5.9-5.1-15.2-13.5-25.4-28.4
			c-1-1.5-1.9-2-2.6-2c-1,0-1.8,1-2.2,2c-0.6,1.6-5.7,17.5-11.5,22.3c-4.5,3.7-20.7,20.5-26.4,28.6c-1.7,2.3-2.4,3.9-1.9,4.4
			c2.5,1.9,4.8,2.6,11.1,2.1c16.7-1.4,25.1-6.5,39.5-6.4c12.7,0.2,23.7,6.5,28.3,20c1.5,4.3,2,9.1,2,13.7c-0.1,6.4-1.2,12.3-2.7,16"
			/>
		<path id="path90" fill="none" stroke="#000000" stroke-width="2" stroke-linecap="round" stroke-linejoin="round" d="M909.6,724.3
			c-13.1,13.2-52.1,31.1-82.7,30.5c-21.8-0.4-29.1-6.8-32.3-10.6"/>
		<path id="path92" fill="none" stroke="#000000" stroke-width="2" stroke-linecap="round" stroke-linejoin="round" d="M788.7,736.6
			c-0.1-0.2-0.1-0.4-0.2-0.6c-2.8-8.5-2.9-37.9,28.6-34.6"/>
		<path id="path94" fill="none" stroke="#000000" stroke-width="2" stroke-linecap="round" stroke-linejoin="round" d="M784.5,739.6
			c-5.2-3.1-7.2-5.3-10.4-9.2"/>
		<path id="path96" fill="none" stroke="#000000" stroke-width="2" stroke-linecap="round" stroke-linejoin="round" d="M769.8,722.3
			c-0.8-6.8-1.1-21.9,11.5-30.8c4.7-3.3,11.1-5.8,19.9-6.7"/>
		<path id="path98" fill="none" stroke="#000000" stroke-width="2" stroke-linecap="round" stroke-linejoin="round" d="M781.2,691.3
			c0.3-4.3,8-16.5,23.4-16.7c14.8-0.2,30.9,11.7,37.7,12.7c6.6,1,12.2,0.2,11.3-3.7c-1.9-7.9-8.5-21.2-13.1-28
			c-4.7-6.8-15.9-22.5-17.4-31.4c-7.2-42.4,0.4-79.8,0.4-89.5c-1.3-12.3-2.7-33.1-2.1-47.9c0.9-20.8,13.9-74.5,23.4-111.4
			c4.3-16.5,7.8-29.6,9.2-35c2.6-9.7,12.3-35.5,19.9-50.7c2.1-4.2,4-7.6,5.6-9.6c9.8-12.5,22.1-23.3,22.1-25.5
			c1.3-7.2,1.7-24.2,0.4-29.3c-0.9-3.6-6.7-19.8-20.8-28.9c-5.8-3.8-13.1-6.3-22-6.3c-16.2,0-29.5,3.6-34.8,8.5
			c-0.1,0.1-0.3,0.2-0.4,0.4"/>
		<path id="path100" fill="none" stroke="#000000" stroke-width="2" stroke-linecap="round" stroke-linejoin="round" d="
			M1023.5,168.2c-8.4-6.9-23.1-14.2-42.2-9.2c4,4,4.3,6.1,4.3,10.4c0,4.3-1.4,8.1-5.5,8.1c4,3.8,5.5,5.5,5.2,10.4
			c-0.1,2-1.2,4.6-2.9,7.2c-2.4,3.6-5.8,7.2-9.2,9.2c-1.7,1-3.4,2-5.3,2.7c-4.7,2-10.2,2.9-18.1,1.9c-11-1.4-15.2-10-16.4-13.6
			c-11.9,2.7-18.1,4.1-26.7,3.4c-7.8-0.6-13.2-4-17.2-8.9c-1.7-2-3.1-4.2-4.4-6.6c-2.1-3.9-3.4-8.4-3.9-12.2
			c-0.5-3.1-0.5-5.8-0.1-7.4c0.9-3.8,4-9.8,8.4-9.8c-2.3-1.4-2.3-5.5-0.6-8.9c1.4-2.9,3.5-5.5,8.7-8.1c-4.6-3.5-13.6-11.6-41.6-9.8"
			/>
		<path id="path102" fill="none" stroke="#000000" stroke-width="2" stroke-linecap="round" stroke-linejoin="round" d="
			M891.8,297.2c-5.1,6.4-10.2,17.5-10.2,33.1"/>
		<path id="path104" fill="none" stroke="#000000" stroke-width="2" stroke-linecap="round" stroke-linejoin="round" d="
			M960.6,199.8c1.9,1.1,4.6,3.8,7.4,7.2c1.2,1.4,2.4,3,3.5,4.6c0.3,0.5,0.6,0.9,1,1.4c3,4.4,5.4,8.9,6,11.9"/>
		<path id="path106" fill="none" stroke="#000000" stroke-width="2" stroke-linecap="round" stroke-linejoin="round" d="
			M973.9,189.3c1.9,1.1,5,2.9,8.5,5.7c5.2,4.1,11.6,10.1,17.4,18.5c1.8,2.6,3.6,5.5,5.2,8.6"/>
		<path id="path108" fill="none" stroke="#000000" stroke-width="2" stroke-linecap="round" stroke-linejoin="round" d="
			M899.8,182.6c-2.3,1.4-6.1,4-10.3,7.2c-2.7,2-5.6,4.3-8.3,6.7c-3.5,3.1-6.9,6.3-9.4,9.4"/>
		<path id="path110" fill="none" stroke="#000000" stroke-width="2" stroke-linecap="round" stroke-linejoin="round" d="
			M891.2,169.3c-2.9,0.4-6.4,0.9-10,1.7c-11.1,2.3-24.2,6.5-31.4,14.9"/>
		<path id="path112" fill="none" stroke="#000000" stroke-width="2" stroke-linecap="round" stroke-linejoin="round" d="M895,165.9
			c0,0.6-0.6,1.1-1.3,1.1c-0.7,0-1.3-0.5-1.3-1.1c0-0.6,0.6-1.1,1.3-1.1C894.4,164.8,895,165.3,895,165.9z"/>
		<path id="path114" fill="none" stroke="#000000" stroke-width="2" stroke-linecap="round" stroke-linejoin="round" d="
			M900.1,176.8c0,1-0.6,1.8-1.4,1.8c-0.8,0-1.4-0.8-1.4-1.8c0-1,0.6-1.7,1.4-1.7C899.5,175,900.1,175.8,900.1,176.8z"/>
		<path id="path116" fill="none" stroke="#000000" stroke-width="2" stroke-linecap="round" stroke-linejoin="round" d="
			M966.9,196.2c0,1-0.9,1.7-1.9,1.7c-1.1,0-1.9-0.8-1.9-1.7c0-1,0.9-1.8,1.9-1.8C966.1,194.4,966.9,195.2,966.9,196.2z"/>
		<path id="path118" fill="none" stroke="#000000" stroke-width="2" stroke-linecap="round" stroke-linejoin="round" d="M993.3,85.3
			c-4.8,8.6-4.8-2.5-5.1-7c-0.3-4.5-2.2-7.6-4.8-8.6s-3.9,1.6-6.4,5.1c-1.6,2.2-2.9-1.3-1-3.2c0.4-0.4,0.7-0.9,0.9-1.4
			c0.6-1.8-0.3-4.1-1.8-5.6c-0.7-0.7,2.6-1,7.4-1.1c4.7-0.1,10.7,0,15.5,0c2.9,0,5.3-0.1,6.7-0.2c-1.5-0.7-3.8-1.1-6.7-1.3
			c-4.2-0.3-9.4-0.3-14.5-0.2c-3.9,0.1-7.7,0.3-11,0.4c-0.9,0-1.7,0.1-2.5,0.1c-2.3-4.3,2.7-7.8,11-10.7v0c2.6-0.9,5.5-1.7,8.6-2.5
			c2.7-0.7,5.7-1.3,8.6-1.9c9.2-1.9,19.1-3.4,27.1-4.6c-6.2-1.3-16.8-0.4-27.3,1.7c-2.2,0.4-4.5,0.9-6.7,1.5
			c-2.4,0.6-4.7,1.2-6.9,1.9c-2.4,0.7-4.7,1.5-6.8,2.3c-8.7,3.3-18.8,9.2-21.3,10.8s11.8-18.5,14-21.6c-2.2,1.9-18.8,15.9-22,20.4
			c-1.1,1.6-1.5,1.8-2,1.3c-0.3-0.2-0.6-0.6-1.1-1c-1.3-4.1-2.9-30.9-3.8-40.4c-1.1,1-2.2,2-3.3,3.1c-12.1,12.6-19.3,34.2-19.3,38.9
			c0,4.2,1.1,9.4,4,14.1c0.6,1,1.3,1.9,2,2.8c0,0-3.8,9.2-5.7,11.1c-1.9,1.9-3.8,4.8-3.5,1c-6.4,7.3-13,18.5-21.3,14.6
			c-0.9-0.4-1.7-0.8-2.5-1.1c-7.3-3.2-14.1-5.2-23.6-4.9c-13.7,0.4-44.5,8.3-64,46.1c11.1-9.9,14-12.4,21.6-15.3
			c-11.1,12.4-19.7,19.4-22.6,39.8c-3.2-0.6-8.3-0.7-12.1,1.2"/>
		<path id="path120" fill="none" stroke="#000000" stroke-width="2" stroke-linecap="round" stroke-linejoin="round" d="
			M781.7,178.8c-3.8,2.5-6,9.7-5.7,14.6c0.3,6,1.3,8.9,5.1,13.4c6,7,7,12.1,8.9,20.4c-4.1-10.8-13-16.2-23.5-15.6
			c-6.7,0.4-11.5,3.8-15.9,10.2c-0.5,0.7-0.9,1.5-1.4,2.3c-3.7,7.1-6.7,20.3-4.3,27.9c2.5,8.3,5.1,8.6,7.6,10.8"/>
		<path id="path122" fill="none" stroke="#000000" stroke-width="2" stroke-linecap="round" stroke-linejoin="round" d="
			M763.3,268.2c1.6,3.2,10.8,7.6,18.5,7.6c7.6,0,15-1,19.1-2.2"/>
		<path id="path124" fill="none" stroke="#000000" stroke-width="2" stroke-linecap="round" stroke-linejoin="round" d="
			M759.5,257.7c0.3-3.8,3.8-24.9,34.7-25.8c10.8-0.3,18.3,2.5,23.4,6.2c8.5,6.2,10.6,15.2,10.6,17.6c0,3.8,1.9,17.2-24.5,23.5
			c-0.4,1.2-0.7,2.8-1,4.8c-0.9,6.8-1.1,17.7,0.6,27c2.2,12.1,6.4,25.5,7,28.3c2.9-2.5,1-4.8,3.5-5.7s15-4.1,26.7-12.4
			c11.8-8.3,27-23.2,33.1-31.8"/>
		<path id="path126" fill="none" stroke="#000000" stroke-width="2" stroke-linecap="round" stroke-linejoin="round" d="M748.9,224
			c-7.3,0.3-24.5,8.9-24.5,23.2c0,12,2.9,22,16.5,24.2c2.6,0.4,5.6,0.5,9,0.4c0.1,0,0.2,0,0.2,0"/>
		<path id="path128" fill="none" stroke="#000000" stroke-width="2" stroke-linecap="round" stroke-linejoin="round" d="M741,271.4
			c0,3.8-3.4,22.5,19.7,18.1c-0.1,1.5-0.1,5,0,9.7c0.2,17.1,1.2,50.1,2.2,60.6c1.3,13.4,6.4,40.4,29,39.8
			c22.6-0.6,48.7-18.9,52.8-24.3"/>
		<path id="path130" fill="none" stroke="#000000" stroke-width="2" stroke-linecap="round" stroke-linejoin="round" d="
			M803.4,169.6c4.9,1.2,18.6,9.7,21,29.1c0.2,1.9,0.4,3.8,0.4,5.9c0,20-4,27.6-6.9,33.3"/>
		<path id="path132" fill="none" stroke="#000000" stroke-width="2" stroke-linecap="round" stroke-linejoin="round" d="
			M802.6,284.2c-3.7,7-14,15.9-17.2,17.2c-3.2,1.3-6.5-0.2-5.3-2.4c1.3-2.2,5.4-7.5,6.4-8.6c-3.5,1.9-9.4,8.6-14.3,11.1
			s-10.3,1.8-11.5-2.2"/>
		<path id="path134" fill="none" stroke="#000000" stroke-width="2" stroke-linecap="round" stroke-linejoin="round" d="
			M965.9,476.6c0.1,2.8-0.1,6.4-0.7,9.6c-0.3,1.7-0.7,3.4-1.2,4.8"/>
		<path id="path136" fill="none" stroke="#000000" stroke-width="2" stroke-linecap="round" stroke-linejoin="round" d="
			M943.5,485.3c-1.3-5.6-23.7-73.5-25.9-89.4c-2.2-15.9-9.5-64.3-2.9-96.1s20.7-75.7,52.5-86.9c1.4-0.5,2.8-0.9,4.2-1.2
			c7.5-1.8,15.1-1.5,22.5,0.2c2,0.4,3.9,1,5.9,1.6c20.2,6.6,38,22.3,46.6,30.2c0.3-7.1-0.6-14.2-1.5-17.2c-0.1-0.5-0.3-0.9-0.4-1.2"
			/>
		<path id="path138" fill="none" stroke="#000000" stroke-width="2" stroke-linecap="round" stroke-linejoin="round" d="M1035,216.4
			c3,2.7,6.6,6.3,10,10.1c5,5.7,9.3,12.1,9.4,17.2c4.8-10.8,21.3-55.7-4.1-84c8,5.4,10.5,8.9,14,13.7c-6-15.6-17.2-54.4-70.6-46.5
			c-2.2,0.3-5.4-16.9-4.8-21.3c-1.9,4.5-2.2,4.8-3.2,4.8c0.3-3.5,2.5-13,4.1-17.5c0.8-2.1,2.3-4.8,3.7-7.5c1.6-3,3-6.2,3.3-9
			c0.2-1.9,0.8-6.8,1.2-12.8c0-0.5,0.1-1,0.1-1.5c0.3-4.7,0.4-9.9,0.2-14.8c-0.1-1-0.1-2-0.2-2.9c-0.4-4.2-1-8.1-2.3-10.9
			c-0.4-1.1-1-2-1.6-2.8c-5.4,6.7-7.6,12.1-9.9,16.9"/>
		<path id="path140" fill="none" stroke="#000000" stroke-width="2" stroke-linecap="round" stroke-linejoin="round" d="M993.6,127
			c-9.2,1.5-22.9,7.6-29.9,13.2c-1.9,1.5-3.4,3-4.1,4.3c0,0,0,0,0,0"/>
		<path id="path142" fill="none" stroke="#000000" stroke-width="2" stroke-linecap="round" stroke-linejoin="round" d="
			M890.5,103.4c0.4,0.1,0.8,0.3,1.3,0.5c6.1,2.8,19.1,11.7,29.2,25.7c1.3,1.8,2.6,3.8,3.8,5.8"/>
		<path id="path144" fill="none" stroke="#000000" stroke-width="2" stroke-linecap="round" stroke-linejoin="round" d="M994,211.9
			c-10.7-0.2-16-0.4-21.5,1.1c-2.4,0.6-4.8,1.6-7.7,3c-9.9,4.8-29.3,32.8-29.6,48.7c3.5-5.1,8-8,12.7-8.3c6-0.3,15,2.9,22.9,13.4
			c8,10.5,39.2,61.9,49,101.5c8.9,36,4.6,92.2-3.6,102.2c0.1,0.1,0.1,0.3,0.2,0.4c1.5,4.5,1.1,24.5,1.3,31.8
			c0.2,7.6-2.2,19.9-8.1,27.1c-3,3.8-6.3,6.4-10.6,7.6c-2,0.6-4.3,0.9-7,0.9c-7.7-0.1-12.5-3.8-13.8-6.2c4-2.7,7.4-6.4,6.8-6.4
			c-5.1,2.5-12.5,6.2-16.5,5.9c3-3.4,5.5-5.3,8.1-9.5c-3.2,0.9-16.1,12.7-28,12.5c-0.1,0-0.1,0-0.2,0c-8.9-0.2-18.7-7.4-18.7-28
			c0-13,6.7-21.1,14-24.6c2.7-1.3,5.5-2,8.1-2c9.3,0,13.1,4.7,12.3,7.6c-0.9,3-3.2,7.6-9.1,12.3"/>
		<path id="path146" fill="none" stroke="#000000" stroke-width="2" stroke-linecap="round" stroke-linejoin="round" d="
			M943.7,345.6c0.6,13.4,26.1,83.1,32.1,96.7c3.9,8.8,6.7,2.2,6.7-0.6s1.3-38.8-3.8-52.8s-24.2-42.7-32.8-48
			C943.4,339.2,943.4,339.8,943.7,345.6z"/>
		<path id="path148" fill="none" stroke="#000000" stroke-width="2" stroke-linecap="round" stroke-linejoin="round" d="
			M759.6,258.2c0.6-0.2,1.2-0.2,1.5-0.1c2.1,1,4.1,3.2,4.1,5.7c0,1.9,0.4,3.7-2.2,4.1c-3.1,0.5-4.3,0.3-6.6,1.4
			c-2.6,1.3-5.9,4.7-5.9,6.3c-0.3-1.3-0.5-2.6-0.5-3.8c0.1-3.4,1.3-6.3,3.1-8.6C755.1,260.4,757.8,258.7,759.6,258.2z"/>
		<path id="path150" fill="none" stroke="#000000" stroke-width="2" stroke-linecap="round" stroke-linejoin="round" d="
			M791.2,170.9c0.1,0.1,0.2,0.1,0.3,0.2c0,1.9,0,8-6.2,10.8c-0.9-1.2-2-2.5-3.4-3.7c-4.3-3.8-10.7-7-17.7-6.5
			c3.4-1.7,11.3-4.2,16.2-3.7C786.5,168.6,790.1,170.1,791.2,170.9C791.2,170.9,791.2,170.9,791.2,170.9z"/>
		<path id="path152" fill="none" stroke="#000000" stroke-width="2" stroke-linecap="round" stroke-linejoin="round" d="
			M965.2,486.2c-7.6-3.8-16.5-9.9-17.2-13.5c-0.6-3.7,0.2-10.7,6.8-16.9c6.7-6.2,11.8-10.2,16.2-10.2c4.5,0,10.2,3.5,10.2,5.2
			s-0.5,8-0.2,11c0.3,3,3.3-12.1,4.8-12.2c1.4-0.2,1.1,13.8,8.4,16.5c0.3-5.1,1.1-10.5,1.6-10.5s1.1-1.4,2.5,1.3
			c1.4,2.7,4.1,9.4,5.9,9.4c-0.2-2.9-0.9-8.6-0.5-11.6c0.2-1.3,3.2,1.6,3.3,2.9c0.2,1.9,2.2,14.6,8.9,16.5"/>
		<path id="path154" fill="none" stroke="#000000" stroke-width="2" stroke-linecap="round" stroke-linejoin="round" d="
			M948.5,538.3c1.3,10.6-10.5,58.3-48.7,69.5c6.4,4.1,8.6,9.2,8.6,16.5c0,1.7-0.2,6.9-0.4,14c-0.5,15.5-1.4,39.9-1.8,55.7
			c0,0.5,0,1.1,0,1.6c0,1.6-0.1,3.1-0.1,4.5c-0.1,3.9,0,6.8,0.1,8.3c0.5,7,0.6,11.3,3.7,15.8c0.8,1.2,1.9,2.5,3.3,3.9
			c6.4,6.4,24.6,21.3,45.2,30.2c17.4,7.6,36.8,8.9,48.9-3.2c0.1-0.1,0.1-0.1,0.2-0.2"/>
		<path id="path156" fill="none" stroke="#000000" stroke-width="2" stroke-linecap="round" stroke-linejoin="round" d="
			M1001.6,542.5c3.5,14,3.8,77,1.3,87.8c3.8-5.7,6-27.4,5.7-45.8C1008.3,566.1,1005.7,544.8,1001.6,542.5z"/>
		<path id="path158" fill="none" stroke="#000000" stroke-width="2" stroke-linecap="round" stroke-linejoin="round" d="
			M1032.9,744.1L1032.9,744.1c-1.9,3.9-5.8,9.7-14.1,8.8"/>
		<path id="path160" fill="none" stroke="#000000" stroke-width="2" stroke-linecap="round" stroke-linejoin="round" d="
			M906.1,695.6c-10.8-2.2-19.7-3.2-29-11.5c-3.6-3.2-5.5-4.4-4.1,0c1.3,4.1,1.9,4.5,3.2,7s-1.9,1.6-5.1-0.3
			c-3.2-1.9-7.3-9.2-8.3-7.3c-1,1.9,0.6,7.6-2.2,5.7c-2.9-1.9-2.5-5.5-7-5.6"/>
		<path id="path162" fill="none" stroke="#000000" stroke-width="2" stroke-linecap="round" stroke-linejoin="round" d="M906.1,694
			c-2.9-4.8-4.5-10.5-4.1-19.7c0.3-9.2,1-17.2,1.9-23.2c0.4-2.6,0.8-7.6,0.9-12.8c0.2-6.8,0-13.8-0.9-15.8
			c-1.6-3.5-3.8-11.1-12.1-11.8c-8.3-0.6-19.2-3.8-30.2-13c-11.8-9.9-34.5-41.1-38.1-62.9"/>
		<path id="path164" fill="none" stroke="#000000" stroke-width="2" stroke-linecap="round" stroke-linejoin="round" d="
			M959.6,144.4c10.6,6.9,17,17.1,14.6,26.1c-3.6,13.7-23.2,21.6-44,16.1c-20.8-5.5-34-22.5-30.2-36.1c3-10.6,12.5-14.6,24.8-14.9
			c3.8-0.1,7.8,0.2,12.1,0.8c1,0.1,1.9,0.3,2.9,0.4c4,0.6,7.8,1.7,11.3,3.2C954.2,141.3,957,142.7,959.6,144.4z"/>
		<path id="path166" fill="none" stroke="#000000" stroke-width="2" stroke-linecap="round" stroke-linejoin="round" d="M938.3,22.6
			c1.3,4.1-0.6,32.1-1.6,36.3c2.4-0.2,5.1,0.9,7.2,2.4c1.5,1,2.6,2.3,3,3.3c-5.4-2.2-9.2-4.5-11.8-0.6s-8.6,14.6-12.1,11.5"/>
		<path id="path168" fill="none" stroke="#000000" stroke-width="2" stroke-linecap="round" stroke-linejoin="round" d="
			M921.1,129.8c0-0.1,0-0.1,0-0.1c-2.2-6.8-0.6-23.5,0.4-30.4c1-7,3.8-14.6,10.5-20.4c5.8-5,9.5-1.6,10.8,2.2
			c1.3,3.8,1.7,25.9,0,33.4c-2.5-0.6-6.6-0.1-8.6,3.8c-1.9,3.8-2.9,10.4,2.8,17.8"/>
		<path id="path170" fill="none" stroke="#000000" stroke-width="2" stroke-linecap="round" stroke-linejoin="round" d="
			M958.6,142.2c1.6-0.8,3.1-1.8,4.5-2.8c7.3-5.6,10.9-13.6,14.6-21.7c4.5-9.5,6.7-21,4.1-29.6c-1.3-4.4-8-0.9-13,4.1
			c-6.4,6.4-11.5,16.5-15.6,27.4c4.1-1,6.3-0.2,7.3,3.2c1,3.2,1.3,11.5-9.2,16.9"/>
		<path id="path172" fill="none" stroke="#000000" stroke-width="2" stroke-linecap="round" stroke-linejoin="round" d="
			M991.3,714.8c8-0.2,22.9,1.4,25,15.9c1.3,8.7-0.6,13-1.9,16l0,0"/>
		<path id="path174" fill="none" stroke="#000000" stroke-width="2" stroke-linecap="round" stroke-linejoin="round" d="M1042.5,721
			c0-0.1-0.1-0.2-0.1-0.3c-2.3-7.4-8.3-20.6-30.9-18.9"/>
		<path id="path176" fill="none" stroke="#000000" stroke-width="2" stroke-linecap="round" stroke-linejoin="round" d="
			M963.3,686.8c-0.2-2.1-1.1-5.1-4.6-2.7c-3.5,2.4-12.2,9.2-14.3,10.3c1.3-5.1,1-7.9-1.3-5.1c-3,3.7-14.2,10.8-27.4,13.7
			c-4.5,1-1.6-2.1,0-4.3c2.1-2.9,5.4-10.2,1.3-7.3c-4.1,2.9-8.7,6.8-10.8,8.6"/>
		<path id="path178" fill="none" stroke="#000000" stroke-width="2" stroke-linecap="round" stroke-linejoin="round" d="
			M1032.9,744.1c-1.9-0.4-3.5-1-3.4-2.8c0.2-2.4,2.7-7.9,4.8-7.3c1,0.4,3,1.1,5.1,3.1c2.6,2.5,5.2,7,5.8,15.2
			c-3.8-4.2-7.7-7.5-10.2-7.9C1034.3,744.3,1033.6,744.2,1032.9,744.1z"/>
		<path id="path180" fill="none" stroke="#000000" stroke-width="2" stroke-linecap="round" stroke-linejoin="round" d="
			M1007.2,755.1c-0.8,0.1-1.6,0.2-2.5,0.4c-0.8-3.3,0.4-11.1,5.5-11.3c1.4,0.5,2.8,1.4,4.1,2.6c1.7,1.5,3.2,3.6,4.4,6.1h0
			c1.5,3.1,2.5,6.8,2.3,10.7C1015.7,758.7,1012.8,754.7,1007.2,755.1L1007.2,755.1z"/>
		<path id="path182" fill="none" stroke="#000000" stroke-width="2" stroke-linecap="round" stroke-linejoin="round" d="
			M794.5,743.9c1.6-0.6,3.3-1,4.9-1.2c0-5.1-3.7-10.2-7.2-8.9c-1.2,0.4-2.5,1.2-3.7,2.3c-1.2,1-2.5,2.4-3.6,3.9
			c-2.5,3.5-4.5,8.2-4.8,13.4C783.6,749.9,788.9,746,794.5,743.9z"/>
		<path id="path184" fill="none" stroke="#000000" stroke-width="2" stroke-linecap="round" stroke-linejoin="round" d="M774,730.3
			c1.2-0.5,2.4-0.9,3.5-0.9c-0.8-5.4-2.9-8.4-5.9-8.8c-0.6,0.5-1.2,1-1.8,1.6c-3.2,3.3-5.7,8.2-5.2,17
			C765.9,736.9,769.9,732.3,774,730.3L774,730.3z"/>
		<path id="path186" fill="none" stroke="#000000" stroke-width="2" stroke-linecap="round" stroke-linejoin="round" d="M981.2,51.9
			c-3.1,4.1-6.9,8.9-8.5,10.4"/>
		
			<line id="line188" fill="none" stroke="#000000" stroke-width="2" stroke-linecap="round" stroke-linejoin="round" x1="972.6" y1="62.3" x2="981.2" y2="51.9"/>
		<path id="path190" fill="none" stroke="#000000" stroke-width="2" stroke-linecap="round" stroke-linejoin="round" d="M982.7,63.3
			c0,0.1-0.1,0.1-0.1,0.2c-1.7,2.6-3.6,5-5.5,6.7"/>
		<path id="path192" fill="none" stroke="#000000" stroke-width="2" stroke-linecap="round" stroke-linejoin="round" d="M989.8,49.6
			c-1.7,4.1-3.8,8.5-6.2,12.3"/>
		<path id="path194" fill="none" stroke="#000000" stroke-width="2" stroke-linecap="round" stroke-linejoin="round" d="M995.8,33.4
			c-0.4,1-2,6-4.4,12.2"/>
		<path id="path196" fill="none" stroke="#000000" stroke-width="2" stroke-linecap="round" stroke-linejoin="round" d="
			M1050.8,785.3c9.9-0.8,19.2-1.9,20.7-1.6c1.4,0.3,1.8,2.5-1.9,5.7c-3.8,3.3-4.5,3.3-6,4.6c3.7-0.5,18.5-4.3,23.2-5.2
			c4.8-1,7.6,1,3,4c-4.6,3-15.9,7.2-18.3,8.3c6.4-1.3,20.7-4.6,22.9-2.9c2.2,1.7,1,4.5-0.5,4.9"/>
	</g>
</g>
</svg>
