<?xml version="1.0" encoding="utf-8"?>
<!-- Generator: Adobe Illustrator 21.0.0, SVG Export Plug-In . SVG Version: 6.00 Build 0)  -->
<!DOCTYPE svg PUBLIC "-//W3C//DTD SVG 1.1//EN" "http://www.w3.org/Graphics/SVG/1.1/DTD/svg11.dtd">
<svg version="1.1"
	 id="svg8552" inkscape:version="0.91 r13725" sodipodi:docname="taz.svg" xmlns:cc="http://creativecommons.org/ns#" xmlns:dc="http://purl.org/dc/elements/1.1/" xmlns:inkscape="http://www.inkscape.org/namespaces/inkscape" xmlns:rdf="http://www.w3.org/1999/02/22-rdf-syntax-ns#" xmlns:sodipodi="http://sodipodi.sourceforge.net/DTD/sodipodi-0.dtd" xmlns:svg="http://www.w3.org/2000/svg"
	 xmlns="http://www.w3.org/2000/svg" xmlns:xlink="http://www.w3.org/1999/xlink" x="0px" y="0px" viewBox="0 0 162.3 175.7"
	 style="enable-background:new 0 0 162.3 175.7;" xml:space="preserve">
<style type="text/css">
	.st0{fill:#825810;}
	.st1{fill:#E0D0BB;}
	.st2{fill:#FFFFFF;}
	.st3{fill:#ED1847;}
	.st4{fill:#A72244;}
</style>
<sodipodi:namedview  bordercolor="#666666" borderopacity="1.0" fit-margin-bottom="0" fit-margin-left="0" fit-margin-right="0" fit-margin-top="0" id="base" inkscape:current-layer="layer1" inkscape:cx="81.137118" inkscape:cy="87.874682" inkscape:document-units="px" inkscape:pageopacity="0.0" inkscape:pageshadow="2" inkscape:window-height="744" inkscape:window-maximized="1" inkscape:window-width="1280" inkscape:window-x="-4" inkscape:window-y="-4" inkscape:zoom="3.0896271" pagecolor="#ffffff" showgrid="false" units="px">
	</sodipodi:namedview>
<g id="layer1" transform="translate(1061.1371,-673.91609)" inkscape:groupmode="layer" inkscape:label="Layer 1">
	<g id="g8561" transform="translate(-1064.7131,670.74815)">
		<path id="path8563" inkscape:connector-curvature="0" d="M77.2,138c1.2,0,2.1,0.1,2.3,1.1s-0.1,1.1-1.5,2.2s-2.7,1.7-4.1,2.7
			c-1.4,1-4.2,2.8-4.4,4.5c-0.2,1.7,0.1,2.7,1.5,2.7c1.4,0,3.1,0.2,5.4,0.2c2.3,0,4.4,0.5,7.1,1.3c2.7,0.8,3.9,1.9,7.8,3.8
			c3.9,1.9,8.3,4.1,11.9,5s6.2,1.1,7.8,0.6s1.3-1.8,1.3-1.8s0.9,0.5,2.3-0.5c1.4-1,0.1-3.8-1-4.9c-1.1-1.1-2.3-2.1-2.3-2.1
			s0.3-1.7-1.6-3.1c-1.9-1.4-4-2.7-7.8-2.9c-3.8-0.2-7.7,0.8-13,1c-5.4,0.2-9.5-0.8-10-1.1c-0.5-0.3-0.2-0.8,0.8-1.3
			c1.1-0.5,7.7-4.4,10.6-6.9l1.5,0.3l0.1-0.8l0.6,0.6c0,0,1.3,0.5,1.4-4.5c0,0,1.1,0.4,1.3-0.4s0.1-3.3-3.8-4.5
			c-3.8-1.2-6.7-1.6-9.4-3.2c-2.7-1.5-4-2.8-4-2.8s6-7.8,8.8-11.9c0,0,1.8,1.1,6.4,1.3c4.6,0.2,6.3-2.7,5.9-6.2s-2.3-5.2-3.4-5.6
			c0,0,0-1-0.2-1.6c0,0,3-3.4,8.5-16.2c0,0,4.6,2.9,6.8,4.9c2.1,2,5.4,5.7,6.9,5.9l0.3-0.5c0,0,2.3,2.5,4.6,0.8c0,0,0.3-0.8-0.3-1
			c0,0,2.6-0.2,2.8-1.4c0,0-0.1-0.5-1-1c0,0,4.3-3.1,5.8-6.8s0.6-3.1,1.9-4.8c1.4-1.8,3.2-4.5,5.3-4.6c0,0,1.5,1.2,5.9,0.8
			c4.3-0.4,6-1.9,7-2.9c0,0,2,0.2,3.1,0c1.2-0.2,2.3-0.1,3.4-0.1c0,0-1.1,2.6-0.6,4.7s1.1,2.8,2.6,2.8s2.7-1.7,3.7-2.9
			c1-1.2,2.7-8.3-1.5-8.8c-4.1-0.6-6.4-0.3-7.5-0.5c-1-0.2-2-1.4-1.9-1.8c0.1-0.4,1.7-2.9,2.5-3.2c0.8-0.3,1.4,0.6,3.3,0.7
			c0,0,0.1,2.2,1.6,2.6c1.6,0.4,2.4,0.6,4-0.7c1.6-1.2,4.5-7.4,1.4-9c-3.1-1.5-4.1-0.4-7.2,0.9s-5.7,1.7-7.6,1.6
			c-1.8,0-2.7-0.9-2.1-1.9c0.6-1,1.6-1.6,3.7-3c0,0-0.2,1.5,1.5,1.7c1.7,0.2,4.1,0,6.5-3s1.6-8,0.5-9s-2.9-2.7-5.9,0
			s-6.3,6.3-10.9,10c-4.6,3.7-7.9,4.9-10.5,2.6c0,0,1.3-0.6,2.7-1s3.8-2.4,2.9-4.2c-0.9-1.7-4.2-3.5-7-2.3c-2.8,1.2-7,3.8-7.1,6.9
			s2,3.7,3.7,4.8c1.7,1.1,3.8,2.3,4.4,4.8s0.6,6.7-0.8,8.1s-4.3,3.6-6.7,4.8s-4.5,3.2-4.5,3.2s-4.3-2.4-6.3-5.2
			c-2-2.8-3.3-6.5-3.3-6.5s1.3-7.7-1.3-11.5c0,0,1.6,0.2,1.9,0c0.3-0.2-0.1-3.6-4.3-5c0,0,1.2-0.9,0.7-1.5s-1.6-1.2-5.4-0.7
			c0,0,1.1-4.3-0.2-5.4s-3.2-2.3-3.5-2.2c-0.3,0.1-0.6-2-1.7-2.3c0,0,2.6-0.1,3.2,0.2s0.1-1.2-0.8-1.7c-1-0.5-2.5-1.2-4.6-1.2
			c0,0,0.2-3.5-0.7-4.1s-1.3,1-1.3,1s0.1-4.5-1.7-4.7c0,0-0.8,0.3-0.8,1.8c0,1.5-0.2,1.9-0.2,1.9s-2.9-1.7-6.8,0c0,0,1.7-1.5,3-1.8
			c1.2-0.3,0.4-1.6-2-1.1c-2.4,0.5-4.6,1-6.7,3c0,0,0.3-1.5,1.5-2.6c1.2-1.1,2.2-3.1-0.9-1.9c-3.1,1.2-4.1,5.1-4.1,5.1
			s-0.6-2.3-1.2-1.4c-0.7,0.9-1.4,4.3-1.4,4.3s-1.9-2-2.6-3.4c-0.7-1.4-1-4.4-1-5.6c0-1.3-0.3-2-1.7-0.4c-1.4,1.6-1.8,3.5-1.6,5.3
			c0,0-0.7-1.7-1.1-1.1c-0.5,0.6-1.6,1.1-1.2,4.9c0.4,3.8,3.1,5.8,3.1,5.8s-1.2,0-1.5,1.9c0,0-1.5-0.3-2.6-1.8
			c-1.1-1.5-1.3-2.2-1.6-3.3C58.9,39,58,38.8,58,40.8c0,0-0.9-0.9-2.3-1.1c-1.4-0.1-3.3,0-2.1,1.5c0,0-1.8-0.7-3.3,0.5
			s-1.5,1.9-0.4,2.3c0,0-1,1.6-0.3,2c0,0-0.9,1.5,0.1,3.3c0,0-1.3-1.2-3.8-0.5c0,0,0.4,1.2,0.7,1.5c0,0-1.5,0.2-0.3,1.5
			c0,0-4.3,0-8.1,0.6s-6.1,1.2-9.2,0.4c-3.1-0.8-6.5-2.8-8.6-4.8c0,0,2.8-1.7,5.5-4.4c2.7-2.6,2.9-2.8,5.7-3.5
			c2.8-0.7,4-0.8,4.6-1.2c0,0,2.7,0.2,4-0.7c0,0,2.2,0.7,4.9-1c2.8-1.7,4.5-4.7,5.9-6.3c1.4-1.6,1.8-1.2,3.3-1.9s2.4-1.7,1.3-4
			s-1.1-3.6-2.9-5.2c-1.8-1.6-3.1-3.3-4.6-1.3c-1.5,2-0.9,4.7,2.7,7.9c0,0-2,1.3-3.4,1.1s-2.4-1.5-2.7-3.8c-0.3-2.3-0.4-4.2,0.4-6
			c0.8-1.8,2.4-5.3,3.5-5.1c0,0,0.3,2.5,1.6,3.8c1.3,1.3,2.5,1.5,3.5,0.3s2.7-4.7,1.6-8.6C54,4,52.3,3,50.3,3.2
			c-2,0.2-4.2,0.8-6.7,6.1c0,0-0.7-3-4.1-4.9s-3.1-1.5-4-0.3c-0.9,1.3-0.8,2.3-0.7,4.6s-0.4,5.3-0.8,6.3c0,0-1.6-2.6-4.3-3.4
			s-3.6,0.7-4.3,3.3c-0.8,2.7-0.9,4.8,0.7,9.9c1.6,5.2,2.6,7.4,5.2,10.2c0,0,1.2,1.2-2.8,1.7c-3.9,0.5-4,0.7-9.8,1.1
			c-5.8,0.4-13.2,2.2-15.1,7.7c0,0,0.7,0.6,2.3-0.3c0,0-2.3,2-1.4,5.1c0,0,0.8,0.6,1.2-0.2c0.4-0.8,0.8-1.1,0.8-1.1s-0.1,3.6,1.1,4
			c0,0,0.5-0.3,0.8-0.8c0,0,0.5,0.5,1.4,1.5c0.9,1,3.8,3.5,7.4,5.1c3.6,1.5,9.2,5.2,12.2,7.9c3,2.8,6,6.3,6,6.3s1,4,1.5,8.2
			c0.5,4.2,1.3,10.7,2,15.2s1.8,8.7,2.1,12.2c0.3,3.5-0.8,8.3-1,10.7c-0.3,2.4-0.1,5.3-1.3,7.9c0,0-3.2-3.3-4.3-6.6
			c-1-3.3-2.7-8.8-4.9-11.8c-2.2-3-4.3-4.8-7-4.8c0,0-0.8,0.9,0.2,1.6s2.1,2.4,3.1,4.3c1,1.9,1.3,3.3,1.3,4.6c0,0-1.4-1.3-1.6-0.2
			c-0.2,1.1,0.3,2,0.9,3.3c0.6,1.3,0.7,5.2,0.8,7.6c0.1,2.3,0.8,4.9,2.6,6.6c1.8,1.7,3.8,2.5,4.8,2.9c0,0-2.3,2.7-4.9,5
			c-2.6,2.3-3.4,4.5-3.4,4.9c0,0.4,2.2,0.3,2.2,0.3s-1.7,3.2-1,4.7h1.4c0,0-0.8,3.2,1.5,3.8l0.4-0.4c0,0,1,1.8,2.3,2.2
			c1.3,0.4,4.1,2.2,10.5,2.3c0,0-5.2,2-7.8,2.3c-2.7,0.3-6.4,0.2-9.1,0c-2.7-0.2-5.6-0.6-10,3.4c-4.4,3.9-4.8,6.7-4.4,7.7
			c0,0-1.9,3.9,0.4,6.5c2.3,2.5,3.5,0.2,5.4-0.8c0,0,0.3,1,3,1.1c2.6,0,5-0.8,8.2-3c3.1-2.2,8.1-6.5,11.9-9.2
			c3.8-2.7,8.7-5.6,10.9-6.7c2.3-1.1,2.5-2.2,2.1-2.9c-0.5-0.8-0.9-1.5-4.4-2.1c-3.5-0.6-7-1.2-7.8-3.1s0.1-3.1,3.4-5.5
			c3.3-2.4,10.9-5,13.9-6c3.1-1,5.4-0.8,8.8-1C71.2,138.4,74,138.1,77.2,138L77.2,138L77.2,138z"/>
		<path id="path8565" inkscape:connector-curvature="0" class="st0" d="M38.1,128.1c0,0-1.1,3.9-2.8,5.8c0,0-3.6-0.6-5.1-2.8
			c-1.6-2.3-2.4-3.4-2.6-7.3c-0.2-3.9-0.6-7.4-1.8-9.1c0,0,1.3,1,1.8,1.4c0,0,0.5-3.9-1.4-7c-1.9-3-2.8-3.9-3.8-4.5
			c0,0,2.4-0.2,4.8,2.6c2.4,2.9,3.5,4.3,4.9,9.3C33.4,121.6,35.8,126.4,38.1,128.1C38.1,128.1,38.1,128.1,38.1,128.1z"/>
		<path id="path8567" inkscape:connector-curvature="0" class="st1" d="M104.3,57c-1.4-1.8-3.5-2.2-5.6-2.2c-2.1,0-3.9,0.1-3.9,0.1
			c1.6,0.6,2.9,1.3,3.3,2.3c0.4,1-0.1,3.6-1.9,5.4c-1.7,1.8-5.2,3-8.5,3.3c-3.3,0.4-6-1.9-6.4-3.2c-0.5-1.3,1-3.8,1-3.8
			c-1,0.6-3.4,2.7-4,3.6c-0.7,0.9-1.2,1.1-1.2,1.1c0.5-1.3,2.3-3.1,2.3-3.1C73.2,56.1,69,54.8,65.7,54s-5,0.4-5,0.4
			c0.7,0.1,3.1,1.2,3.1,1.2s-2-0.1-5,0.3c-3,0.5-4.9,3.4-4.9,3.4c1.3-0.4,2.1-0.4,2.8-0.2c-0.6,0.4-1.3,0.9-1.9,1.7
			c-3.1,3.9-4.6,10.9-5,15.2c-0.5,4.3-0.1,13,0.9,17.3c0.9,3.7,0.6,5.5,0.6,9.1c-0.2,3.5-0.7,8.4-1.5,14c-1.1,7-0.5,9.4-0.2,11.7
			c0.3,2.2,3.7,5.3,11.2,5c7.5-0.3,13.5-6.8,17-10.3s8.6-11.7,8.6-11.7c-0.4-0.1-1.1-0.9-1.1-0.9c-10.6,4.6-12.9,9.4-16.7,10.5
			c-3.9,1.1-6.9,0.6-8.8-3.1c-1.9-3.7-1.6-5.5-1.6-14c0-0.4,0-0.7,0-1.1c0.3-0.3,0.6-0.4,0.6,0c0.1,1.4,0,5.4-0.1,7.4
			c-0.1,2,0.2,5.3,1.7,7.8c1.5,2.5,3.9,3.2,5.7,3.1c1.8-0.2,3.9-1.1,5.6-2.3c1.7-1.3,6.9-5.9,11.8-7.9c4.9-2,4.2-0.9,4.2-0.9
			s-0.9,0.1-1.5,0.4c0,0-0.4,0.8,3.7,1.7c4.1,0.9,7.1,0.5,8.3-1.3c1.2-1.8,1.5-5.9-2.2-8.8l-0.2,1.6c0,0,0.6,1-0.4,0.4
			c-1.1-0.5-3.9-1.1-7-1c-3.1,0.1-6.8,1.4-9.4,2.3c-2.7,0.9-3.1,2-5.2,3.3c-2.2,1.3-4.9,3-7.4,2.1c-2.4-0.9-3.9-4.2-4.7-8.4
			c-0.8-4.1-0.6-8.9,0.9-18.4c1.5-9.5,2.5-17.2,5.8-21.1c0,0-0.2,0-0.7,0c-0.3,0-0.8,0-1.3,0.1c-1,0.2-0.4-0.7,1.6-0.8
			s3.4,0.6,4.9,1.4s1.3,0.9,0.1,0.4C71.7,63.2,71,63,71,63c-0.6,1.9-1.3,3.6,0.8,6.9s7.8,3.3,10.7,2.6c2.9-0.7,6.5-3.8,7.6-5
			c1.1-1.2,1.8-2.1,2.8-2.2c1-0.1,0.8,0.1-0.1,0.3c-0.9,0.2-0.7,0.5-0.7,0.5c2.4,0.8,3.6,0.5,6.5,0.6c2.9,0,3.6-0.2,5.7-2.6
			C106.3,61.7,105.7,58.8,104.3,57L104.3,57L104.3,57z"/>
		<path id="path8569" inkscape:connector-curvature="0" d="M78.2,65.8c-0.3-0.4-1.5,0.2-1.2,0.8S78.7,66.4,78.2,65.8L78.2,65.8z"/>
		<path id="path8571" inkscape:connector-curvature="0" d="M77.4,69.7c-0.5,0.1-0.5,0.6-0.4,0.8s0.5,0.2,0.8-0.2
			C78.1,69.9,78.1,69.5,77.4,69.7L77.4,69.7z"/>
		<path id="path8573" inkscape:connector-curvature="0" d="M73.5,65.8c-0.4,0.2,0,0.7,0.3,0.3C74.2,65.8,73.7,65.6,73.5,65.8
			L73.5,65.8z"/>
		<path id="path8575" inkscape:connector-curvature="0" d="M101.5,63.7c-0.6,0.1-0.6,0.8-0.1,1s0.8,0.2,0.8-0.2
			C102.3,64.2,102,63.7,101.5,63.7C101.5,63.7,101.5,63.7,101.5,63.7z"/>
		<path id="path8577" inkscape:connector-curvature="0" d="M101.7,60.3c-0.4,0.1-0.1,0.7,0.3,0.4C102.4,60.4,102,60.2,101.7,60.3
			L101.7,60.3z"/>
		<path id="path8579" inkscape:connector-curvature="0" d="M103.1,59.1c-0.3,0-0.1,0.6,0.3,0.4C103.8,59.2,103.4,59.1,103.1,59.1
			L103.1,59.1z"/>
		<path id="path8581" inkscape:connector-curvature="0" class="st2" d="M62.9,105.5c0,0,0.7,2.5,2.5,4c1.8,1.5,2.1,0.7,2.1,0.7
			s0.6-3.2,0.2-5.3c-0.4-2.1-1-3.2-2.1-2.3C64.4,103.4,63.7,104.2,62.9,105.5L62.9,105.5z"/>
		<path id="path8583" inkscape:connector-curvature="0" class="st2" d="M68,110.2c0,0,1.6,0.2,4.2-1.4c2.6-1.6,3.6-2.9,5.3-3.6
			c0,0-0.8-3.5-1.9-6.8s-2.1-5.3-2.5-5.3s-0.9,2.4-1.4,5.5S69,107.3,68,110.2L68,110.2z"/>
		<path id="path8585" inkscape:connector-curvature="0" class="st2" d="M78.2,104.8c0,0,2.1-0.8,4.5-1.6c0,0-0.1-1.8-1-3.2
			s-1.2-1.1-1.6-0.3C79.7,100.5,78.4,103.9,78.2,104.8L78.2,104.8z"/>
		<path id="path8587" inkscape:connector-curvature="0" class="st2" d="M83.6,103c0,0,3-0.7,4.6-0.7c0,0,0.1-1.9-0.8-3.3
			c-0.8-1.4-1.1-1.9-1.9-0.6C84.7,99.6,83.2,102.3,83.6,103L83.6,103z"/>
		<path id="path8589" inkscape:connector-curvature="0" class="st2" d="M88.6,102.2c0,0,4.1-0.1,6.4,0.9c0,0,0.6-2.7-0.1-5.4
			c-0.7-2.7-1.9-4.2-2.5-4.6c-0.6-0.5-0.7-0.2-1.1,1.4c-0.4,1.5-1,4.6-2.8,6.8L88.6,102.2L88.6,102.2z"/>
		<path id="path8591" inkscape:connector-curvature="0" class="st3" d="M62.2,87.2c0,0-0.7,5.4-0.8,8.4c-0.1,3,0.2,6,1.1,9.2
			c0,0,1.1-1.7,2.2-2.3s1.9-1.3,2.7,0.5c0.8,1.8,0.7,4.1,0.7,4.9c0,0,1.1-3.1,2.1-6.7s1.3-7,2-8c0.7-1,0.8-1,1.5-0.1s1.9,4,2.5,6.3
			c0.7,2.3,1.4,4.7,1.4,4.7s0.9-2.4,1.6-4c0.7-1.5,1.1-2.2,1.9-1.6c0.7,0.7,1.7,2.1,1.8,3c0,0,1-2.5,1.8-3.4
			c0.7-0.9,1.1-1.4,1.5-1.2c0,0-0.7-4.4-2.5-7.9c-1.8-3.5-4.1-6.3-7.1-6c-3.1,0.3-4.2,2.6-4.5,3.6c0,0,0.8,1.2,0.7,2.7
			c0,0-0.6-2.3-2.2-4.1S66.2,81.1,62.2,87.2C62.2,87.2,62.2,87.2,62.2,87.2z"/>
		<path id="path8593" inkscape:connector-curvature="0" class="st4" d="M86.9,97.1c0,0-1-5.5-2.6-8.3c-1.6-2.8-3.3-5-5-5.7
			c-1.7-0.7-5.5-1.2-7.4,2.9c0,0-1.8-3.5-4.9-3.2c-3.1,0.3-4.4,3-4.5,3.2c0,0,0.8-4.7,1.4-8s1.7-11.3,4.8-15.4c0,0,0.8-0.3,1.9,0.3
			c0,0-1.4,2.8-0.3,5.1c1,2.3,1.5,3,2.1,3.5c0,0-0.6,4.2,2.8,5.6c0,0,1.6-3.5,1.8-3.6l0.6,0.1c0,0,0.4,1.8,0.4,3.3s-0.1,3.3-0.1,4.1
			c0,0.8,0.1,1.3,0.7,1.4c0.6,0.1,2.2-0.4,3.9-3.2s2-4.7,2.1-7l1.2-0.6c0,0-0.3,2.9,0.5,3.2c0.8,0.3,1.5,0.2,2.3-1.3
			c0.8-1.5,1.8-3.8,2-5.6l0.4-0.6c0,0-0.2,2.1-0.2,3.6c0,1.5,0.3,2.2,0.9,2.5c0.6,0.4,1.4-0.1,2.5-1.8c1.1-1.7,2.3-4,2.3-4
			s-0.6,3.1-1.3,5.3c-0.7,2.2-1.1,3.3-0.7,4c0,0-0.4,1.6-1.4,3.8c-0.9,2.3-2.1,4.7-2.1,7.4c-0.1,2.8,0.6,4.2,0.6,4.2
			s-0.7,2.1-1.2,3.7s-1.2,3.4-1.8,4.1C88.5,100.3,87.7,98,86.9,97.1C86.9,97.1,86.9,97.1,86.9,97.1z"/>
		<path id="path8595" inkscape:connector-curvature="0" class="st1" d="M95,77.1c0,0-1.7,4.2-2.4,6.7c-0.7,2.6-1.4,4.5-0.5,8.3
			c0,0,3.3,2.6,3.6,6.5c0,0,3.5-6.2,5.8-10.8c2.3-4.6,6-16.4,6.5-17.8c0.4-1.4,0.4-1.8,0-2.6c-0.4-0.8,0-1.2,0.4-0.5
			c0.4,0.7,0.8,1.1,0.8,2.1c0,0,1.1-2.7,0.3-7.1c-0.9-4.4-1.4-4.4-1.4-4.4s1.3-0.5,2.2-0.1c0,0-1.1-3.1-4.8-3.8c0,0,0.1-0.4,0.7-0.9
			c0.6-0.5,0.6-1-0.8-1.1s-6.9,0.3-8.5,2.7c0,0,3.6,0,5.4,0.6c1.8,0.6,4,3.4,3.8,5.7c-0.3,2.3-1.1,4.4-3.9,6.4c0,0-1.3,5-2.8,7
			C97.7,75.9,96,77,95,77.1L95,77.1z"/>
		<path id="path8597" inkscape:connector-curvature="0" d="M103.1,63.4c0,0-0.8,0.6,0.2,0.7c0.9,0.1,5.9,0.2,11,2
			C114.3,66,112.4,64.5,103.1,63.4L103.1,63.4z"/>
		<path id="path8599" inkscape:connector-curvature="0" d="M102.8,60.9c0,0-0.5,0.5,0.3,0.5c0.8,0,7.1-1.2,12.2-0.4
			C115.3,61,110.6,60.1,102.8,60.9C102.8,60.9,102.8,60.9,102.8,60.9z"/>
		<path id="path8601" inkscape:connector-curvature="0" class="st2" d="M72.8,71.7c0,0,2.8,1.3,3.8,1.5c0,0-1.4,2.8-1.6,3.1
			S72.4,75.2,72.8,71.7L72.8,71.7z"/>
		<path id="path8603" inkscape:connector-curvature="0" class="st2" d="M78.1,73.5c0,0,3.7,0,5.9-1c0,0,0.4,2.3-1.3,5.2
			c-1.7,2.9-2.4,3.5-3.3,3.9c-0.9,0.5-1.2,0.7-1.1-0.8C78.3,79.3,78.4,74.6,78.1,73.5C78.1,73.5,78.1,73.5,78.1,73.5z"/>
		<path id="path8605" inkscape:connector-curvature="0" class="st2" d="M86.2,71.3c0,0-0.4,3.1,0.2,3.3c0.7,0.1,1.8,0,3.6-6.3
			C90.1,68.2,86.8,70.9,86.2,71.3C86.2,71.3,86.2,71.3,86.2,71.3z"/>
		<path id="path8607" inkscape:connector-curvature="0" class="st2" d="M91.6,66.7l-0.4,0.4c0,0-0.2,3-0.2,3.8
			c0,0.8,0.3,2.2,0.8,2.3c0.5,0.1,1.5-0.6,4.3-5.9C96.1,67.3,93.7,67.3,91.6,66.7C91.6,66.7,91.6,66.7,91.6,66.7z"/>
		<path id="path8609" inkscape:connector-curvature="0" class="st2" d="M96.8,67.3c0,0-0.5,3.7-1.3,5.7c-0.8,2.1-1.3,3.5-0.8,3.7
			c0.5,0.2,1.9-0.3,3.8-2.8c1.9-2.4,2.5-5,2.9-6.8C101.4,67.1,98.7,67.5,96.8,67.3C96.8,67.3,96.8,67.3,96.8,67.3z"/>
		<path id="path8611" inkscape:connector-curvature="0" class="st2" d="M93.6,57.2c0.3,0.9-0.9,2.1-2.7,2.8
			c-1.8,0.7-3.6,0.4-3.9-0.6c-0.3-1,1-2.2,2.9-2.8C91.7,56,93.3,56.3,93.6,57.2L93.6,57.2z"/>
		<path id="path8613" inkscape:connector-curvature="0" class="st0" d="M113.5,155.7c-1.6-2.1-5.6-4.5-7.3-4.8c0,0-0.6-0.4,0.6-0.2
			c1.1,0.2,3.5,1.5,4.1,2.1c0,0,0.5-1.3-2.1-3c-2.6-1.6-5-2.6-8.9-2.3c-3.9,0.3-11.8,1.2-15.7,0.9c-3.9-0.3-6.7-1.2-6.3-2
			c0.4-0.8,2.2-1.8,5.2-3.6c3-1.8,6.8-4.3,7.1-5.3l1.2,0.6c0,0,0.2-1.3,0-1.8c0,0,1.2,0,1.5,1.4c0,0,0.9-1.6,0.2-5
			c0.7,0.3,1.4,0.6,1.7,1c0,0,0-2-1.6-2.7c-1.6-0.8-4.5-1.8-6.9-2.3c-2.4-0.5-5.2-1.6-8.4-5c0,0-3.3,3.8-6.9,6.3
			c-3.5,2.4-8.7,4.2-12.3,4.1c-3.6,0-8.6-2.3-9.6-5.2c-0.9-2.7-0.5-7.9-0.2-10.6c0.5-3,0.8-6.2,1.1-9.3c0.4-3.8,1-9.7,0.7-12
			s-1.5-7-1.7-14.7c-0.2-7.7,1.5-17.5,5.9-22.4c0,0-1-0.1-1.8,0.4c0,0-0.1-4,6.8-5.1l-0.5-0.5c0,0-2.5,1.1-4.8-0.5
			c-2.3-1.7-4.2-3.6-4.2-3.6s-1.1-1.2-3.6-1.2c0,0,1.4,1,1.5,1.5c0.1,0.5-0.8,0.2-1.5,0.1c-0.7-0.1-0.9,0.2-0.2,0.5
			c0.7,0.3,1,0.9,0.1,0.9c-0.9,0-6.3,0.1-9.8,0.7s-2.7,1.2-6,0.7c-3.3-0.5-8.7-2.4-11.3-5.6c0,0-3.6,1.3-6.5,1.2
			c0.8-0.3,3.4-0.9,5.1-1.6c2.5-1.1,4.3-2,7-4.9c2.7-2.9,5.8-3.7,7.7-3.9c1.9-0.2,2.4-0.8,2.4-0.8c-0.8-0.1-0.7-0.5-0.5-0.5
			s1.7,0.1,3.1,0.1s2.6-0.9,3-2.1s0-2.7-0.3-3.6c-0.3-0.9-0.2-1.2,0.1-0.7c0.3,0.5,0.5,0.9,0.9,2.5s-0.4,3.1-0.4,3.1
			c3.3,0.5,6.3-2.6,7.3-4c1-1.5,1.5-2.1,2.7-3.2c1.2-1,2.2-1.5,3-1.9c0.8-0.5,1.2-1.3,1.2-1.3c-0.8-3.8-2.3-5.4-3.6-6.8
			c-1.2-1.5-2.6-2.1-3.5-0.9c-0.9,1.1-0.7,2,0,3.6c0.7,1.7,3.2,3.7,3.2,3.7c-0.8,1.1-1.8,1.6-3.5,1.9c-1.7,0.3-2.5-0.1-3.1-0.9
			s-1.1-3-1.2-4.1c-0.1-1.1-0.2-1.7-0.1-3.3c0.1-1.6,0.5-2.7,2-5.5c1.5-2.8,2.5-2.4,2.5-2.4s0-0.6,0-1.1c0-0.5,0.2-3.4,0.5-0.1
			c0.3,3.3,1.4,4.9,2.5,5.7s2.2-0.5,3.3-3.9c1-3.5-1.1-7.2-2.7-8.3c-1.6-1-4.7,0.8-5.9,2.5s-2.3,4.2-2.3,4.2
			c0.1,1.5,0.6,3.1-0.3,4.6c-0.9,1.5-3.1,0.2-3.1,0.2c-1.3,2.4-1.2,3.4-1.2,4s0.4,1.8,0,1.6s-0.6-1.7-0.4-2.9
			c0.2-1.2,1.1-3.1,1.1-3.1c-3.4-2.5-3.5-6.5-3.5-6.5s0.7,1.2,1.1,2.8c0.4,1.5,2.7,3.3,3.9,3.9c1.1,0.6,2.1-0.6,2.1-1.8
			c0.1-1.2-0.4-4-1.8-6c-1.4-2-3.9-3.6-4.9-3.8c-0.9-0.2-1.2,0.5-1.5,1.8s0,3.5,0,5.6c0,2.1-1,4.7-1,4.7c1,1.1,1.4,2.2,1.9,4.6
			c0.5,2.4-1,4.2-2.3,4.2c-1.3,0-3.2-1.6-4.5-3.6c-1.3-2-1.1-3.6-1.1-3.6s0.9,2,2.4,4.4c1.5,2.4,3.9,2,4.4,1.6
			c0.5-0.4,0.6-4-0.8-6.6c-1.3-2.6-4-4.3-5.3-4.7c-1.3-0.5-2.2,0.6-3.3,3.9s-0.2,6,1.6,10.8s3.6,6.9,4.5,7.8
			c0.9,0.9,0.5,1.2,0.3,1.8c-0.2,0.6-1.1,0.8-3.1,1.3c-2,0.5-9,1.1-13.7,1.7s-6.2,1.7-8.3,3.1c-2.1,1.3-2.5,2.6-2.5,2.6
			s1-0.7,1.8-0.7s0,0.6-1.1,2.3C4.2,48.3,5,50.1,5,50.1c0.5-1.3,1.8-2.3,2.1-2.1c0.1,0.1,0.2,0.4,0.2,0.8c0,0,0,0,0,0
			c-0.5,1.9-0.1,2.6,0.2,3.4c0,0,0.2-1.4,1.3-0.8c1.1,0.6-0.5,0.4,2.8,2.9s3.8,2.8,6.2,3.8s5.2,3,8.3,5c3.1,2,8,6.7,9.6,8.5
			c1.6,1.8,0.7,2.3,1.3,4.4c0.7,2.1,0.4,3.1,0.7,5.6c0.3,2.5,0.6,6.5,0.9,7.8c0.5,2.2,1.1,8.6,1.6,10.7c0.5,2.1,1.3,6.6,1.3,8.9
			c0,1.4,0,3.2,0,4.9c0,0,0,0.1,0,0.1c-0.4,3.9-0.8,4.8-1.2,8.5c-0.5,3.7-1.8,7.6-2.1,8.5c-0.7,2.3-2.7,4.2-5.1,6.8
			c-2.4,2.6-5.1,5-5.6,6.2c0,0,1.2,0.1,2.1,0.1c0,0-0.8,0.7-1,2c-0.2,1.3-0.8,2.7-0.8,2.7s1-0.7,1.5-0.1c0,0,0.1,0.1,0.1,0.1
			c-0.5,1.7-0.6,2.8,0.5,3.8c0,0,0.2-1.4,0.7-1.3s0.1,1.6,1.7,2.8c1.7,1.2,5,2.4,8.6,2.6c3.6,0.3,6-0.1,6.3,0.3s-1.7,0.4-4,1.4
			c-2.2,1-5.5,2.2-8.2,2.4c-2.4,0.2-6.3,0.2-9.2-0.1c-3-0.3-4.8,0.1-6.7,1.5s-3.8,3.2-5.1,5c-1.3,1.7-1.7,2.1-1.5,3.2
			c0,0,1.5-2.2,2.6-3c1.1-0.9,2.4-1.5,4.4-1.3c0,0-3.5,0.6-5,2.9c-1.5,2.3-3.1,4.2-2.4,6.5c0.7,2.4,1.7,2.6,2.8,2.4s2-1.2,2.7-1.9
			c0,0-0.8-2.6,0.5-4.8c1.3-2.2,3.2-3.9,6.3-3.9c0,0-3.2,1-4.6,2.7c-1.4,1.7-2,3.8-1.5,6c0,0,0.5,1.4,2.9,1.3c2.4-0.1,5.1-1.5,8-3.5
			c2.9-2,4.5-3.6,8.6-6.9c4.1-3.3,9.2-5.9,11.3-7c2.1-1.1,4.1-1.9,4.1-3.2s-2.1-1.7-4.7-2c-2.6-0.3-6.3-0.9-7.5-3.2s-0.7-4,2.6-6.1
			c2.5-1.6,5-2.9,7.5-3.9c1.4-0.4,3.7-1.2,5.3-1.9c0.5-0.2,1-0.3,1.5-0.5c2.2-0.6,5.4-1.1,7.2-1.3c1,0,2.2-0.1,3.4-0.1
			c3-0.2,7.4-0.4,9.2-0.2c0.2,0,0.3,0,0.4-0.1c0.7,0.1,1.3,0.3,1.5,0.6c0.7,0.9,0.6,2.2-0.2,3c-0.7,0.8-3.1,2.2-5.1,3.6
			s-3.7,2.7-4.2,4.4c-0.4,1.8,0.9,1.6,1.8,1.6c0.9,0,5.9,0,9,0.7s4.6,1.4,7.6,3c3,1.6,8.7,4.7,12,5.7c3.3,1,7.1,2.1,8.6,1.9
			s2.5-0.6,2.4-1.7c-0.1-1.1-1.6-2.9-3.6-4.2c-2.1-1.2-3.1-1.6-3.1-1.8s0.5-0.2,1.6,0.3c1.2,0.5,4.8,3.1,5.4,4.8c0,0,1,0.7,1.8,0.3
			C114.7,159.3,115.2,157.8,113.5,155.7L113.5,155.7L113.5,155.7z"/>
		<path id="path8615" inkscape:connector-curvature="0" class="st0" d="M50.5,45.2c0,0,2.2-1.5,3.4-1.8c1.2-0.2,3.6,0.5,4.7,1.8
			s1.8,2.3,1.8,2.3s0.3-0.7,0.2-1c0,0,1.1,0.9,1.2,2.7s-0.4,4.1-0.9,4.6s1.3-0.9,4.5-0.3s5.8,1.6,5.8,1.6s-1.1-2.5,0.4-5
			c0,0-1.4-0.3-2.4,0.2c-1,0.5-2.5,1.1-2.1,0.5s1.5-2,1.5-2s-0.8-0.3-0.2-0.8c0.6-0.5,1.3-1.3,3.1-1.4s3.5,0,6.2,0.7
			c2.6,0.7,7,2.7,9.1,4.4l-0.1-0.3c0,0,0.1-4.3,1.3-6.6c1.2-2.3,2.2-3.7,2.3-4c0.1-0.4-0.8-1.5-1.5-1.1c-0.8,0.4-3.2,2.2-4.2,4.6
			c0,0-1.2-1.4,3.9-5.3c0,0-0.5-0.6-1-0.7c-0.5-0.1-3.1-0.1-3.1-0.1s2.1,1.7,0.6,2.8c-1.5,1.2-4.6,0.4-7-0.8c0,0,5,1.5,6.3,0.4
			c1.3-1.1-0.6-2.2-1.3-2.4c0,0-3.5-0.2-4.2-0.8c0,0-0.2-0.3,1.7-0.2s7.5,0.1,8.9-0.1s2.6-1.2-0.2-2.1c-2.7-0.9-5.2-0.2-6,0.3
			c-0.8,0.4-1.1,1-1.5,0.6c-0.5-0.5,0.7-2.3,4.2-3.8c0,0-2.8-0.1-5.3,1.2c-2.5,1.3-3.6,2.6-3.6,2.6s-0.7-3.1,2.9-5.6
			c0,0-2.9-0.1-5.6,5.9c0,0-1.1-0.6-1-1.8c0,0-0.9,2-1.3,5c0,0-2.5-1.7-3.6-3.9s-1.3-3.8-1-7.1c0,0-1.9,1.1-2.1,4.1
			c-0.2,2.9,0.3,3.1-0.5,3.1s-1.1-1.9-1.1-1.9s-1.9,3.9,0.2,6.7c2.1,2.8,3.7,3.6,3.7,3.6s-2.1-0.5-2.5,0.6s-0.5,1.6,0.7,2.6
			c0,0-0.8,0.3-2.6-1.1s-3.5-2.8-4.1-5.3c0,0-0.2,0.6-0.3,1.2c0,0-2.4-2.6-4.4-1.4c0,0,1.1,1,1,1.5c-0.1,0.5-0.3-0.5-2-0.4
			c-1.7,0.1-2.9,1.3-2.9,1.3l1.2,0.2C51.2,43.3,50.4,44.4,50.5,45.2C50.5,45.2,50.5,45.2,50.5,45.2z"/>
		<path id="path8617" inkscape:connector-curvature="0" d="M75,42c-1.2-0.1-1.9,0.1-2.4,0.6s-1.2,0.1-0.1-0.6s3.4-1.1,6.1,0.4
			c0,0,0.8,0.7-1.2,0.1C75.3,41.9,75,42,75,42C75,42,75,42,75,42z"/>
		<path id="path8619" inkscape:connector-curvature="0" class="st1" d="M56.7,44.6c-1.2-0.6-2.8-0.9-4.4,0.2
			c-1.6,1.1-3.7,2.5-1.1,5.5c2.6,2.9,5.2,4.2,7,4c1.8-0.2,3-2.5,2.8-3.9C60.7,49,59,45.8,56.7,44.6C56.7,44.6,56.7,44.6,56.7,44.6z"
			/>
		<path id="path8621" inkscape:connector-curvature="0" class="st0" d="M89.1,38.1c0,0,0.1,0.2,0.1,0.5c0,0,1,0.3,1.9,1
			c0,0,1.2-1.1,2.5-1.2c0,0,0.3-3.3-0.4-3.4l-1.2,1.5c0,0-0.3-0.6-0.3-1.4s-0.3-3.6-1.2-3.6c-0.5,0,0.6,1.1-0.3,3.2
			c0,0,1.8,0.9,1.1,2C90.7,37.9,90.1,37.9,89.1,38.1C89.1,38.1,89.1,38.1,89.1,38.1z"/>
		<path id="path8623" inkscape:connector-curvature="0" class="st2" d="M79.8,60c0,0-3.6-2.5-5.2-3.2c0,0-1.3-2.5-0.8-4
			c0.5-1.5,2.4-3.1,5.5-2.4c3.1,0.7,6.2,2.2,8.7,4.6C88,55,85.6,55.8,79.8,60C79.8,60,79.8,60,79.8,60z"/>
		<path id="path8625" inkscape:connector-curvature="0" d="M84.3,53.7c-0.9-0.3-2.1,0.7-1.7,2.2c0.4,1.5,1.5,1.2,1.7,1.1
			C84.5,57,85.7,54.1,84.3,53.7C84.3,53.7,84.3,53.7,84.3,53.7z"/>
		<path id="path8627" inkscape:connector-curvature="0" class="st2" d="M88.5,54.9c0,0-0.3-4.4,2.2-8.4c2.5-4,3-4.8,4.3-2.8
			c1.3,2,1.3,8.7-0.3,11C94.7,54.7,92.1,54.2,88.5,54.9C88.5,54.9,88.5,54.9,88.5,54.9z"/>
		<path id="path8629" inkscape:connector-curvature="0" d="M91.9,50.9C91,51,90.5,52,90.5,52.7s0.3,2,1,2s1.3-1.5,1.3-2.2
			S92.5,50.9,91.9,50.9C91.9,50.9,91.9,50.9,91.9,50.9z"/>
		<path id="path8631" inkscape:connector-curvature="0" class="st0" d="M101.4,46.2c0,0-0.2-0.8-1.3-1.2s-1.4-1-2.3,0
			c-0.9,1.1-1.5,2.8-1.5,2.8s0,3.9-0.4,5.6c0,0,0.5-0.8,1-2.2c0.5-1.4,1.5-3.8,2.5-4.5C100.4,46,100.8,46,101.4,46.2
			C101.4,46.2,101.4,46.2,101.4,46.2z"/>
		<path id="path8633" inkscape:connector-curvature="0" class="st1" d="M96.6,53c0,0,1.1-2.8,1.8-4c0.6-1.2,1.5-2.5,3-2.2
			c0,0,0.3,1.1,0.3,2.7c0,1.6-1,2.2-1,2.2s-2.5,0.8-3.2,1.3C97.4,52.9,95.8,54.2,96.6,53L96.6,53z"/>
		<path id="path8635" inkscape:connector-curvature="0" class="st0" d="M108.7,70.5c0,0,0.2,1.2,0.5,1.1c0.3,0,0.3-1.2,0.3-1.2
			s1.7,4.4,3.7,6.6c2,2.2,5,4.6,6.3,5.1c0,0-0.9,1.2-1.1,2.2c-0.1,1-0.1,2,0.2,1.2c0.3-0.8,0.6-2.3,1.8-3.2c1.2-0.9,3.6-3,5.8-4.3
			c2.2-1.3,3.1-1.7,4.5-3.3c1.4-1.5,2.4-3.4,2.1-6.1c-0.3-2.7,0-4.3-0.9-5.4c-0.9-1.1-2.1-2.1-4.1-3.4s-3.8-2.9-3.3-4.7
			c0.5-1.8,2.5-3.6,4.6-5c2.1-1.3,4-1.2,5.4-0.9c1.4,0.4,3.1,1.3,3.1,2.6c0,1.2-2.3,2.8-4,3.3c-1.7,0.4-3.7,1-3.4,1.4
			c0.3,0.5,1.4-0.2,1.4-0.2s1,1.3,2.8,1.6c1.9,0.3,4.3-0.3,7.1-2.4c2.8-2.1,6.9-5.8,8.8-7.4c1.9-1.6,3.2-3.8,4.9-4.7
			c1.8-0.9,3.4-1,4.6,1.4c1.1,2.4,0.4,7.2-2.4,8.9c-2.8,1.7-4.8,1.9-5.3,0.6s0.3-3.5,0.9-4.7c0.6-1.3,1.2-3.6,1.2-3.6
			s-1.3,2.1-2.1,3.5c-0.8,1.4-0.8,3.5-0.8,3.5s-2.1,1.6-3.3,2.3c-1.1,0.7-2.1,2.3-1.1,3.3s4,0.9,5.7,0.6c1.7-0.3,4.8-1.6,6.8-2.4
			s2.5-0.9,3.7-0.3s2.5,1.6,1.4,4.8c-1.1,3.2-3.1,4.8-4.6,4.2c-1.6-0.7-3.1-2.4-1.3-5c1.8-2.6,1.8-3.3,1.1-2.7
			c-0.7,0.6-2.2,2.5-2.4,4.7c0,0-0.8,0.3-1.4-0.1s-0.9-1.1-2.1-0.4c-1.2,0.7-2.5,2.8-2.9,3.5c-0.3,0.6,0.2,1.6,1,2.1
			c0.8,0.5,1.8,1,4.4,1s4.8-0.1,5.8,1.2c1,1.3,1,3.9,0.2,5.7c-0.7,1.8-2.5,4.4-4.1,3.9c-1.6-0.5-2.2-2.4-1.6-4.7
			c0.5-2.3,1.2-3.8,1.2-3.8s-0.7,0-1.2,1.1c0,0-2,0-2.7,0s-1.1,0.3-2.3,0.3c-1.1,0-1.6-0.3-2.6,0.4c-1,0.7-2.3,2-5.1,2.2
			c-2.7,0.2-5,0.2-5.8-0.1c-0.9-0.4-1-1.2-1.6-1.8c-0.6-0.6-0.9-0.3-0.5,0.3s0.4,1,0.4,1s-1.2,0.5-3.2,2.5s-2.7,3.3-3,4.2
			c-0.3,0.9-0.2,2.4-1.8,4.6c-1.5,2.1-3.2,3.9-5.5,5.2c0,0-0.2,0.7,1.2,1.3c0,0-1.2,0.9-2.9,0.8c0,0-0.3,1.1,0.8,1.2
			c0,0-0.9,1-2.4,0.1c-1.6-0.9-2.3-1.7-2.3-1.7l0.3,1c0,0-0.7,0-1.4-0.9c-0.7-0.9-3.1-2.8-4.6-4.5c-1.5-1.7-5.4-4.3-7.2-5.1
			C104.5,82.7,107.6,73.9,108.7,70.5L108.7,70.5L108.7,70.5z"/>
		<path id="path8637" inkscape:connector-curvature="0" d="M142.1,63.2c0,0,1.6,3.5-1,6.8C141.1,69.9,145.2,66.6,142.1,63.2
			L142.1,63.2z"/>
		<path id="path8639" inkscape:connector-curvature="0" d="M73.7,67.9c0,0-5.1,0.4-8.8,4.5c0,0,0.4-2.9,7.9-4.8
			C72.7,67.5,74,67.2,73.7,67.9L73.7,67.9z"/>
		<path id="path8641" inkscape:connector-curvature="0" d="M74.7,69.1c0,0,0.7,0.5,0.1,0.7c-0.6,0.2-3.5,1.4-6.3,5.2
			C68.4,75,67.5,74.3,74.7,69.1L74.7,69.1z"/>
	</g>
</g>
</svg>
