<?xml version="1.0" encoding="utf-8"?>
<!-- Generator: Adobe Illustrator 21.0.0, SVG Export Plug-In . SVG Version: 6.00 Build 0)  -->
<!DOCTYPE svg PUBLIC "-//W3C//DTD SVG 1.1//EN" "http://www.w3.org/Graphics/SVG/1.1/DTD/svg11.dtd">
<svg version="1.1"
	 id="svg8552" inkscape:version="0.91 r13725" sodipodi:docname="taz.svg" xmlns:cc="http://creativecommons.org/ns#" xmlns:dc="http://purl.org/dc/elements/1.1/" xmlns:inkscape="http://www.inkscape.org/namespaces/inkscape" xmlns:rdf="http://www.w3.org/1999/02/22-rdf-syntax-ns#" xmlns:sodipodi="http://sodipodi.sourceforge.net/DTD/sodipodi-0.dtd" xmlns:svg="http://www.w3.org/2000/svg"
	 xmlns="http://www.w3.org/2000/svg" xmlns:xlink="http://www.w3.org/1999/xlink" x="0px" y="0px" viewBox="0 0 382.4 147.9"
	 enable-background="new 0 0 382.4 147.9" xml:space="preserve">
<radialGradient id="SVGID_1_" cx="198.8088" cy="92.4522" r="221.4755" gradientTransform="matrix(1 0 0 -1 0 182)" gradientUnits="userSpaceOnUse">
	<stop  offset="0" style="stop-color:#FA4F00"/>
	<stop  offset="1" style="stop-color:#FFFFFF"/>
</radialGradient>
<rect x="-31.2" y="-123" fill="url(#SVGID_1_)" width="460.1" height="425.1"/>
<sodipodi:namedview  bordercolor="#666666" borderopacity="1.0" fit-margin-bottom="0" fit-margin-left="0" fit-margin-right="0" fit-margin-top="0" id="base" inkscape:current-layer="layer1" inkscape:cx="81.137118" inkscape:cy="87.874682" inkscape:document-units="px" inkscape:pageopacity="0.0" inkscape:pageshadow="2" inkscape:window-height="744" inkscape:window-maximized="1" inkscape:window-width="1280" inkscape:window-x="-4" inkscape:window-y="-4" inkscape:zoom="3.0896271" pagecolor="#ffffff" showgrid="false" units="px">
	</sodipodi:namedview>
<g id="layer1" transform="translate(1061.1371,-673.91609)" inkscape:groupmode="layer" inkscape:label="Layer 1">
	<g id="g8561" transform="translate(-1064.7131,670.74815)">
		<path id="path8563" inkscape:connector-curvature="0" d="M223.4,145.2L223.4,145.2c3.2,0.1,6,0.4,9.1,0.2c3.4,0.2,5.7,0,8.8,1
			c3,1,10.6,3.6,13.9,6c3.3,2.4,4.2,3.6,3.4,5.5c-0.8,1.9-4.3,2.5-7.8,3.1s-3.9,1.3-4.4,2.1c-0.4,0.7-0.2,1.8,2.1,2.9
			c2.2,1.1,7.1,4,10.9,6.7c3.8,2.7,8.8,7,11.9,9.2c3.2,2.2,5.6,3,8.2,3c2.7-0.1,3-1.1,3-1.1c1.9,1,3.1,3.3,5.4,0.8
			c2.3-2.6,0.4-6.5,0.4-6.5c0.4-1,0-3.8-4.4-7.7c-4.4-4-7.3-3.6-10-3.4c-2.7,0.2-6.4,0.3-9.1,0c-2.6-0.3-7.8-2.3-7.8-2.3
			c6.4-0.1,9.2-1.9,10.5-2.3c1.3-0.4,2.3-2.2,2.3-2.2l0.4,0.4c2.3-0.6,1.5-3.8,1.5-3.8h1.4c0.7-1.5-1-4.7-1-4.7s2.2,0.1,2.2-0.3
			s-0.8-2.6-3.4-4.9c-2.6-2.3-4.9-5-4.9-5c1-0.4,3-1.2,4.8-2.9c1.8-1.7,2.5-4.3,2.6-6.6c0.1-2.4,0.2-6.3,0.8-7.6s1.1-2.2,0.9-3.3
			c-0.2-1.1-1.6,0.2-1.6,0.2c0-1.3,0.3-2.7,1.3-4.6s2.1-3.6,3.1-4.3s0.2-1.6,0.2-1.6c-2.7,0-4.8,1.8-7,4.8c-2.2,3-3.9,8.5-4.9,11.8
			c-1.1,3.3-4.3,6.6-4.3,6.6c-1.2-2.6-1-5.5-1.3-7.9c-0.2-2.4-1.3-7.2-1-10.7c0.3-3.5,1.4-7.7,2.1-12.2s1.5-11,2-15.2
			s1.5-8.2,1.5-8.2s3-3.5,6-6.3c3-2.7,8.6-6.4,12.2-7.9c3.6-1.6,6.5-4.1,7.4-5.1s1.4-1.5,1.4-1.5c0.3,0.5,0.8,0.8,0.8,0.8
			c1.2-0.4,1.1-4,1.1-4s0.4,0.3,0.8,1.1c0.4,0.8,1.2,0.2,1.2,0.2c0.9-3.1-1.4-5.1-1.4-5.1c1.6,0.9,2.3,0.3,2.3,0.3
			c-1.9-5.5-9.3-7.3-15.1-7.7c-5.8-0.4-5.9-0.6-9.8-1.1c-4-0.5-2.8-1.7-2.8-1.7c2.6-2.8,3.6-5,5.2-10.2c1.6-5.1,1.5-7.2,0.7-9.9
			c-0.7-2.6-1.6-4.1-4.3-3.3c-2.7,0.8-4.3,3.4-4.3,3.4c-0.4-1-0.9-4-0.8-6.3s0.2-3.3-0.7-4.6c-0.9-1.2-0.6-1.6-4,0.3
			c-3.4,1.9-4.1,4.9-4.1,4.9c-2.5-5.3-4.7-5.9-6.7-6.1c-2-0.2-3.7,0.8-5,4.9c-1.1,3.9,0.6,7.4,1.6,8.6s2.2,1,3.5-0.3
			c1.3-1.3,1.6-3.8,1.6-3.8c1.1-0.2,2.7,3.3,3.5,5.1s0.7,3.7,0.4,6c-0.3,2.3-1.3,3.6-2.7,3.8c-1.4,0.2-3.4-1.1-3.4-1.1
			c3.6-3.2,4.2-5.9,2.7-7.9s-2.8-0.3-4.6,1.3c-1.8,1.6-1.8,2.9-2.9,5.2s-0.2,3.3,1.3,4c1.5,0.7,1.9,0.3,3.3,1.9
			c1.4,1.6,3.1,4.6,5.9,6.3c2.7,1.7,4.9,1,4.9,1c1.3,0.9,4,0.7,4,0.7c0.6,0.4,1.8,0.5,4.6,1.2c2.8,0.7,3,0.9,5.7,3.5
			c2.7,2.7,5.5,4.4,5.5,4.4c-2.1,2-5.5,4-8.6,4.8s-5.4,0.2-9.2-0.4c-3.8-0.6-8.1-0.6-8.1-0.6c1.2-1.3-0.3-1.5-0.3-1.5
			c0.3-0.3,0.7-1.5,0.7-1.5c-2.5-0.7-3.8,0.5-3.8,0.5c1-1.8,0.1-3.3,0.1-3.3c0.7-0.4-0.3-2-0.3-2c1.1-0.4,1.1-1.1-0.4-2.3
			s-3.3-0.5-3.3-0.5c1.2-1.5-0.7-1.6-2.1-1.5c-1.4,0.2-2.3,1.1-2.3,1.1c0-2-0.9-1.8-1-0.8c-0.3,1.1-0.5,1.8-1.6,3.3
			c-1.1,1.5-2.6,1.8-2.6,1.8c-0.3-1.9-1.5-1.9-1.5-1.9s2.7-2,3.1-5.8c0.4-3.8-0.7-4.3-1.2-4.9c-0.4-0.6-1.1,1.1-1.1,1.1
			c0.2-1.8-0.2-3.7-1.6-5.3c-1.4-1.6-1.7-0.9-1.7,0.4c0,1.2-0.3,4.2-1,5.6s-2.6,3.4-2.6,3.4s-0.7-3.4-1.4-4.3
			c-0.6-0.9-1.2,1.4-1.2,1.4s-1-3.9-4.1-5.1c-3.1-1.2-2.1,0.8-0.9,1.9c1.2,1.1,1.5,2.6,1.5,2.6c-2.1-2-4.3-2.5-6.7-3
			c-2.4-0.5-3.2,0.8-2,1.1c1.3,0.3,3,1.8,3,1.8c-3.9-1.7-6.8,0-6.8,0s-0.2-0.4-0.2-1.9s-0.8-1.8-0.8-1.8c-1.8,0.2-1.7,4.7-1.7,4.7
			s-0.4-1.6-1.3-1s-0.7,4.1-0.7,4.1c-2.1,0-3.6,0.7-4.6,1.2c-0.9,0.5-1.4,2-0.8,1.7c0.6-0.3,3.2-0.2,3.2-0.2
			c-1.1,0.3-1.4,2.4-1.7,2.3s-2.2,1.1-3.5,2.2c-1.3,1.1-0.2,5.4-0.2,5.4c-3.8-0.5-4.9,0.1-5.4,0.7s0.7,1.5,0.7,1.5
			c-4.2,1.4-4.6,4.8-4.3,5c0.3,0.2,1.9,0,1.9,0c-2.6,3.8-1.3,11.5-1.3,11.5s-1.3,3.7-3.3,6.5c-2,2.8-6.3,5.2-6.3,5.2s-2.1-2-4.5-3.2
			s-5.3-3.4-6.7-4.8s-1.4-5.6-0.8-8.1c0.6-2.5,2.7-3.7,4.4-4.8s3.8-1.7,3.7-4.8c-0.1-3.1-4.3-5.7-7.1-6.9s-6.1,0.6-7,2.3
			c-0.9,1.8,1.5,3.8,2.9,4.2s2.7,1,2.7,1c-2.6,2.3-5.9,1.1-10.5-2.6c-4.6-3.7-7.9-7.3-10.9-10s-4.8-1-5.9,0s-1.9,6,0.5,9
			s4.8,3.2,6.5,3s1.5-1.7,1.5-1.7c2.1,1.4,3.1,2,3.7,3c0.6,1-0.3,1.9-2.1,1.9c-1.9,0.1-4.5-0.3-7.6-1.6s-4.1-2.4-7.2-0.9
			c-3.1,1.6-0.2,7.8,1.4,9c1.6,1.3,2.4,1.1,4,0.7c1.5-0.4,1.6-2.6,1.6-2.6c1.9-0.1,2.5-1,3.3-0.7c0.8,0.3,2.4,2.8,2.5,3.2
			s-0.9,1.6-1.9,1.8c-1.1,0.2-3.4-0.1-7.5,0.5c-4.2,0.5-2.5,7.6-1.5,8.8c1,1.2,2.2,2.9,3.7,2.9s2.1-0.7,2.6-2.8s-0.6-4.7-0.6-4.7
			c1.1,0,2.2-0.1,3.4,0.1c1.1,0.2,3.1,0,3.1,0c1,1,2.7,2.5,7,2.9c4.4,0.4,5.9-0.8,5.9-0.8c2.1,0.1,3.9,2.8,5.3,4.6
			c1.3,1.7,0.4,1.1,1.9,4.8s5.8,6.8,5.8,6.8c-0.9,0.5-1,1-1,1c0.2,1.2,2.8,1.4,2.8,1.4c-0.6,0.2-0.3,1-0.3,1
			c2.3,1.7,4.6-0.8,4.6-0.8l0.3,0.5c1.5-0.2,4.8-3.9,6.9-5.9c2.2-2,6.8-4.9,6.8-4.9c5.5,12.8,8.5,16.2,8.5,16.2
			c-0.2,0.6-0.2,1.6-0.2,1.6c-1.1,0.4-3,2.1-3.4,5.6c-0.4,3.5,1.3,6.4,5.9,6.2c4.6-0.2,6.4-1.3,6.4-1.3c2.8,4.1,8.8,11.9,8.8,11.9
			s-1.3,1.3-4,2.8c-2.7,1.6-5.6,2-9.4,3.2c-3.9,1.2-4,3.7-3.8,4.5c0.2,0.8,1.3,0.4,1.3,0.4c0.1,5,1.4,4.5,1.4,4.5l0.6-0.6l0.1,0.8
			l1.5-0.3c2.9,2.5,9.5,6.4,10.6,6.9c1,0.5,1.3,1,0.8,1.3s-4.6,1.3-10,1.1c-5.3-0.2-9.2-1.2-13-1s-5.9,1.5-7.8,2.9
			c-1.9,1.4-1.6,3.1-1.6,3.1s-1.2,1-2.3,2.1c-1.1,1.1-2.4,3.9-1,4.9c1.4,1,2.3,0.5,2.3,0.5s-0.3,1.3,1.3,1.8s4.2,0.3,7.8-0.6
			c3.6-0.9,8-3.1,11.9-5c3.9-1.9,5.1-3,7.8-3.8s4.8-1.3,7.1-1.3s4-0.2,5.4-0.2c1.4,0,1.7-1,1.5-2.7c-0.2-1.7-3-3.5-4.4-4.5
			c-1.4-1-2.7-1.6-4.1-2.7c-1.4-1.1-1.7-1.2-1.5-2.2C221.3,145.3,222.2,145.2,223.4,145.2L223.4,145.2z"/>
		<path id="path8565" inkscape:connector-curvature="0" fill="#825810" d="M262.5,135.3c2.3-1.7,4.7-6.5,6-11.6
			c1.4-5,2.5-6.4,4.9-9.3c2.4-2.8,4.8-2.6,4.8-2.6c-1,0.6-1.9,1.5-3.8,4.5c-1.9,3.1-1.4,7-1.4,7c0.5-0.4,1.8-1.4,1.8-1.4
			c-1.2,1.7-1.6,5.2-1.8,9.1c-0.2,3.9-1,5-2.6,7.3c-1.5,2.2-5.1,2.8-5.1,2.8C263.6,139.2,262.5,135.3,262.5,135.3L262.5,135.3z"/>
		<path id="path8567" inkscape:connector-curvature="0" fill="#E0D0BB" d="M196.3,64.2L196.3,64.2c-1.4,1.8-2,4.7,0,7.1
			c2.1,2.4,2.8,2.6,5.7,2.6c2.9-0.1,4.1,0.2,6.5-0.6c0,0,0.2-0.3-0.7-0.5c-0.9-0.2-1.1-0.4-0.1-0.3s1.7,1,2.8,2.2
			c1.1,1.2,4.7,4.3,7.6,5c2.9,0.7,8.6,0.7,10.7-2.6s1.4-5,0.8-6.9c0,0-0.7,0.2-2,0.6c-1.2,0.5-1.4,0.4,0.1-0.4
			c1.5-0.8,2.9-1.5,4.9-1.4s2.6,1,1.6,0.8c-0.5-0.1-1-0.1-1.3-0.1c-0.5,0-0.7,0-0.7,0c3.3,3.9,4.3,11.6,5.8,21.1s1.7,14.3,0.9,18.4
			c-0.8,4.2-2.3,7.5-4.7,8.4c-2.5,0.9-5.2-0.8-7.4-2.1c-2.1-1.3-2.5-2.4-5.2-3.3c-2.6-0.9-6.3-2.2-9.4-2.3c-3.1-0.1-5.9,0.5-7,1
			c-1,0.6-0.4-0.4-0.4-0.4l-0.2-1.6c-3.7,2.9-3.4,7-2.2,8.8c1.2,1.8,4.2,2.2,8.3,1.3c4.1-0.9,3.7-1.7,3.7-1.7
			c-0.6-0.3-1.5-0.4-1.5-0.4s-0.7-1.1,4.2,0.9c4.9,2,10.1,6.6,11.8,7.9c1.7,1.2,3.8,2.1,5.6,2.3c1.8,0.1,4.2-0.6,5.7-3.1
			s1.8-5.8,1.7-7.8c-0.1-2-0.2-6-0.1-7.4c0-0.4,0.3-0.3,0.6,0c0,0.4,0,0.7,0,1.1c0,8.5,0.3,10.3-1.6,14c-1.9,3.7-4.9,4.2-8.8,3.1
			c-3.8-1.1-6.1-5.9-16.7-10.5c0,0-0.7,0.8-1.1,0.9c0,0,5.1,8.2,8.6,11.7s9.5,10,17,10.3s10.9-2.8,11.2-5c0.3-2.3,0.9-4.7-0.2-11.7
			c-0.8-5.6-1.3-10.5-1.5-14c0-3.6-0.3-5.4,0.6-9.1c1-4.3,1.4-13,0.9-17.3c-0.4-4.3-1.9-11.3-5-15.2c-0.6-0.8-1.3-1.3-1.9-1.7
			c0.7-0.2,1.5-0.2,2.8,0.2c0,0-1.9-2.9-4.9-3.4c-3-0.4-5-0.3-5-0.3s2.4-1.1,3.1-1.2c0,0-1.7-1.2-5-0.4s-7.5,2.1-13.7,6.5
			c0,0,1.8,1.8,2.3,3.1c0,0-0.5-0.2-1.2-1.1c-0.6-0.9-3-3-4-3.6c0,0,1.5,2.5,1,3.8c-0.4,1.3-3.1,3.6-6.4,3.2
			c-3.3-0.3-6.8-1.5-8.5-3.3c-1.8-1.8-2.3-4.4-1.9-5.4c0.4-1,1.7-1.7,3.3-2.3c0,0-1.8-0.1-3.9-0.1C199.8,62,197.7,62.4,196.3,64.2
			L196.3,64.2z"/>
		<path id="path8569" inkscape:connector-curvature="0" d="M222.4,73c-0.5,0.6,0.9,1.4,1.2,0.8S222.7,72.6,222.4,73L222.4,73z"/>
		<path id="path8571" inkscape:connector-curvature="0" d="M223.2,76.9c-0.7-0.2-0.7,0.2-0.4,0.6c0.3,0.4,0.7,0.4,0.8,0.2
			C223.7,77.5,223.7,77,223.2,76.9L223.2,76.9z"/>
		<path id="path8573" inkscape:connector-curvature="0" d="M227.1,73c-0.2-0.2-0.7,0-0.3,0.3C227.1,73.7,227.5,73.2,227.1,73
			L227.1,73z"/>
		<path id="path8575" inkscape:connector-curvature="0" d="M199.1,70.9c-0.5,0-0.8,0.5-0.7,0.8c0,0.4,0.3,0.4,0.8,0.2
			S199.7,71,199.1,70.9L199.1,70.9z"/>
		<path id="path8577" inkscape:connector-curvature="0" d="M198.9,67.5c-0.3-0.1-0.7,0.1-0.3,0.4C199,68.2,199.3,67.6,198.9,67.5
			L198.9,67.5z"/>
		<path id="path8579" inkscape:connector-curvature="0" d="M197.5,66.3c-0.3,0-0.7,0.1-0.3,0.4C197.6,66.9,197.8,66.3,197.5,66.3
			L197.5,66.3z"/>
		<path id="path8581" inkscape:connector-curvature="0" fill="#FFFFFF" d="M237.7,112.7c-0.8-1.3-1.5-2.1-2.7-2.9
			c-1.1-0.9-1.7,0.2-2.1,2.3c-0.4,2.1,0.2,5.3,0.2,5.3s0.3,0.8,2.1-0.7S237.7,112.7,237.7,112.7L237.7,112.7z"/>
		<path id="path8583" inkscape:connector-curvature="0" fill="#FFFFFF" d="M232.6,117.4c-1-2.9-3.2-8.5-3.7-11.6s-1-5.5-1.4-5.5
			c-0.4,0-1.4,2-2.5,5.3c-1.1,3.3-1.9,6.8-1.9,6.8c1.7,0.7,2.7,2,5.3,3.6C231,117.6,232.6,117.4,232.6,117.4L232.6,117.4z"/>
		<path id="path8585" inkscape:connector-curvature="0" fill="#FFFFFF" d="M222.4,112c-0.2-0.9-1.5-4.3-1.9-5.1
			c-0.4-0.8-0.7-1.1-1.6,0.3c-0.9,1.4-1,3.2-1,3.2C220.3,111.2,222.4,112,222.4,112L222.4,112z"/>
		<path id="path8587" inkscape:connector-curvature="0" fill="#FFFFFF" d="M217,110.2c0.4-0.7-1.1-3.4-1.9-4.6
			c-0.8-1.3-1.1-0.8-1.9,0.6c-0.9,1.4-0.8,3.3-0.8,3.3C214,109.5,217,110.2,217,110.2L217,110.2z"/>
		<path id="path8589" inkscape:connector-curvature="0" fill="#FFFFFF" d="M212,109.4l0.1-0.9c-1.8-2.2-2.4-5.3-2.8-6.8
			c-0.4-1.6-0.5-1.9-1.1-1.4c-0.6,0.4-1.8,1.9-2.5,4.6c-0.7,2.7-0.1,5.4-0.1,5.4C207.9,109.3,212,109.4,212,109.4L212,109.4z"/>
		<path id="path8591" inkscape:connector-curvature="0" fill="#ED1847" d="M238.4,94.4c-4-6.1-6.8-3.8-8.4-2
			c-1.6,1.8-2.2,4.1-2.2,4.1c-0.1-1.5,0.7-2.7,0.7-2.7c-0.3-1-1.4-3.3-4.5-3.6c-3-0.3-5.3,2.5-7.1,6s-2.5,7.9-2.5,7.9
			c0.4-0.2,0.8,0.3,1.5,1.2c0.8,0.9,1.8,3.4,1.8,3.4c0.1-0.9,1.1-2.3,1.8-3c0.8-0.6,1.2,0.1,1.9,1.6c0.7,1.6,1.6,4,1.6,4
			s0.7-2.4,1.4-4.7c0.6-2.3,1.8-5.4,2.5-6.3s0.8-0.9,1.5,0.1s1,4.4,2,8s2.1,6.7,2.1,6.7c0-0.8-0.1-3.1,0.7-4.9
			c0.8-1.8,1.6-1.1,2.7-0.5c1.1,0.6,2.2,2.3,2.2,2.3c0.9-3.2,1.2-6.2,1.1-9.2C239.1,99.8,238.4,94.4,238.4,94.4L238.4,94.4z"/>
		<path id="path8593" inkscape:connector-curvature="0" fill="#A72244" d="M213.7,104.3c-0.8,0.9-1.6,3.2-1.7,3
			c-0.6-0.7-1.3-2.5-1.8-4.1s-1.2-3.7-1.2-3.7s0.7-1.4,0.6-4.2c0-2.7-1.2-5.1-2.1-7.4c-1-2.2-1.4-3.8-1.4-3.8c0.4-0.7,0-1.8-0.7-4
			c-0.7-2.2-1.3-5.3-1.3-5.3s1.2,2.3,2.3,4c1.1,1.7,1.9,2.2,2.5,1.8c0.6-0.3,0.9-1,0.9-2.5s-0.2-3.6-0.2-3.6l0.4,0.6
			c0.2,1.8,1.2,4.1,2,5.6s1.5,1.6,2.3,1.3c0.8-0.3,0.5-3.2,0.5-3.2l1.2,0.6c0.1,2.3,0.4,4.2,2.1,7c1.7,2.8,3.3,3.3,3.9,3.2
			c0.6-0.1,0.7-0.6,0.7-1.4c0-0.8-0.1-2.6-0.1-4.1s0.4-3.3,0.4-3.3l0.6-0.1c0.2,0.1,1.8,3.6,1.8,3.6c3.4-1.4,2.8-5.6,2.8-5.6
			c0.6-0.5,1.1-1.2,2.1-3.5c1.1-2.3-0.3-5.1-0.3-5.1c1.1-0.6,1.9-0.3,1.9-0.3c3.1,4.1,4.2,12.1,4.8,15.4c0.6,3.3,1.4,8,1.4,8
			c-0.1-0.2-1.4-2.9-4.5-3.2c-3.1-0.3-4.9,3.2-4.9,3.2c-1.9-4.1-5.7-3.6-7.4-2.9s-3.4,2.9-5,5.7C214.7,98.8,213.7,104.3,213.7,104.3
			L213.7,104.3z"/>
		<path id="path8595" inkscape:connector-curvature="0" fill="#E0D0BB" d="M205.6,84.3c-1-0.1-2.7-1.2-4.4-3.1c-1.5-2-2.8-7-2.8-7
			c-2.8-2-3.6-4.1-3.9-6.4c-0.2-2.3,2-5.1,3.8-5.7s5.4-0.6,5.4-0.6c-1.6-2.4-7.1-2.8-8.5-2.7c-1.4,0.1-1.4,0.6-0.8,1.1
			c0.6,0.5,0.7,0.9,0.7,0.9c-3.7,0.7-4.8,3.8-4.8,3.8c0.9-0.4,2.2,0.1,2.2,0.1s-0.5,0-1.4,4.4c-0.8,4.4,0.3,7.1,0.3,7.1
			c0-1,0.4-1.4,0.8-2.1c0.4-0.7,0.8-0.3,0.4,0.5c-0.4,0.8-0.4,1.2,0,2.6c0.5,1.4,4.2,13.2,6.5,17.8c2.3,4.6,5.8,10.8,5.8,10.8
			c0.3-3.9,3.6-6.5,3.6-6.5c0.9-3.8,0.2-5.7-0.5-8.3C207.3,88.5,205.6,84.3,205.6,84.3L205.6,84.3z"/>
		<path id="path8597" inkscape:connector-curvature="0" d="M197.5,70.6c-9.3,1.1-11.2,2.6-11.2,2.7c5.1-1.8,10.1-1.9,11-2
			C198.3,71.2,197.5,70.6,197.5,70.6L197.5,70.6z"/>
		<path id="path8599" inkscape:connector-curvature="0" d="M197.8,68.1c-7.8-0.8-12.5,0.1-12.5,0.1c5.1-0.8,11.4,0.4,12.2,0.4
			S197.8,68.1,197.8,68.1L197.8,68.1z"/>
		<path id="path8601" inkscape:connector-curvature="0" fill="#FFFFFF" d="M227.8,78.9c0.4,3.5-2,4.9-2.2,4.6s-1.6-3.1-1.6-3.1
			C225,80.2,227.8,78.9,227.8,78.9L227.8,78.9z"/>
		<path id="path8603" inkscape:connector-curvature="0" fill="#FFFFFF" d="M222.5,80.7c-0.3,1.1-0.2,5.8-0.2,7.3
			c0.1,1.5-0.2,1.3-1.1,0.8c-0.9-0.4-1.6-1-3.3-3.9c-1.7-2.9-1.3-5.2-1.3-5.2C218.8,80.7,222.5,80.7,222.5,80.7L222.5,80.7z"/>
		<path id="path8605" inkscape:connector-curvature="0" fill="#FFFFFF" d="M214.4,78.5c-0.6-0.4-3.9-3.1-3.8-3
			c1.8,6.3,2.9,6.4,3.6,6.3C214.8,81.6,214.4,78.5,214.4,78.5L214.4,78.5z"/>
		<path id="path8607" inkscape:connector-curvature="0" fill="#FFFFFF" d="M209,73.9c-2.1,0.6-4.5,0.6-4.5,0.6
			c2.8,5.3,3.8,6,4.3,5.9c0.5-0.1,0.8-1.5,0.8-2.3s-0.2-3.8-0.2-3.8L209,73.9L209,73.9z"/>
		<path id="path8609" inkscape:connector-curvature="0" fill="#FFFFFF" d="M203.8,74.5c-1.9,0.2-4.6-0.2-4.6-0.2
			c0.4,1.8,1,4.4,2.9,6.8c1.9,2.5,3.3,3,3.8,2.8s0-1.6-0.8-3.7C204.3,78.2,203.8,74.5,203.8,74.5L203.8,74.5z"/>
		<path id="path8611" inkscape:connector-curvature="0" fill="#FFFFFF" d="M207,64.4c0.3-0.9,1.9-1.2,3.7-0.6
			c1.9,0.6,3.2,1.8,2.9,2.8s-2.1,1.3-3.9,0.6C207.9,66.5,206.7,65.3,207,64.4L207,64.4z"/>
		<path id="path8613" inkscape:connector-curvature="0" fill="#825810" d="M187.1,162.9L187.1,162.9c-1.7,2.1-1.2,3.6-0.1,3.9
			c0.8,0.4,1.8-0.3,1.8-0.3c0.6-1.7,4.2-4.3,5.4-4.8c1.1-0.5,1.6-0.5,1.6-0.3s-1,0.6-3.1,1.8c-2,1.3-3.5,3.1-3.6,4.2
			c-0.1,1.1,0.9,1.5,2.4,1.7s5.3-0.9,8.6-1.9s9-4.1,12-5.7s4.5-2.3,7.6-3c3.1-0.7,8.1-0.7,9-0.7c0.9,0,2.2,0.2,1.8-1.6
			c-0.5-1.7-2.2-3-4.2-4.4s-4.4-2.8-5.1-3.6c-0.8-0.8-0.9-2.1-0.2-3c0.2-0.3,0.8-0.5,1.5-0.6c0.1,0.1,0.2,0.1,0.4,0.1
			c1.8-0.2,6.2,0,9.2,0.2c1.2,0,2.4,0.1,3.4,0.1c1.8,0.2,5,0.7,7.2,1.3c0.5,0.2,1,0.3,1.5,0.5c1.6,0.7,3.9,1.5,5.3,1.9
			c2.5,1,5,2.3,7.5,3.9c3.3,2.1,3.8,3.8,2.6,6.1c-1.2,2.3-4.9,2.9-7.5,3.2c-2.6,0.3-4.7,0.7-4.7,2s2,2.1,4.1,3.2
			c2.1,1.1,7.2,3.7,11.3,7c4.1,3.3,5.7,4.9,8.6,6.9s5.6,3.4,8,3.5c2.4,0.1,2.9-1.3,2.9-1.3c0.5-2.2-0.1-4.3-1.5-6s-4.6-2.7-4.6-2.7
			c3.1,0,5,1.7,6.3,3.9c1.3,2.2,0.5,4.8,0.5,4.8c0.7,0.7,1.6,1.7,2.7,1.9s2.1,0,2.8-2.4c0.7-2.3-0.9-4.2-2.4-6.5
			c-1.5-2.3-5-2.9-5-2.9c2-0.2,3.3,0.4,4.4,1.3c1.1,0.8,2.6,3,2.6,3c0.2-1.1-0.2-1.5-1.5-3.2c-1.3-1.8-3.2-3.6-5.1-5
			c-1.9-1.4-3.7-1.8-6.7-1.5c-2.9,0.3-6.8,0.3-9.2,0.1c-2.7-0.2-6-1.4-8.2-2.4c-2.3-1-4.3-1-4-1.4c0.3-0.4,2.7,0,6.3-0.3
			c3.6-0.2,6.9-1.4,8.6-2.6c1.6-1.2,1.2-2.7,1.7-2.8s0.7,1.3,0.7,1.3c1.1-1,1-2.1,0.5-3.8l0.1-0.1c0.5-0.6,1.5,0.1,1.5,0.1
			s-0.6-1.4-0.8-2.7c-0.2-1.3-1-2-1-2c0.9,0,2.1-0.1,2.1-0.1c-0.5-1.2-3.2-3.6-5.6-6.2s-4.4-4.5-5.1-6.8c-0.3-0.9-1.6-4.8-2.1-8.5
			c-0.4-3.7-0.8-4.6-1.2-8.5v-0.1c0-1.7,0-3.5,0-4.9c0-2.3,0.8-6.8,1.3-8.9s1.1-8.5,1.6-10.7c0.3-1.3,0.6-5.3,0.9-7.8s0-3.5,0.7-5.6
			c0.6-2.1-0.3-2.6,1.3-4.4s6.5-6.5,9.6-8.5c3.1-2,5.9-4,8.3-5s2.9-1.3,6.2-3.8c3.3-2.5,1.7-2.3,2.8-2.9c1.1-0.6,1.3,0.8,1.3,0.8
			c0.3-0.8,0.7-1.5,0.2-3.4l0,0c0-0.4,0.1-0.7,0.2-0.8c0.3-0.2,1.6,0.8,2.1,2.1c0,0,0.8-1.8,0.1-3.2c-1.1-1.7-1.9-2.3-1.1-2.3
			c0.8,0,1.8,0.7,1.8,0.7s-0.4-1.3-2.5-2.6c-2.1-1.4-3.6-2.5-8.3-3.1c-4.7-0.6-11.7-1.2-13.7-1.7s-2.9-0.7-3.1-1.3
			c-0.2-0.6-0.6-0.9,0.3-1.8c0.9-0.9,2.7-3,4.5-7.8c1.8-4.8,2.7-7.5,1.6-10.8s-2-4.4-3.3-3.9c-1.3,0.4-4,2.1-5.3,4.7
			c-1.4,2.6-1.3,6.2-0.8,6.6s2.9,0.8,4.4-1.6s2.4-4.4,2.4-4.4s0.2,1.6-1.1,3.6c-1.3,2-3.2,3.6-4.5,3.6c-1.3,0-2.8-1.8-2.3-4.2
			s0.9-3.5,1.9-4.6c0,0-1-2.6-1-4.7s0.3-4.3,0-5.6c-0.3-1.3-0.6-2-1.5-1.8c-1,0.2-3.5,1.8-4.9,3.8s-1.9,4.8-1.8,6
			c0,1.2,1,2.4,2.1,1.8c1.2-0.6,3.5-2.4,3.9-3.9c0.4-1.6,1.1-2.8,1.1-2.8s-0.1,4-3.5,6.5c0,0,0.9,1.9,1.1,3.1c0.2,1.2,0,2.7-0.4,2.9
			s0-1,0-1.6s0.1-1.6-1.2-4c0,0-2.2,1.3-3.1-0.2c-0.9-1.5-0.4-3.1-0.3-4.6c0,0-1.1-2.5-2.3-4.2c-1.2-1.7-4.3-3.5-5.9-2.5
			c-1.6,1.1-3.7,4.8-2.7,8.3c1.1,3.4,2.2,4.7,3.3,3.9c1.1-0.8,2.2-2.4,2.5-5.7c0.3-3.3,0.5-0.4,0.5,0.1s0,1.1,0,1.1s1-0.4,2.5,2.4
			c1.5,2.8,1.9,3.9,2,5.5c0.1,1.6,0,2.2-0.1,3.3c-0.1,1.1-0.6,3.3-1.2,4.1s-1.4,1.2-3.1,0.9c-1.7-0.3-2.7-0.8-3.5-1.9
			c0,0,2.5-2,3.2-3.7c0.7-1.6,0.9-2.5,0-3.6c-0.9-1.2-2.3-0.6-3.5,0.9c-1.3,1.4-2.8,3-3.6,6.8c0,0,0.4,0.8,1.2,1.3
			c0.8,0.4,1.8,0.9,3,1.9c1.2,1.1,1.7,1.7,2.7,3.2c1,1.4,4,4.5,7.3,4c0,0-0.8-1.5-0.4-3.1c0.4-1.6,0.6-2,0.9-2.5
			c0.3-0.5,0.4-0.2,0.1,0.7c-0.3,0.9-0.7,2.4-0.3,3.6s1.6,2.1,3,2.1s2.9-0.1,3.1-0.1c0.2,0,0.3,0.4-0.5,0.5c0,0,0.5,0.6,2.4,0.8
			s5,1,7.7,3.9c2.7,2.9,4.5,3.8,7,4.9c1.7,0.7,4.3,1.3,5.1,1.6c-2.9,0.1-6.5-1.2-6.5-1.2c-2.6,3.2-8,5.1-11.3,5.6s-2.5-0.1-6-0.7
			s-8.9-0.7-9.8-0.7c-0.9,0-0.6-0.6,0.1-0.9s0.5-0.6-0.2-0.5c-0.7,0.1-1.6,0.4-1.5-0.1c0.1-0.5,1.5-1.5,1.5-1.5
			c-2.5,0-3.6,1.2-3.6,1.2s-1.9,1.9-4.2,3.6c-2.3,1.6-4.8,0.5-4.8,0.5l-0.5,0.5c6.9,1.1,6.8,5.1,6.8,5.1c-0.8-0.5-1.8-0.4-1.8-0.4
			c4.4,4.9,6.1,14.7,5.9,22.4c-0.2,7.7-1.4,12.4-1.7,14.7c-0.3,2.3,0.3,8.2,0.7,12c0.3,3.1,0.6,6.3,1.1,9.3
			c0.3,2.7,0.7,7.9-0.2,10.6c-1,2.9-6,5.2-9.6,5.2c-3.6,0.1-8.8-1.7-12.3-4.1c-3.6-2.5-6.9-6.3-6.9-6.3c-3.2,3.4-6,4.5-8.4,5
			c-2.4,0.5-5.3,1.5-6.9,2.3c-1.6,0.7-1.6,2.7-1.6,2.7c0.3-0.4,1-0.7,1.7-1c-0.7,3.4,0.2,5,0.2,5c0.3-1.4,1.5-1.4,1.5-1.4
			c-0.2,0.5,0,1.8,0,1.8l1.2-0.6c0.3,1,4.1,3.5,7.1,5.3s4.8,2.8,5.2,3.6c0.4,0.8-2.4,1.7-6.3,2s-11.8-0.6-15.7-0.9
			c-3.9-0.3-6.3,0.7-8.9,2.3c-2.6,1.7-2.1,3-2.1,3c0.6-0.6,3-1.9,4.1-2.1c1.2-0.2,0.6,0.2,0.6,0.2
			C192.7,158.4,188.7,160.8,187.1,162.9L187.1,162.9z"/>
		<path id="path8615" inkscape:connector-curvature="0" fill="#825810" d="M250.1,52.4c0.1-0.8-0.7-1.9-1.2-2l1.2-0.2
			c0,0-1.2-1.2-2.9-1.3s-1.9,0.9-2,0.4c-0.1-0.5,1-1.5,1-1.5c-2-1.2-4.4,1.4-4.4,1.4c-0.1-0.6-0.3-1.2-0.3-1.2
			c-0.6,2.5-2.3,3.9-4.1,5.3c-1.8,1.4-2.6,1.1-2.6,1.1c1.2-1,1.1-1.5,0.7-2.6c-0.4-1.1-2.5-0.6-2.5-0.6s1.6-0.8,3.7-3.6
			s0.2-6.7,0.2-6.7s-0.3,1.9-1.1,1.9s-0.3-0.2-0.5-3.1c-0.2-3-2.1-4.1-2.1-4.1c0.3,3.3,0.1,4.9-1,7.1c-1.1,2.2-3.6,3.9-3.6,3.9
			c-0.4-3-1.3-5-1.3-5c0.1,1.2-1,1.8-1,1.8c-2.7-6-5.6-5.9-5.6-5.9c3.6,2.5,2.9,5.6,2.9,5.6s-1.1-1.3-3.6-2.6s-5.3-1.2-5.3-1.2
			c3.5,1.5,4.7,3.3,4.2,3.8c-0.4,0.4-0.7-0.2-1.5-0.6c-0.8-0.5-3.3-1.2-6-0.3c-2.8,0.9-1.6,1.9-0.2,2.1c1.4,0.2,7,0.2,8.9,0.1
			s1.7,0.2,1.7,0.2c-0.7,0.6-4.2,0.8-4.2,0.8c-0.7,0.2-2.6,1.3-1.3,2.4s6.3-0.4,6.3-0.4c-2.4,1.2-5.5,2-7,0.8
			c-1.5-1.1,0.6-2.8,0.6-2.8s-2.6,0-3.1,0.1c-0.5,0.1-1,0.7-1,0.7c5.1,3.9,3.9,5.3,3.9,5.3c-1-2.4-3.4-4.2-4.2-4.6
			c-0.7-0.4-1.6,0.7-1.5,1.1c0.1,0.3,1.1,1.7,2.3,4c1.2,2.3,1.3,6.6,1.3,6.6l-0.1,0.3c2.1-1.7,6.5-3.7,9.1-4.4
			c2.7-0.7,4.4-0.8,6.2-0.7c1.8,0.1,2.5,0.9,3.1,1.4S232,56,232,56s1.1,1.4,1.5,2c0.4,0.6-1.1,0-2.1-0.5s-2.4-0.2-2.4-0.2
			c1.5,2.5,0.4,5,0.4,5s2.6-1,5.8-1.6c3.2-0.6,5,0.8,4.5,0.3s-1-2.8-0.9-4.6s1.2-2.7,1.2-2.7c-0.1,0.3,0.2,1,0.2,1s0.7-1,1.8-2.3
			s3.5-2,4.7-1.8C247.9,50.9,250.1,52.4,250.1,52.4L250.1,52.4z"/>
		<path id="path8617" inkscape:connector-curvature="0" d="M225.6,49.2c0,0-0.3-0.1-2.4,0.5c-2,0.6-1.2-0.1-1.2-0.1
			c2.7-1.5,5-1.1,6.1-0.4c1.1,0.7,0.4,1.1-0.1,0.6S226.8,49.1,225.6,49.2L225.6,49.2z"/>
		<path id="path8619" inkscape:connector-curvature="0" fill="#E0D0BB" d="M243.9,51.8c-2.3,1.2-4,4.4-4.3,5.8
			c-0.2,1.4,1,3.7,2.8,3.9c1.8,0.2,4.4-1.1,7-4c2.6-3,0.5-4.4-1.1-5.5C246.7,50.9,245.1,51.2,243.9,51.8L243.9,51.8z"/>
		<path id="path8621" inkscape:connector-curvature="0" fill="#825810" d="M211.5,45.3c-1-0.2-1.6-0.2-2.2-1.4c-0.7-1.1,1.1-2,1.1-2
			c-0.9-2.1,0.2-3.2-0.3-3.2c-0.9,0-1.2,2.8-1.2,3.6s-0.3,1.4-0.3,1.4l-1.2-1.5c-0.7,0.1-0.4,3.4-0.4,3.4c1.3,0.1,2.5,1.2,2.5,1.2
			c0.9-0.7,1.9-1,1.9-1C211.4,45.5,211.5,45.3,211.5,45.3L211.5,45.3z"/>
		<path id="path8623" inkscape:connector-curvature="0" fill="#FFFFFF" d="M220.8,67.2c-5.8-4.2-8.2-5-8.2-5
			c2.5-2.4,5.6-3.9,8.7-4.6c3.1-0.7,5,0.9,5.5,2.4s-0.8,4-0.8,4C224.4,64.7,220.8,67.2,220.8,67.2L220.8,67.2z"/>
		<path id="path8625" inkscape:connector-curvature="0" d="M216.3,60.9c-1.4,0.4-0.2,3.3,0,3.3c0.2,0.1,1.3,0.4,1.7-1.1
			C218.4,61.6,217.2,60.6,216.3,60.9L216.3,60.9z"/>
		<path id="path8627" inkscape:connector-curvature="0" fill="#FFFFFF" d="M212.1,62.1c-3.6-0.7-6.2-0.2-6.2-0.2
			c-1.6-2.3-1.6-9-0.3-11s1.8-1.2,4.3,2.8S212.1,62.1,212.1,62.1L212.1,62.1z"/>
		<path id="path8629" inkscape:connector-curvature="0" d="M208.7,58.1c-0.6,0-0.9,0.9-0.9,1.6s0.6,2.2,1.3,2.2s1-1.3,1-2
			S209.6,58.2,208.7,58.1L208.7,58.1z"/>
		<path id="path8631" inkscape:connector-curvature="0" fill="#825810" d="M199.2,53.4c0.6-0.2,1-0.2,2,0.5c1,0.7,2,3.1,2.5,4.5
			s1,2.2,1,2.2c-0.4-1.7-0.4-5.6-0.4-5.6s-0.6-1.7-1.5-2.8c-0.9-1-1.2-0.4-2.3,0S199.2,53.4,199.2,53.4L199.2,53.4z"/>
		<path id="path8633" inkscape:connector-curvature="0" fill="#E0D0BB" d="M204,60.2c0.8,1.2-0.8-0.1-0.9,0
			c-0.7-0.5-3.2-1.3-3.2-1.3s-1-0.6-1-2.2c0-1.6,0.3-2.7,0.3-2.7c1.5-0.3,2.4,1,3,2.2C202.9,57.4,204,60.2,204,60.2L204,60.2z"/>
		<path id="path8635" inkscape:connector-curvature="0" fill="#825810" d="M191.9,77.7L191.9,77.7c1.1,3.4,4.2,12.2,4.3,12.5
			c-1.8,0.8-5.7,3.4-7.2,5.1s-3.9,3.6-4.6,4.5s-1.4,0.9-1.4,0.9l0.3-1c0,0-0.7,0.8-2.3,1.7c-1.5,0.9-2.4-0.1-2.4-0.1
			c1.1-0.1,0.8-1.2,0.8-1.2c-1.7,0.1-2.9-0.8-2.9-0.8c1.4-0.6,1.2-1.3,1.2-1.3c-2.3-1.3-4-3.1-5.5-5.2c-1.6-2.2-1.5-3.7-1.8-4.6
			c-0.3-0.9-1-2.2-3-4.2s-3.2-2.5-3.2-2.5s0-0.4,0.4-1s0.1-0.9-0.5-0.3c-0.6,0.6-0.7,1.4-1.6,1.8c-0.8,0.3-3.1,0.3-5.8,0.1
			c-2.8-0.2-4.1-1.5-5.1-2.2c-1-0.7-1.5-0.4-2.6-0.4c-1.2,0-1.6-0.3-2.3-0.3s-2.7,0-2.7,0c-0.5-1.1-1.2-1.1-1.2-1.1s0.7,1.5,1.2,3.8
			c0.6,2.3,0,4.2-1.6,4.7s-3.4-2.1-4.1-3.9c-0.8-1.8-0.8-4.4,0.2-5.7c1-1.3,3.2-1.2,5.8-1.2s3.6-0.5,4.4-1s1.3-1.5,1-2.1
			c-0.4-0.7-1.7-2.8-2.9-3.5c-1.2-0.7-1.5,0-2.1,0.4c-0.6,0.4-1.4,0.1-1.4,0.1c-0.2-2.2-1.7-4.1-2.4-4.7s-0.7,0.1,1.1,2.7
			s0.3,4.3-1.3,5c-1.5,0.6-3.5-1-4.6-4.2c-1.1-3.2,0.2-4.2,1.4-4.8c1.2-0.6,1.7-0.5,3.7,0.3c2,0.8,5.1,2.1,6.8,2.4s4.7,0.4,5.7-0.6
			s0-2.6-1.1-3.3c-1.2-0.7-3.3-2.3-3.3-2.3s0-2.1-0.8-3.5s-2.1-3.5-2.1-3.5s0.6,2.3,1.2,3.6c0.6,1.2,1.4,3.4,0.9,4.7
			s-2.5,1.1-5.3-0.6c-2.8-1.7-3.5-6.5-2.4-8.9c1.2-2.4,2.8-2.3,4.6-1.4c1.7,0.9,3,3.1,4.9,4.7c1.9,1.6,6,5.3,8.8,7.4
			c2.8,2.1,5.2,2.7,7.1,2.4c1.8-0.3,2.8-1.6,2.8-1.6s1.1,0.7,1.4,0.2c0.3-0.4-1.7-1-3.4-1.4c-1.7-0.5-4-2.1-4-3.3
			c0-1.3,1.7-2.2,3.1-2.6c1.4-0.3,3.3-0.4,5.4,0.9c2.1,1.4,4.1,3.2,4.6,5s-1.3,3.4-3.3,4.7c-2,1.3-3.2,2.3-4.1,3.4s-0.6,2.7-0.9,5.4
			c-0.3,2.7,0.7,4.6,2.1,6.1c1.4,1.6,2.3,2,4.5,3.3c2.2,1.3,4.6,3.4,5.8,4.3c1.2,0.9,1.5,2.4,1.8,3.2s0.3-0.2,0.2-1.2
			c-0.2-1-1.1-2.2-1.1-2.2c1.3-0.5,4.3-2.9,6.3-5.1s3.7-6.6,3.7-6.6s0,1.2,0.3,1.2C191.7,78.9,191.9,77.7,191.9,77.7L191.9,77.7z"/>
		<path id="path8637" inkscape:connector-curvature="0" d="M158.5,70.4c-3.1,3.4,1,6.7,1,6.8C156.9,73.9,158.5,70.4,158.5,70.4
			L158.5,70.4z"/>
		<path id="path8639" inkscape:connector-curvature="0" d="M226.9,75.1c-0.3-0.7,1-0.4,0.9-0.3c7.5,1.9,7.9,4.8,7.9,4.8
			C232,75.5,226.9,75.1,226.9,75.1L226.9,75.1z"/>
		<path id="path8641" inkscape:connector-curvature="0" d="M225.9,76.3c7.2,5.2,6.3,5.9,6.2,5.9c-2.8-3.8-5.7-5-6.3-5.2
			C225.2,76.8,225.9,76.3,225.9,76.3L225.9,76.3z"/>
	</g>
</g>
</svg>
