<?xml version="1.0" encoding="utf-8"?>
<!-- Generator: Adobe Illustrator 21.0.0, SVG Export Plug-In . SVG Version: 6.00 Build 0)  -->
<!DOCTYPE svg PUBLIC "-//W3C//DTD SVG 1.1//EN" "http://www.w3.org/Graphics/SVG/1.1/DTD/svg11.dtd">
<svg version="1.1"
	 id="Layer_1" inkscape:output_extension="org.inkscape.output.svg.inkscape" inkscape:version="0.48.4 r9939" sodipodi:docname="Warner_Bros_logo.svg" sodipodi:version="0.32" xmlns:cc="http://creativecommons.org/ns#" xmlns:dc="http://purl.org/dc/elements/1.1/" xmlns:inkscape="http://www.inkscape.org/namespaces/inkscape" xmlns:rdf="http://www.w3.org/1999/02/22-rdf-syntax-ns#" xmlns:sodipodi="http://sodipodi.sourceforge.net/DTD/sodipodi-0.dtd" xmlns:svg="http://www.w3.org/2000/svg"
	 xmlns="http://www.w3.org/2000/svg" xmlns:xlink="http://www.w3.org/1999/xlink" x="0px" y="0px" viewBox="0 0 337 384.3"
	 enable-background="new 0 0 337 384.3" xml:space="preserve">
<sodipodi:namedview  bordercolor="#666666" borderopacity="1.0" gridtolerance="10.0" guidetolerance="10.0" id="base" inkscape:current-layer="Layer_1" inkscape:cx="355.80569" inkscape:cy="369.95031" inkscape:pageopacity="0.0" inkscape:pageshadow="2" inkscape:window-height="706" inkscape:window-maximized="1" inkscape:window-width="1360" inkscape:window-x="-8" inkscape:window-y="-8" inkscape:zoom="256" objecttolerance="10.0" pagecolor="#ffffff" showgrid="false">
	</sodipodi:namedview>
<g>
	<path fill="#FFFFFF" d="M293,29.6c6.1-8.2,4.5-19.8-3.7-25.9c-8.2-6.1-19.8-4.5-25.9,3.7l-100.7,134l-73-83.8
		C83,50,71.3,49.2,63.6,55.9c-7.7,6.7-8.5,18.4-1.8,26.1l52.4,60.1h94.3L293,29.6z"/>
	<path fill="#FFFFFF" d="M299.7,158.1H37.3C16.7,158.1,0,174.8,0,195.4V347c0,20.6,16.7,37.3,37.3,37.3h262.4
		c20.6,0,37.3-16.7,37.3-37.3V195.4C337,174.8,320.3,158.1,299.7,158.1z M254.2,342.4c0,6.5-5.3,11.8-11.8,11.8H42.6
		c-6.5,0-11.8-5.3-11.8-11.8V200c0-6.5,5.3-11.8,11.8-11.8h199.8c6.5,0,11.8,5.3,11.8,11.8V342.4z M314.1,303.1
		c0,10.6-8.6,19.1-19.1,19.1s-19.1-8.6-19.1-19.1v0c0-10.6,8.6-19.1,19.1-19.1S314.1,292.5,314.1,303.1L314.1,303.1z M314.1,239.3
		c0,10.6-8.6,19.1-19.1,19.1s-19.1-8.6-19.1-19.1v0c0-10.6,8.6-19.1,19.1-19.1S314.1,228.7,314.1,239.3L314.1,239.3z"/>
</g>
</svg>
