<?xml version="1.0" encoding="utf-8"?>
<!-- Generator: Adobe Illustrator 21.0.0, SVG Export Plug-In . SVG Version: 6.00 Build 0)  -->
<!DOCTYPE svg PUBLIC "-//W3C//DTD SVG 1.1//EN" "http://www.w3.org/Graphics/SVG/1.1/DTD/svg11.dtd">
<svg version="1.1"
	 id="Layer_1" inkscape:output_extension="org.inkscape.output.svg.inkscape" inkscape:version="0.48.4 r9939" sodipodi:docname="Warner_Bros_logo.svg" sodipodi:version="0.32" xmlns:cc="http://creativecommons.org/ns#" xmlns:dc="http://purl.org/dc/elements/1.1/" xmlns:inkscape="http://www.inkscape.org/namespaces/inkscape" xmlns:rdf="http://www.w3.org/1999/02/22-rdf-syntax-ns#" xmlns:sodipodi="http://sodipodi.sourceforge.net/DTD/sodipodi-0.dtd" xmlns:svg="http://www.w3.org/2000/svg"
	 xmlns="http://www.w3.org/2000/svg" xmlns:xlink="http://www.w3.org/1999/xlink" x="0px" y="0px" viewBox="0 0 354.6 370.2"
	 enable-background="new 0 0 354.6 370.2" xml:space="preserve">
<sodipodi:namedview  bordercolor="#666666" borderopacity="1.0" gridtolerance="10.0" guidetolerance="10.0" id="base" inkscape:current-layer="Layer_1" inkscape:cx="355.80569" inkscape:cy="369.95031" inkscape:pageopacity="0.0" inkscape:pageshadow="2" inkscape:window-height="706" inkscape:window-maximized="1" inkscape:window-width="1360" inkscape:window-x="-8" inkscape:window-y="-8" inkscape:zoom="256" objecttolerance="10.0" pagecolor="#ffffff" showgrid="false">
	</sodipodi:namedview>
<path id="path5" inkscape:connector-curvature="0" fill="#FFFFFF" d="M177.3,0c-8.7,1.8-84.9,11.8-94.4,16.6
	c-2.2,4.4-6.8,18-8.2,20.2c-6.1,1.3-31,6-32.5,6.9c-0.9,2.6-6.6,13.8-7.9,15.2C29,60.2,4.5,64.7,1.4,66.9
	C-0.3,77.4-7,182.6,36.8,251.3s120.3,114.5,140.5,118.9h0.2c20.1-4.4,96.6-50.1,140.3-118.9c43.8-68.7,37.3-173.9,35.5-184.4
	c-3.1-2.2-27.6-6.7-32.8-8.1c-1.3-1.3-7-12.5-7.9-15.2c-1.6-0.9-26.4-5.6-32.5-6.9c-1.4-2.2-6-15.8-8.2-20.2
	C262.3,11.8,186,1.9,177.3,0z M177.3,26.8c7.5,1.6,72.7,10.3,80.8,14.4c1.9,3.7,5.7,15.4,6.9,17.2c5.2,1.1,26.6,5.1,27.9,5.8
	c0.7,2.2,5.5,12,6.6,13.1c4.5,1.1,25.5,4.9,28.1,6.8c1.5,9,7.1,98.8-30.3,157.5c-37.4,58.8-102.8,97.9-120,101.7h-0.2
	c-17.2-3.7-82.5-42.9-120-101.7C19.9,182.9,25.5,93.1,27,84.1c2.6-1.9,23.6-5.7,28.1-6.8c1.1-1.1,5.9-10.9,6.6-13.1
	c1.3-0.8,22.5-4.7,27.8-5.8c1.2-1.8,5.2-13.5,7.1-17.2C104.7,37.1,169.9,28.4,177.3,26.8L177.3,26.8z"/>
<path id="path9" inkscape:connector-curvature="0" fill="#FFFFFF" d="M189.3,55.6c-2.5,0.2-2.8,2-2.8,2.7
	c-0.5,84.1-0.3,173.3-0.9,259.7c0.6,2.7,4.9-1.5,7.4-2.8c31.9-17.5,131.4-113.9,74.2-148.4c43.8-28.6,36-56,16.6-70.9
	c-40.1-30.9-85.9-38.5-91.2-39.9C191.1,55.5,190.1,55.5,189.3,55.6L189.3,55.6z M215.9,90.1c0.6-0.3,26.3,9.2,40.4,18.8
	c16.1,11,10.7,21.6,1.3,27.9c-5.1,3.5-36.7,26.2-42,27.5C215.5,159.9,215.5,110.6,215.9,90.1L215.9,90.1z M239.5,186.3
	c3.5,0.1,6.9,1.2,9.3,3.8c2.2,2.1,11.8,12.5-8.7,42.1c-7.6,13.5-23.6,30.4-25.4,32c-0.2,0.1-0.3-0.3-0.5-0.2
	c0.2-9.7-0.1-56.4,0.5-69.5C215.8,194,228.9,185.9,239.5,186.3L239.5,186.3z"/>
<path id="path15" inkscape:connector-curvature="0" fill="#FFFFFF" d="M80.5,85.8c-2.6,1.1-25,15.3-27.2,17.6
	c-0.6,19.8,4.7,73.3,24.3,115c2.5,5.3,5.2,10.2,8.1,14.7c5.6,9.6,5.9,8.9,12.4-0.4c4.5-6.1,11-15.1,12.6-17
	c2.2,7.5,16.7,54.1,37.1,82.3c9,12.5,22.9,24.3,22.9,19.5c-0.6-47.6-1.9-253.9-0.4-262.3c-6-0.1-25.8,2.4-29.7,4.5
	c-0.3,7.5,2.7,149,0.8,165c-13.8-33.7-18.5-122.6-15.8-159.2c-7.5,1.5-25.7,8.8-28.3,11.4c-3.4,6.7,1.2,80.6,6,105.4
	c-1.6,2.6-6.3,9.6-7.1,10.7C86.8,176.1,77.7,123.4,80.5,85.8z"/>
</svg>
