<?xml version="1.0" encoding="utf-8"?>
<!-- Generator: Adobe Illustrator 21.0.0, SVG Export Plug-In . SVG Version: 6.00 Build 0)  -->
<!DOCTYPE svg PUBLIC "-//W3C//DTD SVG 1.1//EN" "http://www.w3.org/Graphics/SVG/1.1/DTD/svg11.dtd">
<svg version="1.1"
	 id="svg4314" xmlns:cc="http://creativecommons.org/ns#" xmlns:dc="http://purl.org/dc/elements/1.1/" xmlns:rdf="http://www.w3.org/1999/02/22-rdf-syntax-ns#" xmlns:svg="http://www.w3.org/2000/svg"
	 xmlns="http://www.w3.org/2000/svg" xmlns:xlink="http://www.w3.org/1999/xlink" x="0px" y="0px" viewBox="0 0 552.1 213.5"
	 enable-background="new 0 0 552.1 213.5" xml:space="preserve">
<linearGradient id="SVGID_1_" gradientUnits="userSpaceOnUse" x1="147.381" y1="344.209" x2="412.3119" y2="-114.6649" gradientTransform="matrix(1 0 0 -1 0 229.5441)">
	<stop  offset="0" style="stop-color:#FFFFFF"/>
	<stop  offset="1" style="stop-color:#FFF200"/>
</linearGradient>
<rect x="-33.9" y="-10" fill="url(#SVGID_1_)" width="627.5" height="249.5"/>
<g id="layer1" transform="translate(383.57135,-281.49914)">
	<g id="g4253" transform="translate(-383.57134,281.49924)">
		<path id="path49691" d="M325.3,6.2L325.3,6.2c-3.4,10.1-0.4,21,1.9,30.9c-0.9,0-2.2,0-2.7,0.8c-1,4.1,1.4,7.7,2.6,11.2
			c1.9,4.5,3.9,9.2,5,13.8c-0.8-0.4-1.5-0.8-2.5-0.6c-1,1-0.1,2.6,0,3.7c3.3,8.2,9,15.3,11.3,23.8c0.7,3.3,1.6,6.5,2,10
			c-0.2,0.6-0.8,0.2-1.2,0.4c-1-2.4-2.6-5.2-5.1-6.4c2.9-0.2-0.2-1.9-0.9-2.4c-0.2,0.1-0.2-0.2-0.5-0.1
			c-1.8-10.9-4.4-21.5-11.2-30.2c-1.9,0.4,0.1,2.5-0.7,3.7c-9.7-13.6-23.3-25-32.3-38.8c-1.4-2.6-2-6.1-4.9-7.7
			c-2,0.3-1.9,2.7-2.3,4.2c-1.1,10.5,2.5,19.5,6.7,27.8c-0.7-0.2-1.8-0.7-2.8-0.5c-1.5,2.2,0.2,4.8,1,6.9c2.5,4.3,6.1,8.8,10.4,12.6
			c-1,0.5-2.7,0.2-3.2,1.4c-0.1,3.7,3.6,5.5,6.2,7.3c8.3,4.4,16.6,9.1,23.9,15.8c-0.8,2.3-1.3,4.7-2,7.1c-1.3-2.4-3.4-5.8-6.6-6.3
			c-1-0.1-2,0.1-2.9,0.4c0.7,0.5,1.6,0.8,2.1,1.6c-3.3,0.7-6.4,3.9-7.3,7.1c-0.1,0.6-0.1,1.2,0.5,1.4c0.4-0.2,1-0.3,1.3-0.5
			c-1.5,3.3-2.5,7-3.4,10.6c2.5-2,5.1-3.9,8-4.5c-2.9,4.1-7.5,6.2-12.3,6.9c-4-4.2-9-6.2-14.4-7.1c-0.1,0.4-0.3,0.7-0.2,1.2
			c0.4,0,0.8,0.3,1,0.6c-3.5-0.3-7.6,0-10.9,1.2c0.2,0.6,0,1.3,0.8,1.3c-1.6,0.8-3.2,2.5-3.9,4.2c-1.7-0.3-3.6-0.9-5.5-1.2
			c-3.1-3.5-6.3-6.7-9.5-10.1c-1.5-1.4-3.9-1.8-5.8-1c-2.7,2.1-2.5,5.8-1.9,8.9c0.8,4.7,4.9,8.7,9.3,10.3
			c1.9,8.4,9.9,16.1,18.7,17.2c5,1.3,11.2-0.1,14.7-4.2c4.4,0.8,10.3-0.8,13.7,3.1c1.5,6.1,0.9,13.2,0.4,19.3
			c-0.4,1.7-1,3.3-2.2,4.7c-4.4-1.5-9.4-3.5-14.5-1.8c-0.2,1.9,2.3,1.4,3.4,2.2c0.6,0.2,0,0.7-0.3,0.7c-4,1.5-7.7,4.3-10.1,8
			c1-0.1,2.1-0.6,3-0.3c-1.3,1.5-1.9,3.4-3,4.9c-0.5-2.2-1.5-4.3-2.7-6.2c1.4-5,3.6-11.1,1.1-16.1c-0.8-1.7-1.9-3.3-3.1-4.9
			c0.5-0.7,1.3-0.6,1.9-1.4c-1.9-1.4-4.3-1.7-6.6-2.1c0.2-0.7,1.1-1,1.4-1.8c-1.9-0.9-4.7-0.4-6.3,0.9c-1.5,1.2-2.4,2.8-3.3,4.1
			c-0.7-0.9-1.5-1.5-2.3-2.3c0.3-0.8,1-1.5,1.3-2.3c-0.9-0.3-2.4-0.4-3.5-0.2c0.4-1,1.2-1.8,1.7-2.7c-4.9,0.7-8.2,6.4-9.8,10.7
			c-2,4.2-9.1,8-4.5,12.9c1.8,2.4,4.1,4.5,5.5,6.9c-7.1,1-12.3-4.8-19.7-2.8c-2.3,0.5-4.3,3-4.6,5.3c-0.3,1.8,0,3.6,0.9,5
			c2.6,3.5,7.2,1.7,10.5,1.2c5.5,0,12.1-2.4,16.6,1.9c5.3,2.8,2.8,10.1,3.5,15.2c-0.5,8-2,15.6-5.3,22.5c-0.8-2-0.9-4.4-1.3-6.7
			c-2.8,4.7-5.6,11.6-1.5,16.6c0.2,0.1,0.2,0.3,0.5,0.4c-1.1,0.4-2.2,0.6-3.5,0.6c0.7,2.1,2.8,4.3,5.2,4.4c2.2,0.2,3.9-1,5.4-2.1
			c0.1,0.1,0.2,0.2,0.3,0.2c-0.1,1.7-0.2,3.4-0.3,5c1.4-0.5,2.6-1.8,3.4-3.1c5-7.5,8.5-16.7,16.6-22.1c0.6,1.8,0.6,3.8,1,5.7
			c1.9,0.8,0.7-2.4,1.9-1.3c2.3,8.3,9.4,14.5,12.2,22.5c4,8.7,6.2,18.1,8.8,27.4c-1.3,14.9,0.2,30.9-8.1,43c-2.4,4.2-5.9,8-7.8,12.4
			c0.3,1.9,3.2-1,1.9,1.3c-1.4,1.9-1.8,4.2-2.4,6.2c1.5,1.3,1.6-1.5,3-1.4l0.2,5.3c0.6,0.3,1.1,0.5,1.3-0.3c0.3-0.6,0.3-1.1,1-1.5
			c1.2,6.1,3.9,11.7,6.3,17.3c1,3.3,1.1,7.1,0.3,10.4c-11.4,1.5-20-5.8-28.4-12.5c-3.1-1.9-6.4-3.3-9.5-4.6
			c-0.1,0.8,1.1,1.6,1.4,2.5c-4-1.3-9.5-1.3-13.2,1.1c1,0.4,2,0.6,2.9,1.2c-6.1,2.3-11.2,6.7-16.1,11.6c-1.4,1.9-2.9,4.5-1.6,6.6
			c2.2,3.1,5.9,3.6,9.2,4.4c5,4.4,11.6,4.5,17.9,4.9c14.3,0.2,29.5-1.2,43.4-4.2c0.4,1.8,1,3.4,2.3,4.7c9.2,7.6,18.8,15.3,28.2,22.1
			c4.3,1.9,9.6,3.9,14.2,1.6c4.1,0.9,9.2,1.7,13.1-0.3c1.6-1.1,2-2.9,2.5-4.6c1.1,0.4,2.7,0,3.7-0.7c2.4-2.5,0.4-6.3,0.3-9.4
			c-1.7-6.4-4.8-12.9-11.3-16.5c-2.3-0.6-4-2.7-6.4-3c0.3-1.1,2.7-0.3,1.8-2.2c-13.5-2-22.8,10-35.8,5.1c-6-3.5-2.2-11.6-1.4-16.7
			c2-3.8,3.9-7.5,5.3-11.5c1.2,0.4-0.1,2.9,1.9,2.4c0.6-1.8,0.7-3.8,1.3-5.5c0.6,0.7,0.9,1.5,1.6,2.2c0.9-2.4,0.9-5.4,0.7-8.3
			c0.9-0.1,1.9,0,2.8,0.2c-5.5-7.1-7.1-18.3-3.7-26.8c2.5-8,6.9-15.5,8.6-23.9c2.2-1.2,2.4,1.8,4.1,2.6c1.4,0.9,2.8,1.6,4.4,2
			c3.2,3.1,5.9,6.7,8.8,10.2c0.2-0.2,0.5-0.4,0.8-0.5c-0.3-2.3-1.3-4.5-1.6-6.7c6.6,6.8,9.3,15.8,10.1,25.4c0.3,0.1,0.7,0.5,1.1,0.2
			c1-5.8,1-12.1,1.4-18c3.5,8.3,5.6,17.2,7.3,26.2c1,2.9,3,6.6,6.3,7.1c5.1-0.5,7.4-6.6,8.6-10.9c1.1-4.9,0.5-11,0.3-16.2
			c0.9,1.5,2.3,4.4,4.5,4c1.2-0.9,0.9-2.6,1.1-4.1c-1.2-10.4-4.8-20.2-13.9-26.5c2.5,0,5.1,1.4,7.7,0.5c1.4-2.5-2.3-4.2-3.5-5.8
			c-7.3-4.8-15.9-6.6-24.9-7.3c0-2.3,1.4-5.9-0.7-7.8c-1.4-1-3.4-0.9-4.9-0.4c-4.5,1.7-4.4,6.8-7.4,9.8c-0.7-4.7-0.1-10.2-4.1-13.2
			c-2.1-0.2-4.2,0.9-5.6,2.5c-1.4-1.6-3.2-3.1-5.2-4.2c0.1-0.2,0.3-0.3,0.5-0.5c6.6-2.8,13.6-4.8,18.9-10.4c0.4,1-0.2,2.1,0.1,3.3
			c1.5-1.6,2.6-3.7,3.7-5.4c0.4,1.4,0.4,3,0.6,4.4c2.9-3.7,3.5-8.7,2.7-13.3c1.5,1.5,2.2,3.4,3.3,5c0.6-0.1,0.8-0.8,1-1.3
			c0.3-8.3-8.6-12.8-12.4-19.5c-8.4-9.6-11.8-21.5-13.8-33.8c1.7,0.7,3.1,2.1,4.8,3c-0.6-6.1-6.1-12-11.9-14.5
			c1.2-0.7,2.7-0.5,4.1-0.8c-3.6-3.9-9.8-2.8-14.5-1.4c0.1-1.7,1.5-3.3,2.2-4.9c3.6-5.5,9.2-10.4,15-12.7c9.5,1.3,13.8,13,23.3,14.2
			c1.5,0.1,3.1-0.3,4.6-0.3c-0.6,0.9-1.7,1.3-2.4,2.1c3.3,0.2,7.4-0.6,10.1-3c2.7-2.4,3.2-5.8,3.5-9.3c0.8,0.5,1.6,1.5,2.3,1.9
			c0.1-4.1-2-7.5-3.1-11c1,0.4,1.9,1.2,2.8,1.7c0.4-0.5,1-0.7,0.5-1.4c-3-6.9-9.8-13.9-16.8-17.2c1-0.7,2.8,0,3.4-0.8
			c-3.5-1.9-7.3-3-11.4-3.2c-3.5-5.7-2-13.7-4.2-19.9c1-14.8,8-27.3,11-41.3c0.5-2.4,1.1-4.6,0.8-7.3c-1.2,0-2.2,1.2-3.2,1.7
			c-0.4-2.8,0.5-6.6-1.4-8.9c-0.7,1.1-1,2.5-1.8,3.6c-1.6-3.2-3-6.8-5.3-9.9c-7.4-9-12.8-19.2-18.5-29c-0.9-3.4-1.7-7.2-4.9-9.3
			c-0.2-0.1-0.3-0.1-0.5-0.1C326,4.1,325.7,5.4,325.3,6.2z M271.7,208c0.1-4.2,0.9-8.2,1.7-12.2c1-6.1,7.8-6.7,11.2-10.6
			C281.6,193.2,278,201.2,271.7,208z M343,225.5c0.5,0.9,0.4,2.2,0.2,3.1c-1.8,7.4-7.7,13.8-13.9,18.3c-3.6-8.2-2.6-19.4-0.6-27.7
			c1.1,1.8,2,3.6,3,5.5c1.1-2.9,0.5-6.8,0.1-10c0.9,0.9,1.6,4,3.2,2.4c-0.7-3.2-1-6.6-1.2-10C337.5,213,340.3,219.3,343,225.5z
			 M312.4,363.5c-2.4-5-3.4-10.5-4.3-16.1c-1.6-20.1,0.4-39.9,12.5-55.3C321.1,316.9,317.1,340.4,312.4,363.5z"/>
		<path id="path49695" fill="#ECD9B2" d="M326.1,8.1c1.5-6.6,4.1,2.2,4.8,4c2.2,17.6,13.2,31.2,18,47.6c4.5,13.6,1.3,28.7-2.4,41.3
			c-0.7-0.1-1.4-0.6-2.2-0.8c-1-5.4-2-10.8-3.9-15.9c-3-7.1-8.3-13.3-9.9-20.7c1.2,0.4,2.2,1.5,3,2.6c0.4-0.1,0.9-0.1,1.1-0.6
			c-1-3.1-2-6.1-3.1-9.2c-1.8-5.9-5.5-10.8-6.1-17.1c0.5-2.4,2.4,1,3.4-0.6C326.7,29,323,18.2,326.1,8.1"/>
		<path id="path49699" fill="#ECD9B2" d="M285.1,31.5c-0.1-4-1.2-8.6,1-11.9c1.5,0.8,1.8,2.4,2.6,3.7c4.7,10.6,9.7,21,16.3,30.9
			c7,12.2,19.9,21.8,23.3,35.7c-0.6,0.9-1.2,1.7-1.7,2.6c-7.4-6.3-15.3-11-23.4-15.2c-2.3-1.5-5.6-3.3-5.9-6.1
			c1.5-1.1,4.1,0.8,4.4-1.5c-3.7-2.8-6.6-6.3-9.3-9.7c-1.8-2.9-4.2-5.5-4-9c0.5,0.1,0.9,0.2,1.2,0.5c1.5,0.4,2.6,3.6,4,1.8
			C289.9,46.5,286.1,39.5,285.1,31.5"/>
		<path id="path49703" fill="#806126" d="M352,69c-1.4-19.1-14.7-32.7-18.4-50.7c5.4,9.1,10.5,18.3,17.5,26.7
			c2.2,3.1,3.1,6.8,4.8,10.1c1.6-0.2,1.2-2.2,2.1-3c0.3,2.5,0,5.5-0.4,8.1c0.2,0.4,0.7,0.3,1.1,0.5c0.5-1,1.5-2.1,2.6-2.7
			c-1.7,15.8-10.5,29-11.6,44.9c-0.2,0.8-0.2,1.8,0.1,2.6c1.8,6,1,13.1,3.6,18.6c-4.5-0.3-9.5,0-13.9,0.3c0-0.2-0.3,0-0.2-0.3
			c0.7-2.1,0.9-4.6,1.1-7.1c0,0,0.1,0.1,0.2,0.2c1.2-3.3,1.1-7.6,0.7-11.5c0.2-0.2,0.9-0.1,1.1-0.6c0.1-1.2-0.2-2.3-0.3-3.6
			c1.8-0.4,3.3,0.9,4.9,1.4c0.1-0.1,0.2-0.2,0.3-0.2C351,92.1,353,80.8,352,69"/>
		<path id="path49707" fill="#806126" d="M321.3,73.5c-11.1-12.8-20.3-26.5-27-41.4c9.1,13.1,21.7,23.3,30.1,36.6
			c0.3-1.6,0.2-3.2,0.4-4.8c4.9,7.4,7.2,16.1,8.9,25.1c0.6,1.2-0.2,2-1.4,1.5c-0.3-1.1,0.8-1.7,0.4-2.7c-1.1,0.3-2.3,0.4-3.3,1.2
			C327.7,83.4,324.8,78.3,321.3,73.5"/>
		<path id="path49711" fill="#ECD9B2" d="M324.7,104c1.1-5.1,1.8-10.9,6.3-14.2c-0.3,0.7-0.6,1.6-0.4,2.2c1.6-0.4,3.3-0.1,4.6,0.5
			c-0.9,0.5-2,0.7-2.6,1.4c0.9,0.6,2.4,0.3,3.4,0.8c3.1,1.4,4.4,4.4,5,7.4c-0.6-0.4-0.9,0.3-1.3,0.5c0.5,3.2,1,7,0.6,10.4
			c-0.7-1.7-1.9-3.1-2.8-4.6c-2-2.6-4.3-6.1-7.8-6.8c-3.1,3.7-2.7,8.9-4.4,13.3c-0.9-2.4-1.6-5.2-3.9-6.8c-4.3-0.4-7.8,2-11.4,3.8
			c1-3.7,2.7-7.1,4.9-10.3c-0.3-0.2-0.4-0.8-0.8-0.8c-1.1,0.8-2.2,1.7-3.3,2.3c0.5-0.8,0.8-1.6,1.5-2.3c1.4-1.9,3.8-3.1,5.9-2.8
			c0.5-0.7-0.4-1.7-0.4-2.1c3.3,1.2,4.9,4.9,6,7.9L324.7,104"/>
		<path id="path49715" fill="#806126" d="M326.1,116.4c2.3-4,1.4-9.2,3.9-13.2c0.9,0.4,1.8,0.8,2.5,1.8c3.4,4.9,5.5,12.3,2.8,18.2
			c-4.4-1.3-9.3-2.1-14.1-1.1C322.6,120,324.3,118.3,326.1,116.4"/>
		<path id="path49719" fill="#FFFFFF" d="M260.7,116.4c-1.5-1.4-3.3-3-2.5-5c1.3,0.1,2.4,1,3.3,2c0.8,1,1.9,2.2,1.2,3.4
			C262,117.3,261.2,116.7,260.7,116.4"/>
		<path id="path49723" fill="#B13227" d="M317.8,110c0.4,0,0.8-0.4,1.2-0.3c-0.8,1.5-2.1,2.8-3,4.2c-2.8,2.8-6.5,4.1-8.9,7.1
			c-0.8-0.8-1.6-1.3-2.1-2.1C310,117.7,315.4,115.2,317.8,110"/>
		<path id="path49727" fill="#806126" d="M310.6,119.6c4-1.9,7.2-5.3,9.8-9.1c0.3-1,1.2-0.3,1.5,0.4c-0.2,3.7-0.4,7.7-2.4,10.9
			c-1.7-0.7-3.5-1-5.4-1.2C312.5,119.5,305.9,123.2,310.6,119.6"/>
		<path id="path49731" fill="#B13227" d="M336.3,124.7c1.9-4.3,2-9.9,0.4-14.4c3.5,3,2.5,7.3,1.9,11.3
			C338.1,122.7,338.4,125.4,336.3,124.7"/>
		<path id="path49735" fill="#ECD9B2" d="M291.8,112.7c6.3,1,10.6,6.3,15.4,10.4c3.5,3.6,8.7,2.4,12.4,5.3c-0.6-1.4-2.5-2.4-3.7-3.2
			c0.9-0.1,1.5-0.7,2.4-0.9c3.1,3,7.1,4.6,11.3,3.9c9.3-3.5,17.6-2.9,27.5-2.2c0.8,0.2,8.5,1.3,2.2,1.4c0.2,0.4-0.2,0.7-0.1,1.1
			c7.8,2.5,14.6,8.7,18.4,15.8c-1.3-0.9-2.8-1.2-4.1-1.5c1.7,3.3,3.6,6.5,4.4,10.3c-0.8-0.6-1.5-1.5-2.4-2c0.1,1.9,0.8,4.2,0.2,6.3
			c-0.6,2.9-2.6,6.3-5.6,7.2c-4.2,1.8-0.6-1.1,0.3-2.4c-3.6,0.3-7.5,2.4-11.3,0.8c-7-2.5-11.3-11.5-18.9-13c-4.3-1.4-9.5-2.7-14-0.8
			c0.5,0.5,1.3,0,1.8,0.3c-2.1,1.7-4,3.9-5.7,5.5c-5.5,5.4-5.5,12.8-8.8,19c-8.7,15.1-13.6,32.7-10.8,51.2l1,0c0.5-3,0.6-6.3,1.7-9
			c1.6,13.6,6.2,25.9,12.2,37.4c-0.9,0.6-2.1,1.6-2.5,2.8c-0.9,7.3,4.9,12.3,8.8,17.7c-0.3,3.7,0.1,7.6-1.6,10.8
			c-0.8,0.9-1.6,1.2-2.8,0.9c-14.1-8.4-11.7-26.3-18.6-39.1c-2.6-9-10-15.8-13.3-24.5c-0.4-1.3-0.5-2.8-1-4c-1-0.6-1.2,0.5-1.4,1.1
			c-0.6-4.6-1.4-9.6-0.3-14.2c0.9-2.8-1.2-0.3-1.9,0.1c0.9-4.6,2.6-9.1,3-13.7c-1.1,0.5-2,1.2-3,1.8c0.7-1.4,1.4-2.8,2.3-4.2
			c4.7-5.6,10.4-11.1,15.9-15.8c3.4-2.8,8.4-5.1,9.3-9.9c1.1-6.4,1-13.1,0.4-19.5c1.4,1.1,2.7,2.6,4.1,3.6c-0.7-2.3-3.2-4.5-5.3-6.1
			c1.1-0.3,2.1,0.4,3.2-0.2c0.9-0.6,1.5-1.5,1.4-2.6c3.4,0.4,7.1,1.2,10.9,1.1c4.7-0.3,9.6-0.1,12.5-3.8c0.5-1.4,0.1-3.4-0.4-4.4
			c8.7-0.1,12.8,9.8,20.5,12.5c1.3,0.1,2.9,0.5,4-0.5c-5.6-0.2-9.8-4.7-13.5-8.6c-5.2-5.4-13.6-5.6-20.2-3c0.1,0.2,0.3,0.1,0.6,0.1
			c2.7,0.4,6.2-2.4,7.6,1c0.1,0.9,0.6,2.2-0.2,2.8c-6.5,3.9-15.8,2.2-22.8,0.8c-2.5-0.5,0.3,1.8-0.6,2.8c-1.4,0.9-3.3,0.3-4.9,0.2
			c-3.9-1.6-8.6-0.7-12.8-1.7c-2.6,2.9-5.8,4.9-9.5,4.9c-8.2,0.3-16.6-4.1-20.4-11.5c-6-8.8,5.3,0.8,8-3.6c1.3-2.4-0.1-5.6-1.8-7.5
			c3.9,0.3,6.4,3.1,9.6,5.5c1.8,1.7,3.7,4,5.5,5.2c-1.1-2-2.8-3.9-4.1-5.5c2.4,1,4.7,2.5,6.8,3.6c-1.6-2.2-4-3.5-6.2-4.7
			c6.2,0.4,12.4,3,18,6.1c-0.7-1.3-2.8-2.3-3.7-3.2c5,0,9,2.4,12.9,5.2c-1.6-3.1-5.4-4.7-8.4-6c3.4,0.5,6.5,1.5,9.5,2.8
			c1.1,0.4,2,1.5,3.1,1.5c-3.3-3.9-8.1-5-12.8-5.7c0.1-0.3-0.3-0.3-0.1-0.7c-1.9-2.8-5.1-3.6-8.1-3.7c2.5,1.3,6.8,2,7.1,5.6
			c-1.6-0.1-3.4-0.2-5,0.2c-2.8-1.5-5.9-2.2-9-2.8c-3.5-0.7-7.3,0.8-9.8-2.8c0.2-1,1-1.8,1.4-2.6c1.2-1,2.9-1.7,4.5-1.3
			c0.5-0.8-1-1.2-1.5-2c2.7-0.6,6.1-0.8,8.8-0.3c0.9,0.3,1.8,1,2.7,0.7C292.6,114.1,292.4,113.4,291.8,112.7"/>
		<path id="path49739" fill="#FFFCED" d="M314.8,123.3c0.5-1.8,1.9-0.7,3.1-0.5c-1,0.5-1.9,1-2.9,1.2c-2,0.4-4.2,0.2-5.6-1.2
			c0.1-0.1,0.1-0.2,0.2-0.1c0.8,0,1.9-1,2,0.5C312.5,123.6,313.8,123.7,314.8,123.3"/>
		<path id="path49743" fill="#FFFCED" d="M320.3,123.8c2.1-0.4,3.7-0.6,5.9-0.6c0.6,0,0,0.6-0.1,0.7c-0.1,0.6,0,0.9,0.4,1.2
			c0.8,0.6,1.8,1.1,2.7,0.6c0.9-0.1,1.6-1.2,1.6-2c1.3,0.2,2.6,0.7,3.9,1l0,0.2c-3.3,1.6-8,2.9-11.6,1
			C322.1,125.4,321,124.7,320.3,123.8"/>
		<path id="path49747" fill="#806126" d="M254.8,159.5c3.4-3.4,3.4-8.6,7.3-11.4c0,0.4-0.3,0.8-0.2,1.2c0.8,0.8,1.5,0.2,2.2-0.2
			c2.7-0.8-0.3,1.5-0.3,2.2c0.8,0.5,2-0.5,2.7,0.9c0.5,0.8,1.5,1.6,0.8,2.7c-3.2,2.6-6.8,5.2-9,8.4c0,0.1,0.1,0.1,0.1,0.1
			c2.8-1.9,5.4-4.5,8.4-6.3c-0.2,3.4,0.1,6.7,1.1,9.7c-0.2-3.8-0.3-7.9,0.6-11.4c0.9-3,3.5-6.7,6.8-7.1c0.1,0.7-1.2,1-1.3,1.8
			c2.1,0.7,4.5,0.5,6.5,1.4c-0.2,0.6-1,0.5-1.2,1c1.5,1.8,3.1,3.7,4.1,5.9c2.1,4.3,0.1,9.6-0.9,14.1c-3-3.1-4.9-7.1-5.4-11.7
			c-2.2,8.2,7.4,12.6,7.6,20.5c-1.7,6.8-10.3,5.5-12,12.2c-2.7,8.6-3.5,19.1-1.3,28.4c0-3.7,0-7.4,0-11.1c2.1-3,3.9-6.2,6.4-8.9
			c2.1-3,3.2-6.1,6.3-8.1c-1.1,4.4-1.9,9-3.3,13.4c-0.1,0.5-0.2,1,0.4,1.1c1,0.4,1.2-0.9,1.9-1.5c-0.1,2.7,0,5.7,0.3,8.4
			c-9,5.9-12.6,16.1-18.5,24.2c0.2-1.7,0.4-3.8-0.9-4.8c-1.6,1.8-3.6,3-6.2,3c-1.1-0.3-2.3-0.8-2.7-1.9c1.3-0.2,2.8-0.2,3.9-1.2
			c-0.8-0.9-1.9-1.3-2.6-2.5c-2.2-3.2-0.9-7.8,0.4-11c0.4,2,0.4,4.2,1.7,5.5c6-10.6,7.8-23.4,6.4-36.4c0.6,0.2,0.9,1.2,1.5,1
			c-2.3-4.3-6.6-8.7-11.7-9.1c-6.3,0.1-11.7,0.9-17.7,1.6c-1.1-0.3-2.4-1-3-2.1c-1-2.1-0.5-4.6,1-6.2c1.6-1.7,4.4-2.2,6.5-1.6
			c5.9-0.5,9.9,5.1,16.3,2.9c1.4,1.1,2.5,2.8,3.8,3.6c-2.4-5-7.2-9.3-10.5-14.1C250.6,163.4,253.4,161.7,254.8,159.5"/>
		<path id="path49751" fill="#806126" d="M318.5,164.6c1.2-5.7,6.1-9.8,10.1-14c1.6-1.9,5.2-0.9,7.4-0.6
			c-6.9,3.9-13.6,10.2-16.3,17.8c-0.4,1.1-1.8,2.1-1.3,3.5c0.5-0.5,1-1,1.5-1.4c3.6-1.2,8.4-2.7,12-1.4c-1.8,0.3-3.5,0.8-5.1,1.4
			c5.8,1.5,12.4,5.8,14.5,11.9c-1.5-1-3-2.4-4.7-2.4c3,13.1,5.5,26.4,14.7,36.8c3.7,5.9,10.8,10.3,12.2,17.1c-1.2-2.2-3.3-5-5.9-5.3
			c2.1,3.4,2.7,8.4,1.1,12.2c-0.5-1.2-0.2-2.8-0.9-4c-0.1,0-0.2,0.1-0.3,0.2c-0.8,0.8-3.4,8.8-2.7,2.2c-6.5,9-17.2,10.6-26.2,14.9
			c-0.3,0.2-0.8,0.4-1,0.8c0.7,0.1,2.1,0.3,2.9-0.2c3.4-1,6,1.9,7.7,4.1c-0.3,5.2,0.3,10.2-0.9,15c-0.4,0.7-0.6,2.1-1.9,2.1
			c-2.4-4.7-1.9-10.7-3.5-15.8c-1.7-2.1-4-3.6-6.2-4.4c0.3,0.4,0.8,0.6,1.3,1c5.1,2.4,4.3,7.6,5.2,12.2c1.1,2.8-0.6,8.3,4,8.5
			c4.8-4,2.6-11,3.3-16.8c0.3-1.1,0.7-2.4,1.9-3.1c1.1-0.5,2.5-1.5,3.8-0.7c2.5,3.4,2.2,8.2,2.4,12.6c-0.1,6.4-4.5,12.1-10.5,14.4
			c-1.9,0.6-4,0.4-5.5-1.1c-2.2-3.5-4.2-7-6.6-10.4c-2-3.2-5.4-5.5-6.8-9.1c-0.7-2.2-2.3-5.2-0.5-7.4c9.9-5,20.8-11.6,25.7-22.5
			c4.3-6.3-1.5-12-3.3-17.7c-4.4-8.7-10.7-20.7-21.8-21.8c5.2,2.1,10.7,5.7,14,10.8c-0.6,2,3.5,17.4-1.4,5.6c-0.4,0-0.9,0.1-1.1,0.5
			c0.8,3,1.1,6.6,1.2,9.7c-0.8-1.5-1.6-3.1-2.5-4.6c-3.3,9.6-4.1,22.4-0.4,32.2c-3,1.8-5.7,4-8.9,5.1c-6.4-12.3-11.4-25.5-12.4-40.3
			c-0.5-0.1-0.7-0.4-1.1-0.3c-1,1.7-1.5,3.5-2,5.3c-0.5-4.8,0.1-10.2,0.9-15C305.9,188.7,314.7,177.6,318.5,164.6"/>
		<path id="path49755" fill="#806126" d="M296.5,165.3c3.9-0.7,6.9,1.1,10,2.1c-7.8,4.8-14.5,12.2-20.6,18.5c0.9-4.5,2.5-9,6.4-12.1
			c-0.9-0.3-1.9-0.3-2.9-0.4c1.8-2.2,4.1-3.4,6.4-4.7c1.2-0.4,2.7-0.5,3.8-1C300.3,166,297.6,166.2,296.5,165.3"/>
		<path id="path49763" d="M293.1,196.5c0.5-1.9,0.8-4.2,2.2-5.7c-3,9.5-2.4,20.8,0.6,30.3C293,213.8,291.4,204.7,293.1,196.5"/>
		<path id="path49771" fill="#806126" d="M348.5,270.4c2.8-2.9,3.8-6.5,6.1-9.6c1.3-1.4,3.2-2.3,5.2-1.6c1.1,0.3,1.1,1.6,1.2,2.6
			c-0.3,5.3-2.6,9.8-5.1,14.2c-3.4,4.7-9.5,6.3-14.4,6.5C345.6,279.7,348,275.1,348.5,270.4"/>
		<path id="path49775" fill="#806126" d="M361.4,267.7l1.1,0c9.7,1.5,20.4,2.4,27,10.8c-4.7-0.3-9.1-1.4-13.5-2.3
			c-0.3,0.3-0.5,0.9-0.2,1.3c10.9,2.6,17.2,14,19,24.2c0.4,2,0.7,4.8-0.1,6.5c-2.9-2.5-3.9-6.5-5.2-10c-0.5-0.1-0.7,0.2-1.1,0.4
			c1.8,10.3,4.5,24.1-4.1,32c-0.9,0.6-2.2,0.9-3.1,0.4c-6.3-4.8-4.6-13.7-7.5-20.3c-1.7-5.4-2.9-11.3-6.4-15.9
			c-0.3,5.6-0.3,11.2-0.8,16.7c-1.7-8.2-4.3-16.1-11-22.1c5.6-1,11-0.1,15.7-2.8c0.9-0.8,1-2,0.7-3.2c-3.7-5.1-11-3.9-16.6-4.4
			C358.8,275.9,359.5,271.5,361.4,267.7L361.4,267.7z"/>
		<path id="path49779" fill="#806126" d="M297,320.4c10.7-12.6,10.8-29.4,11.7-45.7c1,2.3,2.3,4.4,3.8,6.4c2.3,2.6,4.6,5.4,8.1,6
			l0.1,2.5c-4.4,5.4-7.9,11.5-10.2,17.9c-5.7,17.5-6.6,40.9,1.2,58.1c-1,2.7-1.8,5.5-2.5,8.4c-15,3.3-32.2,4.7-47.6,4
			c-4.5-0.7-9.3-0.9-12.7-4.2c-0.5-1.7,0-3.1,1-4.5c3.1-4.6,7.9-8.3,13.5-7.9c0.1-0.1,0.2-0.1,0.3-0.2c-0.2-0.4-0.7-0.7-0.9-1.1
			c4.4,0.3,8.3,2,12.1,3.1c-4-2.6-8.4-4.3-13.4-4.4c-0.3,0.3-1.1-0.1-1.3,0.5c2.2,1.6-0.6,0.9-1.4,1.5c-5.1,1.6-10.7,6.6-11.2,12.3
			c-2.7-0.5-5.5-1.1-7.5-3.4c-0.6-1.1-0.3-2.1,0.1-3.1c4.2-5.8,10.5-10.6,16.9-13.2c0.9-0.4,2.3-0.1,2.8-0.9
			c0.4-1.6-1.6-1.3-2.4-1.8c2.8-0.9,6.1-0.5,8.7,0.4c1.4,0.5,2.7,1.4,4.1,1.8c-0.5-1.1-1.3-2-1.8-3c2.3,1.2,4.5,2.2,6.7,3.7
			c8.3,7.1,17.5,13.3,29,12c3.6-10.2-3.9-18.2-5.9-27.3c-0.3-1.3-0.2-2.7-0.5-4c-1,0-1.7,0.5-2.3,1.3c-0.2-1.9,0.6-3.6,1.2-5
			c-1.2,0.5-2.4,0.7-3.5,1.5c0.4-0.9,0.6-1.8,1.1-2.6c0.7-1.6,2.2-3.1,2.6-4.6c-1,0.5-2.2,0.4-3.2,0.8
			C294.7,323.8,295.9,322.1,297,320.4"/>
		<path id="path49783" fill="#806126" d="M322.1,286.8c3.7-2.4,2.4-7.6,3.3-11.4c2,2.8,3.2,6,5.9,8.6c1.7,1.3,4.4,1.4,6.5,0.7
			c-3.2,14.5-15.1,27.8-8.3,44.1c0,1.5,4.1,5,0.5,4.1c0.4,2.1,0.5,4.7,0.2,6.7c-0.6-0.5-0.6-1.3-1.2-2c-0.5-0.1-0.7,0.2-0.9,0.4
			c-0.3,1.6-0.6,3.3-0.9,4.9c-0.5-1-1.2-2-1.8-3.1c-0.7,4.8-3,8.9-5.2,13.1c-2.2,4.7-2.8,10.2-2.5,15.6c0.3,2.2,2.6,3.9,4.5,4.8
			c12,4.1,21.2-5.3,32.3-5.2c-1,0.7-1.9,1.4-2.5,2.3c3.4-0.6,6.7,0.1,8.7,3.3c-2.2-0.4-4.5-0.3-6.7,0.2l0,0.2
			c7,2.7,12.5,9.4,13.6,16.8c0.2,3.2,1.4,7.6-0.4,10.4c-3.4,2.7-8.6,1.7-12.3,0.8c0.1-6.7-1-13.4-5.1-18.5c0.1-0.5,0.9-0.3,0.9-0.8
			c-1.6-2.4-4.3-4.6-7.3-3.8c0.9,0.5,2.3,0.8,3.4,1.5c1,0.5,3,2.3,0.4,2.4c4.5,3.9,5.8,9.5,6.3,15.3c-0.1,1.3,0.3,3.2-0.7,4.2
			c-4.1,1.7-8.5-0.1-12.1-1.6c-9.5-6.8-19-14.3-28.4-22c-0.5-0.5-0.8-1.2-1.2-1.9c-1.3-5.8,2.2-10.8,3.2-16.3
			C319.2,337,322.5,312.6,322.1,286.8"/>
		<path id="path49787" fill="#806126" d="M344,284c1.9-0.3,3.8-0.8,5.4-1.4c4.1-3.6,10.5-1.7,15.5-1.7c2.2,0.8,5.2,1.1,5.7,3.8
			c-0.5,1.5-2.2,1.3-3.2,1.9c-8,0.3-15.4,3.1-22.7-0.5C344.1,285.8,340.7,283,344,284"/>
		<path id="path49791" fill="#806126" d="M350.3,289.4c0.1-0.4,0.6,0.2,0.8-0.1c4-1.5,3,4.3,4.2,5.9
			C353.6,293.2,352.1,291.2,350.3,289.4"/>
		<path id="path49799" fill="#806126" d="M363.3,376.6c-0.3-1-0.4-2-1-3c6.5,3.9,9.4,10.9,10.6,18c-0.1,1.9,1,4.2-0.5,5.6
			c-1.1,0.4-1.7,0.5-2.8,0.2c-0.1-8.9-3.2-17.1-10.9-22.3C360.5,375,362.1,376,363.3,376.6"/>
	</g>
</g>
</svg>
