<?xml version="1.0" encoding="utf-8"?>
<!-- Generator: Adobe Illustrator 21.0.0, SVG Export Plug-In . SVG Version: 6.00 Build 0)  -->
<!DOCTYPE svg PUBLIC "-//W3C//DTD SVG 1.1//EN" "http://www.w3.org/Graphics/SVG/1.1/DTD/svg11.dtd">
<svg version="1.1"
	 id="svg82901" xmlns:cc="http://creativecommons.org/ns#" xmlns:dc="http://purl.org/dc/elements/1.1/" xmlns:rdf="http://www.w3.org/1999/02/22-rdf-syntax-ns#" xmlns:svg="http://www.w3.org/2000/svg"
	 xmlns="http://www.w3.org/2000/svg" xmlns:xlink="http://www.w3.org/1999/xlink" x="0px" y="0px" viewBox="0 0 602.4 232.9"
	 enable-background="new 0 0 602.4 232.9" xml:space="preserve">
<linearGradient id="SVGID_1_" gradientUnits="userSpaceOnUse" x1="-217.4916" y1="117.0972" x2="617.4342" y2="117.0972">
	<stop  offset="0" style="stop-color:#FFFFFF"/>
	<stop  offset="1" style="stop-color:#4CCB0E"/>
</linearGradient>
<rect x="-217.5" y="-7" fill="url(#SVGID_1_)" width="834.9" height="248.2"/>
<g id="layer1" transform="translate(383.57148,-372.43572)">
	<g id="g82828" transform="matrix(2.9508045,0,0,2.9508045,-3649.9698,1683.1259)">
		<path id="path49813" d="M1199.6-424.8c3.1-7.5,10.7-15.4,19.8-13.8c7.7,1.4,14.8,8.3,18,15.4c3.5,7.4,6.2,15.5,5.5,24.3
			c-0.4,7.4-4.3,13.3-8.9,19l0.1,2.2c0.9,0.8,1.8,1.8,2.8,2.3c0.8-0.8,0.8-1.9,0.9-3c0.1-0.9-0.3-1.7-0.1-2.6
			c0.1-0.3,0.4-0.5,0.7-0.5c1.5,0.1,2.7,1.6,3.2,2.9c0.3,0.7,0.1,1.6-0.2,2.3c-0.3,1-1.4,1.7-1.5,2.8c1.1,2.8,4.3,4.6,6,7.2
			c0.2,1,1.1,2.1,0.5,3.2c-1.3,0.7-2.6-0.2-3.6-0.8c-1.2-0.1-2.3-0.2-3.4-0.4c-2.3-0.7-3.6-3.2-5.1-4.9c-0.3,0.3-0.7,0.7-1.2,0.6
			l-0.1,2.6c0.1,3.2-0.2,6.7,1.8,9.2c-1-0.4-1.5-1.5-2.3-2.2c0.4,1.4,1.2,2.9,2,4c-1.9-1.3-3.3-3.4-4.4-5.3l0.2,1.3
			c-2.5-2.8-2.3-6.7-2.8-10.4l-0.1-0.1c-0.6,1.6-1.1,3.2-1.2,5c0.6,2.1,3.1,3.4,3.4,5.6c0,0.9-0.5,1.7-1.1,2.3l0.5-0.1
			c-0.9,0.7-1.9,1.5-2.8,2.3c0.3,0.5,0.7,1.1,1.3,1.3c0.6,0.3,1.7-0.4,1.8,0.5c0,0.3-0.3,0.3-0.5,0.5c-1.4,0.3-3.2,0.3-4.2-0.9
			c-0.2,0.3-0.3,0.6-0.4,0.8h-0.9c-0.1-0.5-0.5-0.9-0.5-1.4c0.5-0.9,1.2-1.8,1.3-2.9c0.8,0.3,0.6-0.7,0.7-1.2c-2.8-1-6-1.2-8.8-1
			l-0.2,0.1c-0.4,0.5-0.5,1.2-0.3,1.8l0.7,0c0.1,1.4,0.5,2.7,1.1,4l-0.7,0.1c-0.5,0.1-1.1-0.1-1.3-0.6c-1.2,1-3.3,1.1-4.7,0.3
			c0-0.2-0.2-0.5-0.1-0.7c0.6-0.3,1.4-0.1,2.1-0.3c0.4-0.1,0.7-0.2,0.9-0.5c-1-1-2.1-2-3.2-2.8c0.5,0.1,0.9,0.4,1.4,0.3
			c-0.4-0.5-0.9-0.9-1.1-1.5c-0.1-0.5-0.2-1,0.1-1.5c1-1.2,2-2.4,2.8-3.8c-0.1-1.3-0.5-2.7-1.4-3.7c-0.1,4.5-1.3,9.4-5.7,11.5
			c1.6-1.6,2.3-3.7,2.8-5.8l-0.1,0c-0.3,0.4-0.7,0.8-1,1c1.4-2.9,0.6-6.5-0.5-9.3l-1.4,0.8c-0.5,0.1-1-0.1-1.4-0.5
			c-0.4,0.6-0.7,1.2-1.1,1.9c-1.4,3.1-4.7,3.7-7.6,4.2c-0.5,0.6-1.2,1.1-1.9,1.3c-0.4,0.1-0.9,0-1.2-0.4c-0.4-0.8-0.1-1.8,0.3-2.5
			c-0.2-0.8,0.3-1.4,0.8-1.9c2-1.6,4.3-3.5,5-5.9c0.4-1.1-0.6-1.9-1.3-2.6c-0.7-1-0.5-2.6,0-3.6c0.5-0.7,1.2-1.5,2.2-1.3
			c1,0.5,0.8,1.8,0.9,2.8c0,1.1,1.1,1.8,1.6,2.6c0.6-0.5,1.2-1,1.8-1.5c-0.4-0.8-0.6-1.5-0.8-2.4h-0.1c-0.1,0.9,0,1.8,0,2.7
			c-0.9-1.3-1.3-2.8-1.6-4.3c-4.1-5.1-7.7-10.3-8.1-16.9C1193.6-407.6,1195.7-416.5,1199.6-424.8"/>
		<path id="path49817" fill="#ECD9B2" d="M1200.7-426.3c3.3-6.8,10.3-13.2,18.5-11.9c7.7,1.3,14.6,8,17.9,15.1
			c3.5,7.3,6.2,15.2,5.6,23.9c-0.3,7.3-4.1,13.3-8.6,18.9l-0.6-3.2c0.3,0.7,0.6,1.4,0.9,2c0.3-4.3-1.1-8.4-4.5-11.2
			c0.3-0.9,0.4-2.1,0.1-3c-0.3-0.9-1.1-2.2-2.2-2.3c-1.7-0.2-2.6,1.7-3.4,2.8c-0.6-0.5-1-1.1-1.3-1.8c0.5-1.3,0.8-2.8,0.7-4.3
			l0.2,0.2c0.3-1.7-0.3-3.3-1.5-4.6c0.5,0.1,1,0.5,1.3,0.8l-0.3-0.6c-0.7-1.2-1.9-1.7-3.3-1.6l0.5-0.8c-3.4,1.2-3.6,5-4.4,7.9
			c-1.9-2.5,0.1-6.2-2.3-8.5v0.5c-0.4-0.6-0.8-1.1-1.3-1.6l0,0c0.2,0.5,0.5,0.9,0.6,1.4c-0.4-0.4-0.8-0.6-1.4-0.6
			c-0.9,0.1-1.8,0.5-2.2,1.2c0.5-0.1,1-0.1,1.4-0.1c-1.3,0.8-2.2,2.3-2.3,3.8c0.2-0.1,0.4-0.1,0.5-0.3c-0.5,1.4-0.9,3.2-0.3,4.7
			l0.3-0.2c-0.1,1.3,0.9,2.8-0.2,3.9l-0.5-0.7c-0.7-0.7-1.5-1.3-2.5-1.1c-1.2,0.5-1.4,1.8-1.6,2.9c-0.4,0.1-0.9,0.3-1.2,0.7
			c0.4-0.1,0.8-0.1,1.2-0.1l0.3,1c-3.3,2.5-4.6,6.1-4.4,10.1c0.4-0.8,0.8-1.9,1.2-2.6c-0.2,1.2-0.3,2.6-0.2,3.9
			c-3.7-4.6-6.9-9.4-7.6-15.2C1193.7-407.6,1196.3-417.4,1200.7-426.3"/>
		<path id="path49821" fill="#E85420" d="M1210.3-407.7c0.3-0.3,0.6-0.4,0.9-0.6c0.9-0.4,1.8,0.3,2.4,0.9c0-0.3-0.1-0.6-0.1-0.9
			c0.4,0.5,0.6,1.2,0.8,1.6l0.1-1.1c1.7,2.4-0.1,5.7,1.8,8l-0.1,1c0.8-1.3,0.9-2.9,1.3-4.4c0.5-1.5,1.2-3.4,2.7-4
			c-0.3,0.4-0.6,0.8-0.7,1.2c0.3-0.2,0.4-0.6,0.8-0.7c1.1-0.3,2.2,0.2,2.8,1.1c-0.5-0.3-1.2-0.5-1.9-0.4c0.2,0.1,0.5,0.2,0.7,0.3
			c1.4,1,2.1,2.6,2,4.2c-0.3-0.7-0.5-1.6-1-2.1c1.2,2.5,0.8,5.9-0.7,8.1c-0.8,1.2-2,3.1-3.6,3.1c1.5-1.9,2.7-3.9,2.8-6.4
			c0-1.5-0.6-2.9-1.9-3.8l0.8-1c-0.3,0-0.5,0.3-0.7,0.4c-2.6,3-3.1,6.9-3.2,11c-0.2,0-0.4,0-0.5-0.1c0.1-3.3-0.2-6.4-1.3-9.3
			c-0.5-1.1-1-2.4-2.1-3c0.3,0.4,0.6,0.7,0.8,1.1l-0.2,0.1c-2.3,1.5-1.8,4.8-1.5,7.1c0.3,1.3,1,2.6,1.7,3.8
			c-0.5,0.2-0.7-0.4-1.1-0.5c-2.1-2.3-3-5.5-2.6-8.8c-0.4,0.7-0.2,1.6-0.6,2.3c-0.2-1-0.2-2,0.1-3c0.3-1.1,0.7-2.1,1.3-3.1
			c-0.7,0.4-0.7,1.2-1.4,1.5c0.2-1.5,1.4-2.8,2.7-3.5C1211.3-407.8,1210.7-407.8,1210.3-407.7"/>
		<path id="path49825" fill="#FFFFFF" d="M1211.5-399.4c0-1.6,0.2-3.5,1.9-4.1c1.4,2.3,2,5.3,2.1,7.9l-0.1-0.2
			c-0.2-0.2-0.6-0.1-0.7,0.2c-0.2,0.7-0.2,1.6,0.2,2.1c0.2,0.2,0.6,0.1,0.7-0.2v1.1l-2-0.2C1212.2-394.6,1211.5-396.9,1211.5-399.4"
			/>
		<path id="path49829" fill="#FFFFFF" d="M1216.8-395.4c0.3-2.6,0.9-5.2,2.5-7.1c0.5,0.4,1,0.9,1.3,1.4c1,2.2,0.2,4.7-1,6.6
			c-0.7,0.8-1.2,2.5-2.6,2.4c-0.7,0-0.3-0.9-0.4-1.3l0.2,0.3c0.2,0,0.5-0.1,0.6-0.3c0.3-0.6,0.5-1.5,0-2.1
			C1217.2-395.7,1217-395.6,1216.8-395.4"/>
		<path id="path49833" fill="#FEE9D5" d="M1224.5-394.6c0.5-1.1,1.2-2.3,2.4-3c0.6-0.2,1.3,0,1.8,0.4c0.9,0.9,1.3,2,1.2,3.3
			c-0.8-0.6-1.8-0.8-2.8-0.9c0.2-0.3,0.7-0.7,0.8-1c-0.4,0.2-0.9,0.6-1.2,0.9L1224.5-394.6"/>
		<path id="path49837" fill="#FEE9D5" d="M1205.4-396.4c0.3-0.4,0.8-0.8,1.4-0.7c1.2,0.2,2.2,1.5,2.5,2.5c-0.8-0.2-1.7-0.3-2.6-0.3
			c-0.3-0.3-0.6-0.6-1-0.6c0.2,0.2,0.5,0.4,0.6,0.7l-1.4,0.2C1204.9-395.3,1205.1-395.9,1205.4-396.4"/>
		<path id="path49841" fill="#E85420" d="M1205.1-394.3c2.6-0.8,5.3-0.1,7.1,1.6c-1.1,0.1-2.2,0.4-2.9,1.4c-0.7-0.1-1.4,0-2.1,0.1
			c0.6,0,1.3-0.1,1.9,0.1c-0.4,1.1-0.2,2.5,0.2,3.6c0.6,1.2,1.8,2.2,3.1,2.5c0.1,0.6,0.4,1.2,0.7,1.8c-1.1,0.7-1.6,1.9-2,3
			c-1.1,4.3,0.5,8.6,0.2,13.2c-0.3,3.6-1.1,7.2-4,9.6c1.9-3.2,2.6-7.5,1.6-11.2c0.1,1,0.2,2.4,0.2,3.3c-0.2,1,0.1,2.2-0.6,3l0.2-1.4
			c0.7-7.5-6.2-12.1-5.7-19.5c-0.6,1.6,0,3.6-0.3,5.3c-1.5-3.1-1.1-7.5,0.2-10.5c-0.1,0-0.1,0.1-0.1,0.1c-0.8,1.2-1.3,2.7-2,4
			c0.2-3.6,2-7.2,5.5-9c0.8-0.7,2-0.1,2.8-0.1C1208-394.2,1206.4-394,1205.1-394.3"/>
		<path id="path49845" fill="#E85420" d="M1217.7-391.9c1.9-0.4,3.5-1.3,5.3-2c1.9-0.6,4.6-1,6.2,0c-1.1,0.7-2-0.5-3.1,0l1.4,0.3
			c4.2,1.9,6.5,6.2,6.6,10.6c-0.7-1.4-1.3-3-2.4-4.2c1.8,3.6,2.4,8,1.9,12.3c-0.5-1.2-0.6-2.8-1.3-3.8c1.5,6.3-0.7,13.7,0.9,20
			c-1.5-1.6-1.5-3.8-1.8-5.9c-0.2,2.7,0.4,5.5,1.7,7.9c-2-2.1-3.3-4.6-3.9-7.3c-0.2,1.4,0.6,2.5,0.5,3.8c-0.4-0.6-0.6-1.2-0.8-1.8
			c-1.4-5-0.8-10.7-3.3-15.2c-0.7-2-2.6-4-4.7-4.5c0.6-0.4,1.3-0.9,1.6-1.5c-1.5,1.4-3.6,2.4-5.6,1.4c0.9-0.1,1.8-0.2,2.5-0.7
			c-0.2-0.1-0.6-0.1-0.7-0.1c1.9-0.4,3.7-2.3,4-4.1c-0.2,0.3-0.5,0.6-0.7,0.7c0.4-0.7,0.6-1.6,0.6-2.5l-0.3,0.3
			c0.1-0.8,0.2-1.8,0.7-2.4c1.5-0.1,3.1,0.2,4.4,0.8c-1.8-1.3-4.7-1.4-6.6-0.4c0.6-0.1,1.2-0.4,1.8-0.3c-0.7,1.1-0.4,2.5-1,3.5
			c0.3-0.2,0.4-0.5,0.6-0.7c-0.1,1.3-1.1,2.6-2.3,3.1c0.8-0.1,1.3-0.7,2-1.1v0.1c-1,2-3.1,3.1-5.3,2.9c0.5,0.3,1.2,0.2,1.8,0.4
			c-1.1,0.4-2.8,0.3-3.9-0.1c-0.9-0.4-1.8-1.2-1.9-2.3c2.3,0.4,5,0.5,6.8-1.2c0.8-0.8,1-2,0.9-3.1
			C1220.3-390.5,1218.9-391.4,1217.7-391.9"/>
		<path id="path49849" fill="#FEE9D5" d="M1205-393.1l-0.2-0.8c0.5,0.1,1,0.1,1.5,0.1C1205.9-393.6,1205.5-393.2,1205-393.1
			L1205-393.1z"/>
		<path id="path49853" fill="#FEE9D5" d="M1228.8-393.3l1.1-0.3l-0.2,0.9C1229.4-392.9,1229.1-393.1,1228.8-393.3L1228.8-393.3z"/>
		<path id="path49857" fill="#FEE9D5" d="M1209.3-390.7l0.5-0.8c2-1.7,5.2-0.9,7.4-0.4c1.3,0.5,3.2,1.4,3.2,3.1c0,1.2-0.3,2.3-1.3,3
			c-2.3,1.4-5.8,1.2-8-0.1C1209.4-386.9,1209-388.8,1209.3-390.7L1209.3-390.7z"/>
		<path id="path49861" d="M1207.1-391.1h0.1H1207.1z"/>
		<path id="path49873" fill="#B13227" d="M1211.7-380.5c0.3-0.9,0.8-1.9,1.7-2.4c0.8,0.7,1.7,0.9,2.7,1c-0.1,0.2-0.1,0.5-0.2,0.6
			l-0.9-0.3C1213.8-381.8,1212.5-381.4,1211.7-380.5"/>
		<path id="path49877" fill="#FFED00" d="M1216.8-378c-0.7-1-0.9-2.7-0.3-3.9c0.8,0.5,1.7,0.6,2.7,0.6c-0.1,1.2,0,2.4,0.1,3.6
			c0,0.2-0.1,0.4-0.3,0.4C1218.2-377.1,1217.3-377.3,1216.8-378"/>
		<path id="path49881" fill="#FFE147" d="M1219.4-379.8v-1.5l1.2-0.3c0.9,0.2,1.8,0.6,2.5,1.2c2.7,2.7,0.9,6.9,0.3,9.9
			c-0.1,0.5-0.1,1-0.2,1.4c-2.4-1.9-2.6-4.8-3.2-7.5c-0.7-0.8-0.7-1.9-0.7-2.9c2.1,1.3,2.5,3.8,3,6c0.6-1.2,0.6-2.8,0.2-4
			c0,1.1,0.2,2.3-0.2,3.3C1222.1-376.4,1221.4-378.5,1219.4-379.8L1219.4-379.8z"/>
		<path id="path49885" fill="#FFE147" d="M1211.8-380.2c0.9-1.2,2.7-1.4,4-0.8c-0.1,0.6,0,1.3,0,1.9c-0.5,0-1,0.1-1.5,0.3
			c-1,0.4-1.9,1.4-2.2,2.5c0.1-0.6,0.4-1.3,0.5-1.9c-0.7,1.2-0.9,2.7-0.7,4.2c0.1-1.1,0.3-2.3,0.9-3.2c0.7-1.1,1.8-1.7,3-1.6
			c0.1,0.3,0.3,0.6,0.4,0.9l-0.8,0.4c-2.2,2.3-0.4,6.1-2.6,8.3c-0.1-1.2-1-2.1-1.5-3.1l-0.3-3C1211.2-377,1211-378.9,1211.8-380.2"
			/>
		<path id="path49889" fill="#FEE9D5" d="M1238.1-380.8c0.1-0.2,0.3-0.4,0.5-0.3c1.4,0.2,2.6,1.6,3,2.9c0.2,0.7,0,1.4-0.3,2
			c-0.4,1-1.5,1.7-1.5,2.8c1.2,3.1,4.7,4.9,6.2,7.7c-1.6-1.7-3.7-2.7-5.2-4.5c1.4,2.5,4.5,3.1,5.6,5.8c0.1,0.4,0.2,1.1-0.3,1.2
			c-1.1,0.3-2-0.3-2.9-0.8c0.9-0.1,1.9,0,2.4-0.8c0.1-0.3,0.1-0.7-0.1-1c-1.4-1.4-3.6-1.1-5.3-1.5c1.5,0.6,3.3,0.5,4.7,1.3
			c0.4,0.2,0.6,0.6,0.5,1c-0.1,0.2-0.3,0.4-0.5,0.6c-1.8,0.5-3.8,0.2-5.6-0.1c-2.7-1.2-4.2-4.2-5.9-6.4c0.4-1.6,1.7-3.4,3.3-4.1
			l-0.2,0.4c0.8-0.3,1.1-1.2,1.3-1.9C1238.3-378,1238-379.6,1238.1-380.8"/>
		<path id="path49893" fill="#FEE9D5" d="M1197.5-378.9c0.4-0.8,1.1-1.7,2.1-1.7c1,0.6,0.7,1.9,0.9,2.9c0.1,0.9,0.9,1.5,1.4,2.2
			c0.2,0.4,0.3,0.9,0.4,1.1l0.1-0.5c1.3,0.9,2.2,2.3,2.8,3.7c-1.4,1.5-2,3.4-3.4,4.9c-1.4,1.5-3.3,1.6-5.1,2.1
			c-0.9,0.1-2.2,0.5-2.8-0.3c-0.2-0.4-0.1-0.9,0.1-1.2c0.4-0.6,1-0.9,1.7-1.1c1.2-0.5,2.9-0.1,3.8-1.3l-0.8,0.5
			c-1.7,0.5-3.8,0.3-5,1.9c-0.3,0.4-0.2,0.9-0.1,1.3c0.3,0.6,0.9,0.8,1.6,0.7c-0.3,0.4-0.8,0.7-1.2,0.9c-0.4,0.1-0.8,0.2-1.1-0.2
			c-0.4-0.3-0.3-0.9-0.2-1.4c0.8-2.9,4-3,5.7-5.2l0,0c-1.6,1.7-3.9,1.8-5.3,3.8c-0.1-0.6,0.4-1,0.8-1.5c2.2-1.8,4.9-3.9,5-6.8
			c0-0.9-0.9-1.3-1.4-2C1197.1-376.8,1197.1-378,1197.5-378.9"/>
		<path id="path49897" fill="#FFE147" d="M1218-377.8c-0.6-0.6-0.7-1.5-0.5-2.3C1217.5-379.3,1217.5-378.4,1218-377.8"/>
		<path id="path49901" fill="#B13227" d="M1223.7-370.6c0.6-2.6,1.7-5.5,0.8-8.3c1.3,2.2,2.1,4.6,2.7,7.1c0.6,1.6-0.5,2.9-0.8,4.3
			c-0.9,1.3-2.3,1.9-3.7,2.3l0-0.6c-2.2,0.4-4.7,0.4-6.8-0.1l0.1,0.5c-1.6-0.4-3.6-1.1-4.1-3l-0.2-3.6c0.6,0.9,1.2,1.9,1.3,3
			c0.3-0.1,0.7-0.5,0.9-0.8c0.9-1.6,0.7-3.8,1-5.6c0.3-0.9,0.6-2.2,1.8-2.4l0.5,0.5c0.7,0.3,1.7,0.6,2.3,0c0.7,1.1,0.8,2.6,1,3.9
			c0.4,1.8,1.4,3.7,3.1,4.7C1223.6-369.4,1223.6-370,1223.7-370.6"/>
		<path id="path49905" fill="#B13227" d="M1233.8-373.3c0.3-1.2,0.3-2.5,0.4-3.8l2.2,1.8c-1.3,0.8-2.6,2.2-3.1,3.7l0-3.5
			L1233.8-373.3"/>
		<path id="path49909" fill="#B13227" d="M1202.5-375.1l1.6-1.3l2.8,5.5c0.6,0.7-0.6,0.8-1,1.2
			C1205.6-371.9,1204.4-373.9,1202.5-375.1L1202.5-375.1z"/>
		<path id="path49913" d="M1201-372.3c0.5-0.8,1.6-0.9,2.4-0.6c-0.4-0.1-1,0-1.4,0.1c-1.1,0.6-1.5,2.1-1.8,3.1
			C1200.3-370.6,1200.5-371.6,1201-372.3"/>
		<path id="path49917" d="M1237.2-372.6c2.2,0.6,2,3,2.7,4.6C1239-369.5,1239.1-371.7,1237.2-372.6"/>
		<path id="path49921" fill="#B13227" d="M1204.8-370c-0.1-0.3,0.3-0.6,0.5-0.8c0.1,0.4,0.4,0.8,0.1,1.2
			C1205.2-369.6,1205-369.8,1204.8-370"/>
		<path id="path49925" fill="#B13227" d="M1233.4-369c-0.2-0.4-0.1-1.1,0.1-1.5l0.7,1C1233.9-369.3,1233.8-368.9,1233.4-369"/>
		<path id="path49929" fill="#54512A" d="M1222.6-364.8c1.3-0.3,2.5-0.9,3.5-1.8l-0.3,1.8c-0.9,1.3-2.3,2.1-3.7,2.4
			C1222.4-363.2,1222.4-364,1222.6-364.8"/>
		<path id="path49933" fill="#54512A" d="M1214.4-363.3c-1.4-0.4-0.8-1.9-1.4-2.8c0.9,0.6,1.9,0.9,2.9,1.2l0.3,2.4
			C1215.6-362.7,1215-363,1214.4-363.3"/>
		<path id="path49937" fill="#FFE147" d="M1216.1-365.6c2,0.4,4.3,0.4,6.3,0.1c-0.1,1.4-0.4,2.7-0.7,4c-1.5,0.4-3.5,0.5-5-0.1
			C1216.4-362.8,1216.2-364.2,1216.1-365.6"/>
		<path id="path49941" fill="#0078BB" d="M1222.2-362.1c1.4-0.3,2.8-1.1,3.8-2.3c0.6,1.9,2.8,3.2,3.3,5.1c0.3,1.1-0.5,2-1.4,2.7
			c-1,0.1-2.1,0.1-3,0l0.2-1l0.5,0c-0.1-0.1-0.2-0.2-0.3-0.3c-2-0.8-4.2-1.2-6.6-1.2c-1.6,0.1-3.6-0.3-4.8,0.7
			c0.4-0.1,0.9-0.3,1.4-0.3c-0.4,0.5-0.3,1.2-0.3,1.8c-1,0-1.9,0-2.8-0.2c-0.7-0.9-1.9-1.6-1.4-2.8c1-1.2,2-2.5,2.8-3.8
			c0.9,0.8,1.8,1.3,2.9,1.5c0.1,0.3,0.1,0.7,0.3,0.9c1.6,0.6,3.8,0.5,5.3-0.1C1222.1-361.6,1221.9-361.9,1222.2-362.1"/>
	</g>
</g>
</svg>
